<svg width="262" height="245" viewBox="0 0 262 245" fill="none" xmlns="http://www.w3.org/2000/svg">
<path d="M231.001 122.5C231.001 177.498 186.416 222.083 131.418 222.083C76.4196 222.083 31.8346 177.498 31.8346 122.5C31.8346 67.5016 76.4196 22.9167 131.418 22.9167C186.416 22.9167 231.001 67.5016 231.001 122.5Z" stroke="#D6EEFA" stroke-width="0.833333"/>
<path d="M156 122.5C156 136.077 144.994 147.083 131.417 147.083C117.84 147.083 106.834 136.077 106.834 122.5C106.834 108.923 117.84 97.9166 131.417 97.9166C144.994 97.9166 156 108.923 156 122.5Z" stroke="#D6EEFA" stroke-width="0.833333"/>
<path d="M217.831 73.364C226.143 87.8736 230.923 104.666 230.999 122.569L156 122.885L156 123L156 123.115L230.999 123.431C230.923 141.334 226.143 158.126 217.831 172.636L152.754 135.355C152.718 135.417 152.682 135.478 152.646 135.54L217.401 173.379C208.702 188.266 196.266 200.702 181.379 209.401L143.54 144.646C143.512 144.663 143.483 144.68 143.455 144.696C143.421 144.715 143.388 144.734 143.355 144.754L180.636 209.831C166.126 218.143 149.334 222.923 131.431 222.999L131.115 148L131 148L130.885 148L130.569 222.999C112.666 222.923 95.8736 218.143 81.364 209.831L118.645 144.754C118.624 144.741 118.603 144.729 118.581 144.717C118.541 144.694 118.5 144.67 118.46 144.646L80.621 209.401C65.7341 200.702 53.2976 188.266 44.5985 173.379L109.354 135.54C109.318 135.478 109.282 135.417 109.246 135.355L44.1687 172.636C35.8566 158.126 31.0765 141.334 31.0009 123.431L106 123.115L106 123L106 122.885L31.0009 122.569C31.0765 104.666 35.8566 87.8736 44.1687 73.364L109.246 110.645C109.282 110.583 109.318 110.522 109.354 110.46L44.5985 72.621C53.2976 57.7341 65.7341 45.2976 80.6211 36.5985L118.46 101.354C118.522 101.318 118.583 101.282 118.645 101.246L81.364 36.1687C95.8736 27.8566 112.666 23.0765 130.569 23.0009L130.885 98.0002L131 98L131.115 98.0002L131.431 23.0009C149.334 23.0765 166.126 27.8566 180.636 36.1687L143.355 101.246C143.417 101.282 143.478 101.318 143.54 101.354L181.379 36.5985C196.266 45.2976 208.702 57.7341 217.401 72.6211L152.646 110.46C152.682 110.522 152.718 110.583 152.754 110.645L217.831 73.364Z" stroke="#D6EEFA" stroke-width="150" stroke-dasharray="0.83 50"/>
<path d="M185.265 22.8083C184.904 22.8083 184.549 22.7445 184.199 22.6167C183.849 22.4833 183.554 22.3028 183.315 22.075L183.574 21.55C183.846 21.7722 184.121 21.9417 184.399 22.0583C184.682 22.175 184.971 22.2333 185.265 22.2333C185.682 22.2333 186.007 22.1167 186.24 21.8833C186.479 21.6445 186.599 21.3222 186.599 20.9167C186.599 20.6556 186.546 20.4278 186.44 20.2333C186.335 20.0333 186.185 19.8778 185.99 19.7667C185.801 19.6556 185.576 19.6 185.315 19.6C185.032 19.6 184.776 19.6583 184.549 19.775C184.326 19.8861 184.129 20.0583 183.957 20.2917H183.482V16.8167H187.04V17.3833H184.165V19.7833L183.949 19.7583C184.11 19.525 184.315 19.3445 184.565 19.2167C184.821 19.0889 185.107 19.025 185.424 19.025C185.801 19.025 186.129 19.1056 186.407 19.2667C186.685 19.4222 186.899 19.6417 187.049 19.925C187.199 20.2083 187.274 20.5361 187.274 20.9083C187.274 21.2806 187.19 21.6111 187.024 21.9C186.862 22.1833 186.632 22.4056 186.332 22.5667C186.032 22.7278 185.676 22.8083 185.265 22.8083ZM190.17 22.8167C189.492 22.8167 188.976 22.5611 188.62 22.05C188.27 21.5333 188.095 20.7778 188.095 19.7833C188.095 18.7889 188.27 18.0361 188.62 17.525C188.97 17.0083 189.487 16.75 190.17 16.75C190.854 16.75 191.37 17.0083 191.72 17.525C192.07 18.0361 192.245 18.7861 192.245 19.775C192.245 20.7695 192.067 21.525 191.712 22.0417C191.362 22.5583 190.848 22.8167 190.17 22.8167ZM190.17 22.2417C190.642 22.2417 190.99 22.0417 191.212 21.6417C191.44 21.2417 191.554 20.6195 191.554 19.775C191.554 18.9306 191.44 18.3139 191.212 17.925C190.99 17.5306 190.642 17.3333 190.17 17.3333C189.698 17.3333 189.348 17.5306 189.12 17.925C188.898 18.3195 188.787 18.9361 188.787 19.775C188.787 20.6195 188.898 21.2417 189.12 21.6417C189.348 22.0417 189.698 22.2417 190.17 22.2417Z" fill="black"/>
<path d="M233.802 68.6917V63.4667L234.193 63.6667L232.585 64.6917V64.0333L234.102 63.0667H234.493V68.6917H233.802ZM232.493 69V68.425H235.802V69H232.493ZM238.924 69.0667C238.246 69.0667 237.729 68.8111 237.374 68.3C237.024 67.7833 236.849 67.0278 236.849 66.0333C236.849 65.0389 237.024 64.2861 237.374 63.775C237.724 63.2583 238.24 63 238.924 63C239.607 63 240.124 63.2583 240.474 63.775C240.824 64.2861 240.999 65.0361 240.999 66.025C240.999 67.0194 240.821 67.775 240.465 68.2917C240.115 68.8083 239.601 69.0667 238.924 69.0667ZM238.924 68.4917C239.396 68.4917 239.743 68.2917 239.965 67.8917C240.193 67.4917 240.307 66.8694 240.307 66.025C240.307 65.1806 240.193 64.5639 239.965 64.175C239.743 63.7806 239.396 63.5833 238.924 63.5833C238.451 63.5833 238.101 63.7806 237.874 64.175C237.651 64.5694 237.54 65.1861 237.54 66.025C237.54 66.8694 237.651 67.4917 237.874 67.8917C238.101 68.2917 238.451 68.4917 238.924 68.4917ZM243.92 69.0667C243.242 69.0667 242.726 68.8111 242.37 68.3C242.02 67.7833 241.845 67.0278 241.845 66.0333C241.845 65.0389 242.02 64.2861 242.37 63.775C242.72 63.2583 243.237 63 243.92 63C244.604 63 245.12 63.2583 245.47 63.775C245.82 64.2861 245.995 65.0361 245.995 66.025C245.995 67.0194 245.817 67.775 245.462 68.2917C245.112 68.8083 244.598 69.0667 243.92 69.0667ZM243.92 68.4917C244.392 68.4917 244.74 68.2917 244.962 67.8917C245.19 67.4917 245.304 66.8694 245.304 66.025C245.304 65.1806 245.19 64.5639 244.962 64.175C244.74 63.7806 244.392 63.5833 243.92 63.5833C243.448 63.5833 243.098 63.7806 242.87 64.175C242.648 64.5694 242.537 65.1861 242.537 66.025C242.537 66.8694 242.648 67.4917 242.87 67.8917C243.098 68.2917 243.448 68.4917 243.92 68.4917Z" fill="black"/>
<path d="M234.619 180.25V179.733L236.694 177.433C236.972 177.122 237.175 176.842 237.303 176.592C237.431 176.342 237.494 176.092 237.494 175.842C237.494 175.514 237.4 175.264 237.211 175.092C237.022 174.914 236.753 174.825 236.403 174.825C236.114 174.825 235.831 174.883 235.553 175C235.275 175.111 234.997 175.281 234.719 175.508L234.461 174.983C234.694 174.761 234.989 174.583 235.344 174.45C235.7 174.317 236.058 174.25 236.419 174.25C236.781 174.25 237.092 174.314 237.353 174.442C237.619 174.564 237.825 174.742 237.969 174.975C238.114 175.208 238.186 175.486 238.186 175.808C238.186 176.147 238.108 176.475 237.953 176.792C237.803 177.103 237.55 177.453 237.194 177.842L235.194 180.008L235.144 179.675H238.436V180.25H234.619ZM241.424 180.317C240.747 180.317 240.23 180.061 239.874 179.55C239.524 179.033 239.349 178.278 239.349 177.283C239.349 176.289 239.524 175.536 239.874 175.025C240.224 174.508 240.741 174.25 241.424 174.25C242.108 174.25 242.624 174.508 242.974 175.025C243.324 175.536 243.499 176.286 243.499 177.275C243.499 178.269 243.322 179.025 242.966 179.542C242.616 180.058 242.102 180.317 241.424 180.317ZM241.424 179.742C241.897 179.742 242.244 179.542 242.466 179.142C242.694 178.742 242.808 178.119 242.808 177.275C242.808 176.431 242.694 175.814 242.466 175.425C242.244 175.031 241.897 174.833 241.424 174.833C240.952 174.833 240.602 175.031 240.374 175.425C240.152 175.819 240.041 176.436 240.041 177.275C240.041 178.119 240.152 178.742 240.374 179.142C240.602 179.542 240.952 179.742 241.424 179.742ZM246.421 180.317C245.743 180.317 245.227 180.061 244.871 179.55C244.521 179.033 244.346 178.278 244.346 177.283C244.346 176.289 244.521 175.536 244.871 175.025C245.221 174.508 245.738 174.25 246.421 174.25C247.105 174.25 247.621 174.508 247.971 175.025C248.321 175.536 248.496 176.286 248.496 177.275C248.496 178.269 248.318 179.025 247.963 179.542C247.613 180.058 247.099 180.317 246.421 180.317ZM246.421 179.742C246.893 179.742 247.241 179.542 247.463 179.142C247.691 178.742 247.805 178.119 247.805 177.275C247.805 176.431 247.691 175.814 247.463 175.425C247.241 175.031 246.893 174.833 246.421 174.833C245.949 174.833 245.599 175.031 245.371 175.425C245.149 175.819 245.038 176.436 245.038 177.275C245.038 178.119 245.149 178.742 245.371 179.142C245.599 179.542 245.949 179.742 246.421 179.742Z" fill="black"/>
<path d="M182.118 229V228.483L184.193 226.183C184.471 225.872 184.674 225.592 184.802 225.342C184.93 225.092 184.993 224.842 184.993 224.592C184.993 224.264 184.899 224.014 184.71 223.842C184.521 223.664 184.252 223.575 183.902 223.575C183.613 223.575 183.33 223.633 183.052 223.75C182.774 223.861 182.496 224.031 182.218 224.258L181.96 223.733C182.193 223.511 182.488 223.333 182.843 223.2C183.199 223.067 183.557 223 183.918 223C184.28 223 184.591 223.064 184.852 223.192C185.118 223.314 185.324 223.492 185.468 223.725C185.613 223.958 185.685 224.236 185.685 224.558C185.685 224.897 185.607 225.225 185.452 225.542C185.302 225.853 185.049 226.203 184.693 226.592L182.693 228.758L182.643 228.425H185.935V229H182.118ZM189.015 229.058C188.654 229.058 188.299 228.994 187.949 228.867C187.599 228.733 187.304 228.553 187.065 228.325L187.324 227.8C187.596 228.022 187.871 228.192 188.149 228.308C188.432 228.425 188.721 228.483 189.015 228.483C189.432 228.483 189.757 228.367 189.99 228.133C190.229 227.894 190.349 227.572 190.349 227.167C190.349 226.906 190.296 226.678 190.19 226.483C190.085 226.283 189.935 226.128 189.74 226.017C189.551 225.906 189.326 225.85 189.065 225.85C188.782 225.85 188.526 225.908 188.299 226.025C188.076 226.136 187.879 226.308 187.707 226.542H187.232V223.067H190.79V223.633H187.915V226.033L187.699 226.008C187.86 225.775 188.065 225.594 188.315 225.467C188.571 225.339 188.857 225.275 189.174 225.275C189.551 225.275 189.879 225.356 190.157 225.517C190.435 225.672 190.649 225.892 190.799 226.175C190.949 226.458 191.024 226.786 191.024 227.158C191.024 227.531 190.94 227.861 190.774 228.15C190.612 228.433 190.382 228.656 190.082 228.817C189.782 228.978 189.426 229.058 189.015 229.058ZM193.92 229.067C193.242 229.067 192.726 228.811 192.37 228.3C192.02 227.783 191.845 227.028 191.845 226.033C191.845 225.039 192.02 224.286 192.37 223.775C192.72 223.258 193.237 223 193.92 223C194.604 223 195.12 223.258 195.47 223.775C195.82 224.286 195.995 225.036 195.995 226.025C195.995 227.019 195.817 227.775 195.462 228.292C195.112 228.808 194.598 229.067 193.92 229.067ZM193.92 228.492C194.392 228.492 194.74 228.292 194.962 227.892C195.19 227.492 195.304 226.869 195.304 226.025C195.304 225.181 195.19 224.564 194.962 224.175C194.74 223.781 194.392 223.583 193.92 223.583C193.448 223.583 193.098 223.781 192.87 224.175C192.648 224.569 192.537 225.186 192.537 226.025C192.537 226.869 192.648 227.492 192.87 227.892C193.098 228.292 193.448 228.492 193.92 228.492Z" fill="black"/>
<path d="M71.7864 229.058C71.4031 229.058 71.0336 228.994 70.6781 228.867C70.3281 228.739 70.0308 228.558 69.7864 228.325L70.0531 227.8C70.3197 228.028 70.5947 228.2 70.8781 228.317C71.1614 228.428 71.4586 228.483 71.7697 228.483C72.1919 228.483 72.5114 228.389 72.7281 228.2C72.9503 228.011 73.0614 227.733 73.0614 227.367C73.0614 227 72.9475 226.728 72.7197 226.55C72.4919 226.367 72.1503 226.275 71.6947 226.275H71.0114V225.7H71.5614C72.0003 225.7 72.3364 225.603 72.5697 225.408C72.8031 225.214 72.9197 224.936 72.9197 224.575C72.9197 224.253 72.8225 224.006 72.6281 223.833C72.4392 223.661 72.1697 223.575 71.8197 223.575C71.5253 223.575 71.2392 223.633 70.9614 223.75C70.6836 223.861 70.4086 224.031 70.1364 224.258L69.8781 223.733C70.1169 223.506 70.4114 223.328 70.7614 223.2C71.1114 223.067 71.4725 223 71.8447 223C72.2003 223 72.5114 223.064 72.7781 223.192C73.0447 223.314 73.2475 223.489 73.3864 223.717C73.5308 223.944 73.6031 224.214 73.6031 224.525C73.6031 224.892 73.5058 225.206 73.3114 225.467C73.1225 225.722 72.8614 225.897 72.5281 225.992L72.5031 225.908C72.9031 225.992 73.2086 226.161 73.4197 226.417C73.6308 226.672 73.7364 226.997 73.7364 227.392C73.7364 227.908 73.5614 228.317 73.2114 228.617C72.8614 228.911 72.3864 229.058 71.7864 229.058ZM76.9331 229.058C76.572 229.058 76.2165 228.994 75.8665 228.867C75.5165 228.733 75.222 228.553 74.9831 228.325L75.2415 227.8C75.5137 228.022 75.7887 228.192 76.0665 228.308C76.3498 228.425 76.6387 228.483 76.9331 228.483C77.3498 228.483 77.6748 228.367 77.9081 228.133C78.147 227.894 78.2665 227.572 78.2665 227.167C78.2665 226.906 78.2137 226.678 78.1081 226.483C78.0026 226.283 77.8526 226.128 77.6581 226.017C77.4692 225.906 77.2442 225.85 76.9831 225.85C76.6998 225.85 76.4442 225.908 76.2165 226.025C75.9942 226.136 75.797 226.308 75.6248 226.542H75.1498V223.067H78.7081V223.633H75.8331V226.033L75.6165 226.008C75.7776 225.775 75.9831 225.594 76.2331 225.467C76.4887 225.339 76.7748 225.275 77.0915 225.275C77.4692 225.275 77.797 225.356 78.0748 225.517C78.3526 225.672 78.5665 225.892 78.7165 226.175C78.8665 226.458 78.9415 226.786 78.9415 227.158C78.9415 227.531 78.8581 227.861 78.6915 228.15C78.5304 228.433 78.2998 228.656 77.9998 228.817C77.6998 228.978 77.3442 229.058 76.9331 229.058ZM81.8382 229.067C81.1604 229.067 80.6438 228.811 80.2882 228.3C79.9382 227.783 79.7632 227.028 79.7632 226.033C79.7632 225.039 79.9382 224.286 80.2882 223.775C80.6382 223.258 81.1549 223 81.8382 223C82.5215 223 83.0382 223.258 83.3882 223.775C83.7382 224.286 83.9132 225.036 83.9132 226.025C83.9132 227.019 83.7354 227.775 83.3799 228.292C83.0299 228.808 82.516 229.067 81.8382 229.067ZM81.8382 228.492C82.3104 228.492 82.6577 228.292 82.8799 227.892C83.1077 227.492 83.2215 226.869 83.2215 226.025C83.2215 225.181 83.1077 224.564 82.8799 224.175C82.6577 223.781 82.3104 223.583 81.8382 223.583C81.366 223.583 81.016 223.781 80.7882 224.175C80.566 224.569 80.4549 225.186 80.4549 226.025C80.4549 226.869 80.566 227.492 80.7882 227.892C81.016 228.292 81.366 228.492 81.8382 228.492Z" fill="black"/>
<path d="M27.4854 180.25V175.175H27.6937L25.2271 178.733L25.2354 178.392H29.0687V178.958H24.7521V178.442L27.6104 174.317H28.1687V180.25H27.4854ZM31.8405 180.317C31.1627 180.317 30.646 180.061 30.2905 179.55C29.9405 179.033 29.7655 178.278 29.7655 177.283C29.7655 176.289 29.9405 175.536 30.2905 175.025C30.6405 174.508 31.1572 174.25 31.8405 174.25C32.5238 174.25 33.0405 174.508 33.3905 175.025C33.7405 175.536 33.9155 176.286 33.9155 177.275C33.9155 178.269 33.7377 179.025 33.3822 179.542C33.0322 180.058 32.5183 180.317 31.8405 180.317ZM31.8405 179.742C32.3127 179.742 32.6599 179.542 32.8822 179.142C33.1099 178.742 33.2238 178.119 33.2238 177.275C33.2238 176.431 33.1099 175.814 32.8822 175.425C32.6599 175.031 32.3127 174.833 31.8405 174.833C31.3683 174.833 31.0183 175.031 30.7905 175.425C30.5683 175.819 30.4572 176.436 30.4572 177.275C30.4572 178.119 30.5683 178.742 30.7905 179.142C31.0183 179.542 31.3683 179.742 31.8405 179.742ZM36.8372 180.317C36.1595 180.317 35.6428 180.061 35.2872 179.55C34.9372 179.033 34.7622 178.278 34.7622 177.283C34.7622 176.289 34.9372 175.536 35.2872 175.025C35.6372 174.508 36.1539 174.25 36.8372 174.25C37.5206 174.25 38.0372 174.508 38.3872 175.025C38.7372 175.536 38.9122 176.286 38.9122 177.275C38.9122 178.269 38.7345 179.025 38.3789 179.542C38.0289 180.058 37.515 180.317 36.8372 180.317ZM36.8372 179.742C37.3095 179.742 37.6567 179.542 37.8789 179.142C38.1067 178.742 38.2206 178.119 38.2206 177.275C38.2206 176.431 38.1067 175.814 37.8789 175.425C37.6567 175.031 37.3095 174.833 36.8372 174.833C36.365 174.833 36.015 175.031 35.7872 175.425C35.565 175.819 35.4539 176.436 35.4539 177.275C35.4539 178.119 35.565 178.742 35.7872 179.142C36.015 179.542 36.365 179.742 36.8372 179.742Z" fill="black"/>
<path d="M125.118 241.558C124.735 241.558 124.366 241.494 124.01 241.367C123.66 241.239 123.363 241.058 123.118 240.825L123.385 240.3C123.652 240.528 123.927 240.7 124.21 240.817C124.493 240.928 124.791 240.983 125.102 240.983C125.524 240.983 125.843 240.889 126.06 240.7C126.282 240.511 126.393 240.233 126.393 239.867C126.393 239.5 126.28 239.228 126.052 239.05C125.824 238.867 125.482 238.775 125.027 238.775H124.343V238.2H124.893C125.332 238.2 125.668 238.103 125.902 237.908C126.135 237.714 126.252 237.436 126.252 237.075C126.252 236.753 126.155 236.506 125.96 236.333C125.771 236.161 125.502 236.075 125.152 236.075C124.857 236.075 124.571 236.133 124.293 236.25C124.016 236.361 123.741 236.531 123.468 236.758L123.21 236.233C123.449 236.006 123.743 235.828 124.093 235.7C124.443 235.567 124.805 235.5 125.177 235.5C125.532 235.5 125.843 235.564 126.11 235.692C126.377 235.814 126.58 235.989 126.718 236.217C126.863 236.444 126.935 236.714 126.935 237.025C126.935 237.392 126.838 237.706 126.643 237.967C126.455 238.222 126.193 238.397 125.86 238.492L125.835 238.408C126.235 238.492 126.541 238.661 126.752 238.917C126.963 239.172 127.068 239.497 127.068 239.892C127.068 240.408 126.893 240.817 126.543 241.117C126.193 241.411 125.718 241.558 125.118 241.558ZM130.174 241.567C129.496 241.567 128.979 241.311 128.624 240.8C128.274 240.283 128.099 239.528 128.099 238.533C128.099 237.539 128.274 236.786 128.624 236.275C128.974 235.758 129.49 235.5 130.174 235.5C130.857 235.5 131.374 235.758 131.724 236.275C132.074 236.786 132.249 237.536 132.249 238.525C132.249 239.519 132.071 240.275 131.715 240.792C131.365 241.308 130.851 241.567 130.174 241.567ZM130.174 240.992C130.646 240.992 130.993 240.792 131.215 240.392C131.443 239.992 131.557 239.369 131.557 238.525C131.557 237.681 131.443 237.064 131.215 236.675C130.993 236.281 130.646 236.083 130.174 236.083C129.701 236.083 129.351 236.281 129.124 236.675C128.901 237.069 128.79 237.686 128.79 238.525C128.79 239.369 128.901 239.992 129.124 240.392C129.351 240.792 129.701 240.992 130.174 240.992ZM135.17 241.567C134.492 241.567 133.976 241.311 133.62 240.8C133.27 240.283 133.095 239.528 133.095 238.533C133.095 237.539 133.27 236.786 133.62 236.275C133.97 235.758 134.487 235.5 135.17 235.5C135.854 235.5 136.37 235.758 136.72 236.275C137.07 236.786 137.245 237.536 137.245 238.525C137.245 239.519 137.067 240.275 136.712 240.792C136.362 241.308 135.848 241.567 135.17 241.567ZM135.17 240.992C135.642 240.992 135.99 240.792 136.212 240.392C136.44 239.992 136.554 239.369 136.554 238.525C136.554 237.681 136.44 237.064 136.212 236.675C135.99 236.281 135.642 236.083 135.17 236.083C134.698 236.083 134.348 236.281 134.12 236.675C133.898 237.069 133.787 237.686 133.787 238.525C133.787 239.369 133.898 239.992 134.12 240.392C134.348 240.792 134.698 240.992 135.17 240.992Z" fill="black"/>
<path d="M11.2354 125.25V120.175H11.4437L8.97708 123.733L8.98541 123.392H12.8187V123.958H8.50208V123.442L11.3604 119.317H11.9187V125.25H11.2354ZM15.6822 125.308C15.321 125.308 14.9655 125.244 14.6155 125.117C14.2655 124.983 13.971 124.803 13.7322 124.575L13.9905 124.05C14.2627 124.272 14.5377 124.442 14.8155 124.558C15.0988 124.675 15.3877 124.733 15.6822 124.733C16.0988 124.733 16.4238 124.617 16.6572 124.383C16.896 124.144 17.0155 123.822 17.0155 123.417C17.0155 123.156 16.9627 122.928 16.8572 122.733C16.7516 122.533 16.6016 122.378 16.4072 122.267C16.2183 122.156 15.9933 122.1 15.7322 122.1C15.4488 122.1 15.1933 122.158 14.9655 122.275C14.7433 122.386 14.546 122.558 14.3738 122.792H13.8988V119.317H17.4572V119.883H14.5822V122.283L14.3655 122.258C14.5266 122.025 14.7322 121.844 14.9822 121.717C15.2377 121.589 15.5238 121.525 15.8405 121.525C16.2183 121.525 16.546 121.606 16.8238 121.767C17.1016 121.922 17.3155 122.142 17.4655 122.425C17.6155 122.708 17.6905 123.036 17.6905 123.408C17.6905 123.781 17.6072 124.111 17.4405 124.4C17.2794 124.683 17.0488 124.906 16.7488 125.067C16.4488 125.228 16.0933 125.308 15.6822 125.308ZM20.5872 125.317C19.9095 125.317 19.3928 125.061 19.0372 124.55C18.6872 124.033 18.5122 123.278 18.5122 122.283C18.5122 121.289 18.6872 120.536 19.0372 120.025C19.3872 119.508 19.9039 119.25 20.5872 119.25C21.2706 119.25 21.7872 119.508 22.1372 120.025C22.4872 120.536 22.6622 121.286 22.6622 122.275C22.6622 123.269 22.4845 124.025 22.1289 124.542C21.7789 125.058 21.265 125.317 20.5872 125.317ZM20.5872 124.742C21.0595 124.742 21.4067 124.542 21.6289 124.142C21.8567 123.742 21.9706 123.119 21.9706 122.275C21.9706 121.431 21.8567 120.814 21.6289 120.425C21.4067 120.031 21.0595 119.833 20.5872 119.833C20.115 119.833 19.765 120.031 19.5372 120.425C19.315 120.819 19.2039 121.436 19.2039 122.275C19.2039 123.119 19.315 123.742 19.5372 124.142C19.765 124.542 20.115 124.742 20.5872 124.742Z" fill="black"/>
<path d="M24.0194 69.0583C23.6583 69.0583 23.3027 68.9944 22.9527 68.8667C22.6027 68.7333 22.3083 68.5528 22.0694 68.325L22.3277 67.8C22.6 68.0222 22.875 68.1917 23.1527 68.3083C23.4361 68.425 23.725 68.4833 24.0194 68.4833C24.4361 68.4833 24.7611 68.3667 24.9944 68.1333C25.2333 67.8944 25.3527 67.5722 25.3527 67.1667C25.3527 66.9056 25.3 66.6778 25.1944 66.4833C25.0888 66.2833 24.9388 66.1278 24.7444 66.0167C24.5555 65.9056 24.3305 65.85 24.0694 65.85C23.7861 65.85 23.5305 65.9083 23.3027 66.025C23.0805 66.1361 22.8833 66.3083 22.7111 66.5417H22.2361V63.0667H25.7944V63.6333H22.9194V66.0333L22.7027 66.0083C22.8638 65.775 23.0694 65.5944 23.3194 65.4667C23.575 65.3389 23.8611 65.275 24.1777 65.275C24.5555 65.275 24.8833 65.3556 25.1611 65.5167C25.4388 65.6722 25.6527 65.8917 25.8027 66.175C25.9527 66.4583 26.0277 66.7861 26.0277 67.1583C26.0277 67.5306 25.9444 67.8611 25.7777 68.15C25.6166 68.4333 25.3861 68.6556 25.0861 68.8167C24.7861 68.9778 24.4305 69.0583 24.0194 69.0583ZM28.9245 69.0667C28.2467 69.0667 27.73 68.8111 27.3745 68.3C27.0245 67.7833 26.8495 67.0278 26.8495 66.0333C26.8495 65.0389 27.0245 64.2861 27.3745 63.775C27.7245 63.2583 28.2411 63 28.9245 63C29.6078 63 30.1245 63.2583 30.4745 63.775C30.8245 64.2861 30.9995 65.0361 30.9995 66.025C30.9995 67.0194 30.8217 67.775 30.4661 68.2917C30.1161 68.8083 29.6023 69.0667 28.9245 69.0667ZM28.9245 68.4917C29.3967 68.4917 29.7439 68.2917 29.9661 67.8917C30.1939 67.4917 30.3078 66.8694 30.3078 66.025C30.3078 65.1806 30.1939 64.5639 29.9661 64.175C29.7439 63.7806 29.3967 63.5833 28.9245 63.5833C28.4523 63.5833 28.1023 63.7806 27.8745 64.175C27.6523 64.5694 27.5411 65.1861 27.5411 66.025C27.5411 66.8694 27.6523 67.4917 27.8745 67.8917C28.1023 68.2917 28.4523 68.4917 28.9245 68.4917ZM33.9212 69.0667C33.2434 69.0667 32.7268 68.8111 32.3712 68.3C32.0212 67.7833 31.8462 67.0278 31.8462 66.0333C31.8462 65.0389 32.0212 64.2861 32.3712 63.775C32.7212 63.2583 33.2379 63 33.9212 63C34.6046 63 35.1212 63.2583 35.4712 63.775C35.8212 64.2861 35.9962 65.0361 35.9962 66.025C35.9962 67.0194 35.8184 67.775 35.4629 68.2917C35.1129 68.8083 34.599 69.0667 33.9212 69.0667ZM33.9212 68.4917C34.3934 68.4917 34.7407 68.2917 34.9629 67.8917C35.1907 67.4917 35.3046 66.8694 35.3046 66.025C35.3046 65.1806 35.1907 64.5639 34.9629 64.175C34.7407 63.7806 34.3934 63.5833 33.9212 63.5833C33.449 63.5833 33.099 63.7806 32.8712 64.175C32.649 64.5694 32.5379 65.1861 32.5379 66.025C32.5379 66.8694 32.649 67.4917 32.8712 67.8917C33.099 68.2917 33.449 68.4917 33.9212 68.4917Z" fill="black"/>
<path d="M69.0184 25.3083C68.6573 25.3083 68.3018 25.2444 67.9518 25.1167C67.6018 24.9833 67.3073 24.8028 67.0684 24.575L67.3268 24.05C67.599 24.2722 67.874 24.4417 68.1518 24.5583C68.4351 24.675 68.724 24.7333 69.0184 24.7333C69.4351 24.7333 69.7601 24.6167 69.9934 24.3833C70.2323 24.1444 70.3518 23.8222 70.3518 23.4167C70.3518 23.1556 70.299 22.9278 70.1934 22.7333C70.0879 22.5333 69.9379 22.3778 69.7434 22.2667C69.5545 22.1556 69.3295 22.1 69.0684 22.1C68.7851 22.1 68.5295 22.1583 68.3018 22.275C68.0795 22.3861 67.8823 22.5583 67.7101 22.7917H67.2351V19.3167H70.7934V19.8833H67.9184V22.2833L67.7018 22.2583C67.8629 22.025 68.0684 21.8444 68.3184 21.7167C68.574 21.5889 68.8601 21.525 69.1768 21.525C69.5545 21.525 69.8823 21.6056 70.1601 21.7667C70.4379 21.9222 70.6518 22.1417 70.8018 22.425C70.9518 22.7083 71.0268 23.0361 71.0268 23.4083C71.0268 23.7806 70.9434 24.1111 70.7768 24.4C70.6156 24.6833 70.3851 24.9056 70.0851 25.0667C69.7851 25.2278 69.4295 25.3083 69.0184 25.3083ZM74.0152 25.3083C73.6541 25.3083 73.2985 25.2444 72.9485 25.1167C72.5985 24.9833 72.3041 24.8028 72.0652 24.575L72.3235 24.05C72.5957 24.2722 72.8707 24.4417 73.1485 24.5583C73.4318 24.675 73.7207 24.7333 74.0152 24.7333C74.4318 24.7333 74.7568 24.6167 74.9902 24.3833C75.2291 24.1444 75.3485 23.8222 75.3485 23.4167C75.3485 23.1556 75.2957 22.9278 75.1902 22.7333C75.0846 22.5333 74.9346 22.3778 74.7402 22.2667C74.5513 22.1556 74.3263 22.1 74.0652 22.1C73.7818 22.1 73.5263 22.1583 73.2985 22.275C73.0763 22.3861 72.8791 22.5583 72.7068 22.7917H72.2318V19.3167H75.7902V19.8833H72.9152V22.2833L72.6985 22.2583C72.8596 22.025 73.0652 21.8444 73.3152 21.7167C73.5707 21.5889 73.8568 21.525 74.1735 21.525C74.5513 21.525 74.8791 21.6056 75.1568 21.7667C75.4346 21.9222 75.6485 22.1417 75.7985 22.425C75.9485 22.7083 76.0235 23.0361 76.0235 23.4083C76.0235 23.7806 75.9402 24.1111 75.7735 24.4C75.6124 24.6833 75.3818 24.9056 75.0818 25.0667C74.7818 25.2278 74.4263 25.3083 74.0152 25.3083ZM78.9202 25.3167C78.2425 25.3167 77.7258 25.0611 77.3702 24.55C77.0202 24.0333 76.8452 23.2778 76.8452 22.2833C76.8452 21.2889 77.0202 20.5361 77.3702 20.025C77.7202 19.5083 78.2369 19.25 78.9202 19.25C79.6036 19.25 80.1202 19.5083 80.4702 20.025C80.8202 20.5361 80.9952 21.2861 80.9952 22.275C80.9952 23.2694 80.8175 24.025 80.4619 24.5417C80.1119 25.0583 79.598 25.3167 78.9202 25.3167ZM78.9202 24.7417C79.3925 24.7417 79.7397 24.5417 79.9619 24.1417C80.1897 23.7417 80.3036 23.1194 80.3036 22.275C80.3036 21.4306 80.1897 20.8139 79.9619 20.425C79.7397 20.0306 79.3925 19.8333 78.9202 19.8333C78.448 19.8333 78.098 20.0306 77.8702 20.425C77.648 20.8194 77.5369 21.4361 77.5369 22.275C77.5369 23.1194 77.648 23.7417 77.8702 24.1417C78.098 24.5417 78.448 24.7417 78.9202 24.7417Z" fill="black"/>
<path d="M248.802 124.942V119.717L249.193 119.917L247.585 120.942V120.283L249.102 119.317H249.493V124.942H248.802ZM247.493 125.25V124.675H250.802V125.25H247.493ZM254.015 125.308C253.654 125.308 253.299 125.244 252.949 125.117C252.599 124.983 252.304 124.803 252.065 124.575L252.324 124.05C252.596 124.272 252.871 124.442 253.149 124.558C253.432 124.675 253.721 124.733 254.015 124.733C254.432 124.733 254.757 124.617 254.99 124.383C255.229 124.144 255.349 123.822 255.349 123.417C255.349 123.156 255.296 122.928 255.19 122.733C255.085 122.533 254.935 122.378 254.74 122.267C254.551 122.156 254.326 122.1 254.065 122.1C253.782 122.1 253.526 122.158 253.299 122.275C253.076 122.386 252.879 122.558 252.707 122.792H252.232V119.317H255.79V119.883H252.915V122.283L252.699 122.258C252.86 122.025 253.065 121.844 253.315 121.717C253.571 121.589 253.857 121.525 254.174 121.525C254.551 121.525 254.879 121.606 255.157 121.767C255.435 121.922 255.649 122.142 255.799 122.425C255.949 122.708 256.024 123.036 256.024 123.408C256.024 123.781 255.94 124.111 255.774 124.4C255.612 124.683 255.382 124.906 255.082 125.067C254.782 125.228 254.426 125.308 254.015 125.308ZM258.92 125.317C258.242 125.317 257.726 125.061 257.37 124.55C257.02 124.033 256.845 123.278 256.845 122.283C256.845 121.289 257.02 120.536 257.37 120.025C257.72 119.508 258.237 119.25 258.92 119.25C259.604 119.25 260.12 119.508 260.47 120.025C260.82 120.536 260.995 121.286 260.995 122.275C260.995 123.269 260.817 124.025 260.462 124.542C260.112 125.058 259.598 125.317 258.92 125.317ZM258.92 124.742C259.392 124.742 259.74 124.542 259.962 124.142C260.19 123.742 260.304 123.119 260.304 122.275C260.304 121.431 260.19 120.814 259.962 120.425C259.74 120.031 259.392 119.833 258.92 119.833C258.448 119.833 258.098 120.031 257.87 120.425C257.648 120.819 257.537 121.436 257.537 122.275C257.537 123.119 257.648 123.742 257.87 124.142C258.098 124.542 258.448 124.742 258.92 124.742Z" fill="black"/>
<path d="M132.67 9.06667C131.992 9.06667 131.476 8.81111 131.12 8.3C130.77 7.78333 130.595 7.02778 130.595 6.03333C130.595 5.03889 130.77 4.28611 131.12 3.775C131.47 3.25833 131.987 3 132.67 3C133.354 3 133.87 3.25833 134.22 3.775C134.57 4.28611 134.745 5.03611 134.745 6.025C134.745 7.01944 134.567 7.775 134.212 8.29167C133.862 8.80833 133.348 9.06667 132.67 9.06667ZM132.67 8.49167C133.142 8.49167 133.49 8.29167 133.712 7.89167C133.94 7.49167 134.054 6.86944 134.054 6.025C134.054 5.18056 133.94 4.56389 133.712 4.175C133.49 3.78056 133.142 3.58333 132.67 3.58333C132.198 3.58333 131.848 3.78056 131.62 4.175C131.398 4.56944 131.287 5.18611 131.287 6.025C131.287 6.86944 131.398 7.49167 131.62 7.89167C131.848 8.29167 132.198 8.49167 132.67 8.49167Z" fill="black"/>
<path d="M134.541 23.047C157.427 23.363 179.513 31.5203 197.109 46.157C214.706 60.7938 226.749 81.024 231.228 103.47C235.706 125.916 232.35 149.219 221.718 169.488C211.086 189.757 193.823 205.766 172.811 214.841C151.798 223.916 128.309 225.509 106.264 219.352C84.2191 213.196 64.9532 199.664 51.6831 181.015C38.4131 162.366 31.942 139.729 33.3504 116.884C34.7587 94.0393 43.9613 72.3689 59.4215 55.4912" stroke="#076C9F" stroke-width="6.66667" stroke-linecap="round" stroke-linejoin="round"/>
<path d="M134.28 38.8339C151.47 39.0713 168.175 44.5668 182.148 54.5814C196.121 64.596 206.693 78.6494 212.441 94.8515C218.189 111.054 218.837 128.627 214.3 145.209C209.762 161.791 200.255 176.585 187.058 187.603C173.861 198.62 157.607 205.333 140.481 206.837C123.356 208.341 106.18 204.564 91.2648 196.015C76.3495 187.467 64.4097 174.556 57.0512 159.019C49.6927 143.482 47.2684 126.064 50.1044 109.108" stroke="#0088CC" stroke-width="6.66667" stroke-linecap="round" stroke-linejoin="round"/>
<path d="M134.018 54.6216C145.905 54.7858 157.544 58.0481 167.784 64.0865C178.024 70.1249 186.512 78.7304 192.409 89.0529C198.306 99.3754 201.408 111.058 201.408 122.946C201.409 134.834 198.308 146.516 192.412 156.839C186.516 167.162 178.029 175.768 167.789 181.808C157.549 187.847 145.911 191.11 134.024 191.275C122.137 191.44 110.412 188.501 100.009 182.749C89.6052 176.996 80.8824 168.629 74.702 158.474" stroke="#0197E2" stroke-width="6.66667" stroke-linecap="round" stroke-linejoin="round"/>
<path d="M67.6784 130V116.421H72.2366C73.6861 116.421 74.9195 116.688 75.9366 117.222C76.9538 117.743 77.7294 118.512 78.2635 119.529C78.7975 120.534 79.0645 121.754 79.0645 123.191C79.0645 124.641 78.7911 125.874 78.2444 126.891C77.7104 127.896 76.9348 128.665 75.9176 129.199C74.9004 129.733 73.6734 130 72.2366 130H67.6784ZM69.2423 128.665H72.1413C73.8959 128.665 75.2119 128.207 76.0892 127.292C76.9793 126.376 77.4243 125.009 77.4243 123.191C77.4243 119.567 75.6633 117.756 72.1413 117.756H69.2423V128.665ZM81.908 130V116.421H90.4905V117.717H83.4529V122.447H90.1091V123.763H83.4529V128.703H90.4905V130H81.908ZM93.1204 130V116.421H94.4173L99.9292 128.951H99.2045L104.659 116.421H105.956V130H104.507V118.48L105.098 118.557L100.101 130H98.9947L93.9215 118.557L94.5508 118.48L94.5699 130H93.1204ZM114.989 130.153C113.718 130.153 112.618 129.873 111.69 129.313C110.774 128.754 110.062 127.953 109.554 126.91C109.058 125.868 108.81 124.634 108.81 123.21C108.81 121.774 109.058 120.54 109.554 119.51C110.05 118.468 110.755 117.667 111.671 117.107C112.599 116.548 113.705 116.268 114.989 116.268C116.261 116.268 117.361 116.548 118.289 117.107C119.217 117.667 119.929 118.468 120.425 119.51C120.921 120.54 121.169 121.767 121.169 123.191C121.169 124.628 120.914 125.868 120.406 126.91C119.91 127.953 119.198 128.754 118.27 129.313C117.354 129.873 116.261 130.153 114.989 130.153ZM114.989 128.818C116.426 128.818 117.545 128.334 118.346 127.368C119.147 126.389 119.548 124.997 119.548 123.191C119.548 121.386 119.147 120.006 118.346 119.053C117.545 118.086 116.426 117.603 114.989 117.603C113.553 117.603 112.427 118.086 111.614 119.053C110.812 120.019 110.412 121.398 110.412 123.191C110.412 124.984 110.812 126.37 111.614 127.349C112.427 128.328 113.553 128.818 114.989 128.818ZM135.019 130.153C133.659 130.153 132.489 129.879 131.51 129.332C130.543 128.773 129.8 127.978 129.278 126.948C128.77 125.906 128.515 124.653 128.515 123.191C128.515 121.742 128.77 120.502 129.278 119.472C129.8 118.43 130.537 117.635 131.491 117.088C132.457 116.541 133.595 116.268 134.905 116.268C135.845 116.268 136.71 116.414 137.498 116.707C138.299 116.986 138.992 117.412 139.577 117.984L138.967 119.186C138.306 118.627 137.657 118.226 137.022 117.984C136.386 117.73 135.68 117.603 134.905 117.603C133.366 117.603 132.184 118.086 131.357 119.053C130.543 120.006 130.137 121.386 130.137 123.191C130.137 125.035 130.556 126.44 131.395 127.406C132.234 128.36 133.455 128.837 135.057 128.837C135.718 128.837 136.36 128.779 136.983 128.665C137.619 128.538 138.191 128.373 138.7 128.169L138.319 128.97V124.164H134.943V122.924H139.749V129.218C139.393 129.409 138.954 129.574 138.433 129.714C137.924 129.854 137.371 129.962 136.774 130.038C136.189 130.114 135.604 130.153 135.019 130.153ZM142.962 130V116.421H148.359C149.821 116.421 150.94 116.745 151.716 117.393C152.504 118.042 152.898 118.976 152.898 120.197C152.898 121.367 152.498 122.288 151.697 122.962C150.908 123.624 149.796 123.954 148.359 123.954L149.77 123.687C150.266 123.687 150.692 123.827 151.048 124.107C151.404 124.374 151.69 124.806 151.906 125.404L153.623 130H151.964L150.285 125.48C150.069 124.908 149.77 124.533 149.389 124.355C149.02 124.164 148.524 124.069 147.901 124.069H144.506V130H142.962ZM144.506 122.772H148.225C149.281 122.772 150.063 122.555 150.571 122.123C151.093 121.691 151.353 121.055 151.353 120.216C151.353 119.377 151.099 118.754 150.59 118.347C150.082 117.927 149.294 117.717 148.225 117.717H144.506V122.772ZM156.36 130H154.739L160.708 116.421H162.081L168.051 130H166.449L161.128 117.565H161.7L156.36 130ZM157.275 126.51L157.828 125.213H164.961L165.514 126.51H157.275ZM170.08 130V116.421H175.496C176.895 116.421 177.982 116.758 178.758 117.431C179.546 118.105 179.94 119.033 179.94 120.216C179.94 121.386 179.546 122.314 178.758 123C177.969 123.687 176.882 124.03 175.496 124.03H171.644V130H170.08ZM171.644 122.733H175.363C176.367 122.733 177.124 122.517 177.633 122.085C178.141 121.64 178.395 121.017 178.395 120.216C178.395 119.415 178.141 118.798 177.633 118.366C177.124 117.934 176.367 117.717 175.363 117.717H171.644V122.733ZM192.192 130V116.421H193.756V130H192.192ZM182.503 130V116.421H184.048V130H182.503ZM183.228 123.763V122.447H193.069V123.763H183.228Z" fill="#BDBDBF"/>
</svg>
