<svg width="384" height="267" viewBox="0 0 384 267" fill="none" xmlns="http://www.w3.org/2000/svg">
<path d="M17.8434 10.023V5.01723L18.2187 5.20883L16.6778 6.19083V5.56012L18.1309 4.63401H18.5061V10.023H17.8434ZM16.59 10.3184V9.76754H19.7595V10.3184H16.59ZM21.2015 11.2365L20.8981 11.005C21.0418 10.8507 21.1376 10.7096 21.1855 10.5819C21.2334 10.4541 21.2574 10.3237 21.2574 10.1907L21.449 10.3184H20.8662V9.4961H21.6885V10.0789C21.6885 10.2918 21.6512 10.4914 21.5767 10.6777C21.5075 10.8693 21.3824 11.0556 21.2015 11.2365ZM24.5981 10.3823C23.9488 10.3823 23.4538 10.1375 23.1131 9.64779C22.7778 9.1528 22.6102 8.42894 22.6102 7.47621C22.6102 6.52349 22.7778 5.80229 23.1131 5.31262C23.4485 4.81763 23.9435 4.57014 24.5981 4.57014C25.2528 4.57014 25.7478 4.81763 26.0831 5.31262C26.4184 5.80229 26.5861 6.52083 26.5861 7.46823C26.5861 8.42095 26.4157 9.14481 26.0751 9.6398C25.7398 10.1348 25.2475 10.3823 24.5981 10.3823ZM24.5981 9.83141C25.0505 9.83141 25.3832 9.6398 25.5961 9.25658C25.8143 8.87337 25.9234 8.27725 25.9234 7.46823C25.9234 6.65921 25.8143 6.06842 25.5961 5.69584C25.3832 5.31795 25.0505 5.129 24.5981 5.129C24.1457 5.129 23.8104 5.31795 23.5922 5.69584C23.3793 6.07374 23.2728 6.66453 23.2728 7.46823C23.2728 8.27725 23.3793 8.87337 23.5922 9.25658C23.8104 9.6398 24.1457 9.83141 24.5981 9.83141ZM29.3852 10.3823C28.7359 10.3823 28.2409 10.1375 27.9003 9.64779C27.5649 9.1528 27.3973 8.42894 27.3973 7.47621C27.3973 6.52349 27.5649 5.80229 27.9003 5.31262C28.2356 4.81763 28.7306 4.57014 29.3852 4.57014C30.0399 4.57014 30.5349 4.81763 30.8702 5.31262C31.2055 5.80229 31.3732 6.52083 31.3732 7.46823C31.3732 8.42095 31.2029 9.14481 30.8622 9.6398C30.5269 10.1348 30.0346 10.3823 29.3852 10.3823ZM29.3852 9.83141C29.8376 9.83141 30.1703 9.6398 30.3832 9.25658C30.6014 8.87337 30.7105 8.27725 30.7105 7.46823C30.7105 6.65921 30.6014 6.06842 30.3832 5.69584C30.1703 5.31795 29.8376 5.129 29.3852 5.129C28.9328 5.129 28.5975 5.31795 28.3793 5.69584C28.1664 6.07374 28.0599 6.66453 28.0599 7.46823C28.0599 8.27725 28.1664 8.87337 28.3793 9.25658C28.5975 9.6398 28.9328 9.83141 29.3852 9.83141ZM34.1724 10.3823C33.523 10.3823 33.028 10.1375 32.6874 9.64779C32.3521 9.1528 32.1844 8.42894 32.1844 7.47621C32.1844 6.52349 32.3521 5.80229 32.6874 5.31262C33.0227 4.81763 33.5177 4.57014 34.1724 4.57014C34.827 4.57014 35.322 4.81763 35.6573 5.31262C35.9926 5.80229 36.1603 6.52083 36.1603 7.46823C36.1603 8.42095 35.99 9.14481 35.6493 9.6398C35.314 10.1348 34.8217 10.3823 34.1724 10.3823ZM34.1724 9.83141C34.6248 9.83141 34.9574 9.6398 35.1703 9.25658C35.3885 8.87337 35.4977 8.27725 35.4977 7.46823C35.4977 6.65921 35.3885 6.06842 35.1703 5.69584C34.9574 5.31795 34.6248 5.129 34.1724 5.129C33.7199 5.129 33.3846 5.31795 33.1664 5.69584C32.9535 6.07374 32.8471 6.66453 32.8471 7.46823C32.8471 8.27725 32.9535 8.87337 33.1664 9.25658C33.3846 9.6398 33.7199 9.83141 34.1724 9.83141Z" fill="#728A96"/>
<line x1="42.2194" y1="7.31842" x2="372.959" y2="7.31842" stroke="#F7F9FB" stroke-width="0.665311" stroke-linecap="round"/>
<path d="M24.5981 56.6134C24.183 56.6134 23.8237 56.5522 23.5203 56.4298C23.2169 56.302 22.9801 56.1211 22.8098 55.8869C22.6448 55.6527 22.5623 55.3733 22.5623 55.0486C22.5623 54.6547 22.6953 54.3274 22.9615 54.0666C23.2276 53.8058 23.5842 53.6434 24.0313 53.5796L23.9914 53.6993C23.5762 53.6195 23.2542 53.4572 23.0253 53.2123C22.8018 52.9675 22.69 52.6694 22.69 52.3182C22.69 52.0094 22.7698 51.7433 22.9295 51.5198C23.0945 51.2909 23.3181 51.1153 23.6002 50.9929C23.8876 50.8704 24.2202 50.8092 24.5981 50.8092C24.976 50.8092 25.306 50.8704 25.5881 50.9929C25.8755 51.1153 26.0991 51.2909 26.2587 51.5198C26.4237 51.7433 26.5062 52.0094 26.5062 52.3182C26.5062 52.6694 26.3918 52.9702 26.1629 53.2203C25.9394 53.4651 25.6227 53.6248 25.2129 53.6993L25.165 53.5796C25.628 53.6434 25.9873 53.8084 26.2428 54.0746C26.5036 54.3354 26.634 54.66 26.634 55.0486C26.634 55.3733 26.5488 55.6527 26.3785 55.8869C26.2135 56.1211 25.9793 56.302 25.6759 56.4298C25.3725 56.5522 25.0133 56.6134 24.5981 56.6134ZM24.5981 56.0705C25.0452 56.0705 25.3885 55.98 25.628 55.7991C25.8675 55.6181 25.9873 55.3546 25.9873 55.0087C25.9873 54.684 25.8569 54.4312 25.5961 54.2502C25.3353 54.0639 25.0026 53.9495 24.5981 53.9069C24.1936 53.9495 23.861 54.0639 23.6002 54.2502C23.3394 54.4312 23.2089 54.684 23.2089 55.0087C23.2089 55.3546 23.3287 55.6181 23.5682 55.7991C23.8077 55.98 24.151 56.0705 24.5981 56.0705ZM24.5981 53.4518C24.9707 53.4093 25.2714 53.2948 25.5003 53.1085C25.7345 52.9223 25.8516 52.6748 25.8516 52.3661C25.8516 52.0467 25.7398 51.7992 25.5162 51.6236C25.298 51.4426 24.992 51.3521 24.5981 51.3521C24.2043 51.3521 23.8956 51.4426 23.672 51.6236C23.4538 51.7992 23.3447 52.0467 23.3447 52.3661C23.3447 52.6748 23.4591 52.9223 23.688 53.1085C23.9222 53.2948 24.2255 53.4093 24.5981 53.4518ZM29.3852 56.6214C28.7359 56.6214 28.2409 56.3765 27.9003 55.8869C27.5649 55.3919 27.3973 54.668 27.3973 53.7153C27.3973 52.7626 27.5649 52.0414 27.9003 51.5517C28.2356 51.0567 28.7306 50.8092 29.3852 50.8092C30.0399 50.8092 30.5349 51.0567 30.8702 51.5517C31.2055 52.0414 31.3732 52.7599 31.3732 53.7073C31.3732 54.66 31.2029 55.3839 30.8622 55.8789C30.5269 56.3739 30.0346 56.6214 29.3852 56.6214ZM29.3852 56.0705C29.8376 56.0705 30.1703 55.8789 30.3832 55.4957C30.6014 55.1125 30.7105 54.5163 30.7105 53.7073C30.7105 52.8983 30.6014 52.3075 30.3832 51.9349C30.1703 51.557 29.8376 51.3681 29.3852 51.3681C28.9328 51.3681 28.5975 51.557 28.3793 51.9349C28.1664 52.3128 28.0599 52.9036 28.0599 53.7073C28.0599 54.5163 28.1664 55.1125 28.3793 55.4957C28.5975 55.8789 28.9328 56.0705 29.3852 56.0705ZM34.1724 56.6214C33.523 56.6214 33.028 56.3765 32.6874 55.8869C32.3521 55.3919 32.1844 54.668 32.1844 53.7153C32.1844 52.7626 32.3521 52.0414 32.6874 51.5517C33.0227 51.0567 33.5177 50.8092 34.1724 50.8092C34.827 50.8092 35.322 51.0567 35.6573 51.5517C35.9926 52.0414 36.1603 52.7599 36.1603 53.7073C36.1603 54.66 35.99 55.3839 35.6493 55.8789C35.314 56.3739 34.8217 56.6214 34.1724 56.6214ZM34.1724 56.0705C34.6248 56.0705 34.9574 55.8789 35.1703 55.4957C35.3885 55.1125 35.4977 54.5163 35.4977 53.7073C35.4977 52.8983 35.3885 52.3075 35.1703 51.9349C34.9574 51.557 34.6248 51.3681 34.1724 51.3681C33.7199 51.3681 33.3846 51.557 33.1664 51.9349C32.9535 52.3128 32.8471 52.9036 32.8471 53.7073C32.8471 54.5163 32.9535 55.1125 33.1664 55.4957C33.3846 55.8789 33.7199 56.0705 34.1724 56.0705Z" fill="#728A96"/>
<line x1="42.2194" y1="53.5575" x2="372.959" y2="53.5575" stroke="#F7F9FB" stroke-width="0.665311" stroke-linecap="round"/>
<path d="M24.7817 101.197C24.0951 101.197 23.5656 100.96 23.193 100.487C22.8204 100.008 22.6341 99.3237 22.6341 98.4348C22.6341 97.7908 22.7193 97.2426 22.8896 96.7902C23.0652 96.3324 23.3154 95.9838 23.6401 95.7443C23.9701 95.5048 24.3639 95.385 24.8217 95.385C25.1517 95.385 25.471 95.4462 25.7797 95.5687C26.0884 95.6858 26.3625 95.8587 26.602 96.0876L26.3545 96.5906C26.0884 96.3617 25.8303 96.1967 25.5801 96.0956C25.3353 95.9891 25.0878 95.9359 24.8376 95.9359C24.348 95.9359 23.9674 96.1541 23.696 96.5906C23.4245 97.0217 23.2888 97.6338 23.2888 98.4268V99.1134L23.193 98.8979C23.2356 98.6264 23.334 98.3922 23.4884 98.1953C23.6427 97.9931 23.8343 97.8387 24.0632 97.7323C24.2974 97.6205 24.5555 97.5646 24.8376 97.5646C25.1889 97.5646 25.4976 97.6418 25.7637 97.7961C26.0299 97.9452 26.2374 98.1554 26.3865 98.4268C26.5355 98.6983 26.61 99.0123 26.61 99.3689C26.61 99.7202 26.5302 100.034 26.3705 100.311C26.2162 100.588 26.0006 100.806 25.7238 100.966C25.4524 101.12 25.1384 101.197 24.7817 101.197ZM24.7498 100.646C25.1117 100.646 25.4045 100.532 25.628 100.303C25.8516 100.069 25.9633 99.7601 25.9633 99.3769C25.9633 98.999 25.8516 98.6956 25.628 98.4668C25.4045 98.2326 25.1091 98.1155 24.7418 98.1155C24.497 98.1155 24.2788 98.1714 24.0872 98.2831C23.8956 98.3896 23.7465 98.5386 23.6401 98.7302C23.5336 98.9165 23.4804 99.1321 23.4804 99.3769C23.4804 99.6324 23.5336 99.8559 23.6401 100.048C23.7465 100.234 23.8956 100.38 24.0872 100.487C24.2788 100.593 24.4997 100.646 24.7498 100.646ZM29.3852 101.197C28.7359 101.197 28.2409 100.952 27.9003 100.463C27.5649 99.9677 27.3973 99.2438 27.3973 98.2911C27.3973 97.3384 27.5649 96.6172 27.9003 96.1275C28.2356 95.6325 28.7306 95.385 29.3852 95.385C30.0399 95.385 30.5349 95.6325 30.8702 96.1275C31.2055 96.6172 31.3732 97.3357 31.3732 98.2831C31.3732 99.2359 31.2029 99.9597 30.8622 100.455C30.5269 100.95 30.0346 101.197 29.3852 101.197ZM29.3852 100.646C29.8376 100.646 30.1703 100.455 30.3832 100.071C30.6014 99.6883 30.7105 99.0922 30.7105 98.2831C30.7105 97.4741 30.6014 96.8833 30.3832 96.5107C30.1703 96.1328 29.8376 95.9439 29.3852 95.9439C28.9328 95.9439 28.5975 96.1328 28.3793 96.5107C28.1664 96.8886 28.0599 97.4794 28.0599 98.2831C28.0599 99.0922 28.1664 99.6883 28.3793 100.071C28.5975 100.455 28.9328 100.646 29.3852 100.646ZM34.1724 101.197C33.523 101.197 33.028 100.952 32.6874 100.463C32.3521 99.9677 32.1844 99.2438 32.1844 98.2911C32.1844 97.3384 32.3521 96.6172 32.6874 96.1275C33.0227 95.6325 33.5177 95.385 34.1724 95.385C34.827 95.385 35.322 95.6325 35.6573 96.1275C35.9926 96.6172 36.1603 97.3357 36.1603 98.2831C36.1603 99.2359 35.99 99.9597 35.6493 100.455C35.314 100.95 34.8217 101.197 34.1724 101.197ZM34.1724 100.646C34.6248 100.646 34.9574 100.455 35.1703 100.071C35.3885 99.6883 35.4977 99.0922 35.4977 98.2831C35.4977 97.4741 35.3885 96.8833 35.1703 96.5107C34.9574 96.1328 34.6248 95.9439 34.1724 95.9439C33.7199 95.9439 33.3846 96.1328 33.1664 96.5107C32.9535 96.8886 32.8471 97.4794 32.8471 98.2831C32.8471 99.0922 32.9535 99.6883 33.1664 100.071C33.3846 100.455 33.7199 100.646 34.1724 100.646Z" fill="#728A96"/>
<line x1="42.2194" y1="98.1333" x2="372.959" y2="98.1333" stroke="#F7F9FB" stroke-width="0.665311" stroke-linecap="round"/>
<path d="M25.2129 145.709V140.847H25.4125L23.0493 144.256L23.0573 143.929H26.7298V144.472H22.5942V143.977L25.3326 140.025H25.8675V145.709H25.2129ZM29.3852 145.773C28.7359 145.773 28.2409 145.528 27.9003 145.039C27.5649 144.544 27.3973 143.82 27.3973 142.867C27.3973 141.914 27.5649 141.193 27.9003 140.703C28.2356 140.208 28.7306 139.961 29.3852 139.961C30.0399 139.961 30.5349 140.208 30.8702 140.703C31.2055 141.193 31.3732 141.912 31.3732 142.859C31.3732 143.812 31.2029 144.536 30.8622 145.031C30.5269 145.526 30.0346 145.773 29.3852 145.773ZM29.3852 145.222C29.8376 145.222 30.1703 145.031 30.3832 144.647C30.6014 144.264 30.7105 143.668 30.7105 142.859C30.7105 142.05 30.6014 141.459 30.3832 141.087C30.1703 140.709 29.8376 140.52 29.3852 140.52C28.9328 140.52 28.5975 140.709 28.3793 141.087C28.1664 141.464 28.0599 142.055 28.0599 142.859C28.0599 143.668 28.1664 144.264 28.3793 144.647C28.5975 145.031 28.9328 145.222 29.3852 145.222ZM34.1724 145.773C33.523 145.773 33.028 145.528 32.6874 145.039C32.3521 144.544 32.1844 143.82 32.1844 142.867C32.1844 141.914 32.3521 141.193 32.6874 140.703C33.0227 140.208 33.5177 139.961 34.1724 139.961C34.827 139.961 35.322 140.208 35.6573 140.703C35.9926 141.193 36.1603 141.912 36.1603 142.859C36.1603 143.812 35.99 144.536 35.6493 145.031C35.314 145.526 34.8217 145.773 34.1724 145.773ZM34.1724 145.222C34.6248 145.222 34.9574 145.031 35.1703 144.647C35.3885 144.264 35.4977 143.668 35.4977 142.859C35.4977 142.05 35.3885 141.459 35.1703 141.087C34.9574 140.709 34.6248 140.52 34.1724 140.52C33.7199 140.52 33.3846 140.709 33.1664 141.087C32.9535 141.464 32.8471 142.055 32.8471 142.859C32.8471 143.668 32.9535 144.264 33.1664 144.647C33.3846 145.031 33.7199 145.222 34.1724 145.222Z" fill="#728A96"/>
<line x1="42.2194" y1="142.709" x2="372.959" y2="142.709" stroke="#F7F9FB" stroke-width="0.665311" stroke-linecap="round"/>
<path d="M22.8656 190.285V189.79L24.8536 187.586C25.1197 187.288 25.314 187.02 25.4364 186.78C25.5588 186.541 25.62 186.301 25.62 186.062C25.62 185.748 25.5296 185.508 25.3486 185.343C25.1676 185.173 24.9095 185.088 24.5742 185.088C24.2974 185.088 24.026 185.143 23.7598 185.255C23.4937 185.362 23.2276 185.524 22.9615 185.742L22.714 185.239C22.9375 185.026 23.2196 184.856 23.5602 184.728C23.9009 184.601 24.2442 184.537 24.5901 184.537C24.9361 184.537 25.2342 184.598 25.4843 184.72C25.7398 184.837 25.9367 185.008 26.0751 185.231C26.2135 185.455 26.2827 185.721 26.2827 186.03C26.2827 186.354 26.2082 186.668 26.0591 186.972C25.9154 187.27 25.6733 187.605 25.3326 187.978L23.4165 190.053L23.3686 189.734H26.5222V190.285H22.8656ZM29.3852 190.349C28.7359 190.349 28.2409 190.104 27.9003 189.614C27.5649 189.119 27.3973 188.395 27.3973 187.443C27.3973 186.49 27.5649 185.769 27.9003 185.279C28.2356 184.784 28.7306 184.537 29.3852 184.537C30.0399 184.537 30.5349 184.784 30.8702 185.279C31.2055 185.769 31.3732 186.487 31.3732 187.435C31.3732 188.387 31.2029 189.111 30.8622 189.606C30.5269 190.101 30.0346 190.349 29.3852 190.349ZM29.3852 189.798C29.8376 189.798 30.1703 189.606 30.3832 189.223C30.6014 188.84 30.7105 188.244 30.7105 187.435C30.7105 186.626 30.6014 186.035 30.3832 185.662C30.1703 185.284 29.8376 185.096 29.3852 185.096C28.9328 185.096 28.5975 185.284 28.3793 185.662C28.1664 186.04 28.0599 186.631 28.0599 187.435C28.0599 188.244 28.1664 188.84 28.3793 189.223C28.5975 189.606 28.9328 189.798 29.3852 189.798ZM34.1724 190.349C33.523 190.349 33.028 190.104 32.6874 189.614C32.3521 189.119 32.1844 188.395 32.1844 187.443C32.1844 186.49 32.3521 185.769 32.6874 185.279C33.0227 184.784 33.5177 184.537 34.1724 184.537C34.827 184.537 35.322 184.784 35.6573 185.279C35.9926 185.769 36.1603 186.487 36.1603 187.435C36.1603 188.387 35.99 189.111 35.6493 189.606C35.314 190.101 34.8217 190.349 34.1724 190.349ZM34.1724 189.798C34.6248 189.798 34.9574 189.606 35.1703 189.223C35.3885 188.84 35.4977 188.244 35.4977 187.435C35.4977 186.626 35.3885 186.035 35.1703 185.662C34.9574 185.284 34.6248 185.096 34.1724 185.096C33.7199 185.096 33.3846 185.284 33.1664 185.662C32.9535 186.04 32.8471 186.631 32.8471 187.435C32.8471 188.244 32.9535 188.84 33.1664 189.223C33.3846 189.606 33.7199 189.798 34.1724 189.798Z" fill="#728A96"/>
<line x1="42.2194" y1="187.285" x2="372.959" y2="187.285" stroke="#F7F9FB" stroke-width="0.665311" stroke-linecap="round"/>
<path d="M34.1724 234.925C33.523 234.925 33.028 234.68 32.6874 234.19C32.3521 233.695 32.1844 232.971 32.1844 232.019C32.1844 231.066 32.3521 230.345 32.6874 229.855C33.0227 229.36 33.5177 229.112 34.1724 229.112C34.827 229.112 35.322 229.36 35.6573 229.855C35.9926 230.345 36.1603 231.063 36.1603 232.011C36.1603 232.963 35.99 233.687 35.6493 234.182C35.314 234.677 34.8217 234.925 34.1724 234.925ZM34.1724 234.374C34.6248 234.374 34.9574 234.182 35.1703 233.799C35.3885 233.416 35.4977 232.82 35.4977 232.011C35.4977 231.202 35.3885 230.611 35.1703 230.238C34.9574 229.86 34.6248 229.671 34.1724 229.671C33.7199 229.671 33.3846 229.86 33.1664 230.238C32.9535 230.616 32.8471 231.207 32.8471 232.011C32.8471 232.82 32.9535 233.416 33.1664 233.799C33.3846 234.182 33.7199 234.374 34.1724 234.374Z" fill="#728A96"/>
<line x1="42.2194" y1="231.861" x2="372.959" y2="231.861" stroke="#F7F9FB" stroke-width="0.665311" stroke-linecap="round"/>
<path d="M58.2722 247.937V247.37C58.6022 247.429 58.863 247.442 59.0546 247.41C59.2462 247.383 59.3819 247.29 59.4618 247.131C59.5416 246.976 59.5815 246.742 59.5815 246.428V240.832H60.2362V246.436C60.2362 246.878 60.1723 247.221 60.0446 247.466C59.9168 247.716 59.7093 247.876 59.4219 247.945C59.1344 248.02 58.7512 248.017 58.2722 247.937ZM63.1032 246.572C62.7466 246.572 62.4325 246.489 62.1611 246.324C61.895 246.154 61.6874 245.914 61.5384 245.606C61.3947 245.292 61.3228 244.924 61.3228 244.504C61.3228 244.084 61.3973 243.716 61.5463 243.402C61.6954 243.088 61.9029 242.843 62.1691 242.668C62.4405 242.492 62.7519 242.404 63.1032 242.404C63.4704 242.404 63.7818 242.495 64.0373 242.676C64.2927 242.857 64.4657 243.115 64.5562 243.45L64.4604 243.514V242.5H65.0991V246.516H64.4604V245.478L64.5562 245.526C64.4657 245.861 64.2927 246.119 64.0373 246.3C63.7818 246.481 63.4704 246.572 63.1032 246.572ZM63.2309 246.037C63.6248 246.037 63.9282 245.904 64.1411 245.638C64.354 245.366 64.4604 244.983 64.4604 244.488C64.4604 243.993 64.3513 243.612 64.1331 243.346C63.9202 243.08 63.6194 242.947 63.2309 242.947C62.837 242.947 62.5283 243.086 62.3048 243.362C62.0866 243.634 61.9775 244.014 61.9775 244.504C61.9775 244.994 62.0866 245.372 62.3048 245.638C62.5283 245.904 62.837 246.037 63.2309 246.037ZM66.3494 246.516V243.626C66.3494 243.44 66.3441 243.253 66.3335 243.067C66.3281 242.875 66.3122 242.686 66.2856 242.5H66.9003L66.9722 243.33L66.8923 243.394C67.0041 243.07 67.1904 242.825 67.4512 242.66C67.712 242.489 68.0127 242.404 68.3533 242.404C69.3167 242.404 69.7984 242.934 69.7984 243.993V246.516H69.1517V244.025C69.1517 243.652 69.0772 243.381 68.9282 243.211C68.7791 243.035 68.545 242.947 68.2256 242.947C67.853 242.947 67.555 243.062 67.3314 243.29C67.1079 243.519 66.9961 243.828 66.9961 244.217V246.516H66.3494Z" fill="#728A96"/>
<path d="M83.6656 246.516V240.832H87.1784V241.382H84.3123V243.354H87.0188V243.905H84.3123V246.516H83.6656ZM91.2957 246.037C91.1201 246.202 90.8939 246.332 90.6171 246.428C90.3457 246.524 90.0662 246.572 89.7788 246.572C89.3637 246.572 89.0044 246.489 88.701 246.324C88.403 246.159 88.1714 245.922 88.0064 245.614C87.8468 245.3 87.7669 244.927 87.7669 244.496C87.7669 244.081 87.8468 243.716 88.0064 243.402C88.1661 243.088 88.387 242.843 88.6691 242.668C88.9565 242.492 89.2865 242.404 89.6591 242.404C90.0157 242.404 90.3217 242.484 90.5772 242.644C90.8327 242.798 91.0269 243.022 91.16 243.314C91.2984 243.607 91.3676 243.958 91.3676 244.368V244.488H88.3338V244.065H91.0003L90.7928 244.36C90.8034 243.892 90.7103 243.533 90.5133 243.283C90.3217 243.032 90.0396 242.907 89.6671 242.907C89.2785 242.907 88.9725 243.046 88.7489 243.322C88.5307 243.594 88.4216 243.972 88.4216 244.456C88.4216 244.978 88.536 245.372 88.7649 245.638C88.9991 245.904 89.3397 246.037 89.7868 246.037C90.021 246.037 90.2445 246 90.4574 245.925C90.6757 245.845 90.8832 245.726 91.0802 245.566L91.2957 246.037ZM92.3491 246.516V240.64H92.9958V243.53L92.908 243.45C92.9985 243.12 93.1715 242.865 93.4269 242.684C93.6824 242.497 93.9911 242.404 94.3531 242.404C94.7097 242.404 95.021 242.489 95.2872 242.66C95.5533 242.83 95.7609 243.07 95.9099 243.378C96.0642 243.687 96.1414 244.052 96.1414 244.472C96.1414 244.893 96.0642 245.262 95.9099 245.582C95.7609 245.896 95.5506 246.141 95.2792 246.316C95.0131 246.487 94.7043 246.572 94.3531 246.572C93.9911 246.572 93.6824 246.481 93.4269 246.3C93.1715 246.119 92.9985 245.861 92.908 245.526L92.9958 245.438V246.516H92.3491ZM94.2333 246.037C94.6218 246.037 94.9252 245.901 95.1435 245.63C95.3617 245.353 95.4708 244.967 95.4708 244.472C95.4708 243.988 95.3617 243.612 95.1435 243.346C94.9252 243.08 94.6218 242.947 94.2333 242.947C93.8341 242.947 93.5281 243.083 93.3152 243.354C93.1023 243.62 92.9958 243.998 92.9958 244.488C92.9958 244.983 93.1023 245.366 93.3152 245.638C93.5281 245.904 93.8341 246.037 94.2333 246.037Z" fill="#728A96"/>
<path d="M109.597 246.516V240.832H110.14L112.447 246.077H112.144L114.427 240.832H114.97V246.516H114.363V241.694L114.611 241.726L112.519 246.516H112.056L109.932 241.726L110.196 241.694L110.204 246.516H109.597ZM117.833 246.572C117.477 246.572 117.163 246.489 116.891 246.324C116.625 246.154 116.418 245.914 116.269 245.606C116.125 245.292 116.053 244.924 116.053 244.504C116.053 244.084 116.128 243.716 116.277 243.402C116.426 243.088 116.633 242.843 116.899 242.668C117.171 242.492 117.482 242.404 117.833 242.404C118.201 242.404 118.512 242.495 118.768 242.676C119.023 242.857 119.196 243.115 119.286 243.45L119.191 243.514V242.5H119.829V246.516H119.191V245.478L119.286 245.526C119.196 245.861 119.023 246.119 118.768 246.3C118.512 246.481 118.201 246.572 117.833 246.572ZM117.961 246.037C118.355 246.037 118.658 245.904 118.871 245.638C119.084 245.366 119.191 244.983 119.191 244.488C119.191 243.993 119.082 243.612 118.863 243.346C118.65 243.08 118.35 242.947 117.961 242.947C117.567 242.947 117.259 243.086 117.035 243.362C116.817 243.634 116.708 244.014 116.708 244.504C116.708 244.994 116.817 245.372 117.035 245.638C117.259 245.904 117.567 246.037 117.961 246.037ZM121.08 246.516V243.626C121.08 243.44 121.074 243.253 121.064 243.067C121.058 242.875 121.042 242.686 121.016 242.5H121.631L121.718 243.49L121.631 243.466C121.705 243.115 121.865 242.851 122.11 242.676C122.36 242.495 122.639 242.404 122.948 242.404C123.017 242.404 123.081 242.41 123.14 242.42C123.203 242.426 123.262 242.436 123.315 242.452L123.299 243.043C123.177 243 123.036 242.979 122.876 242.979C122.599 242.979 122.376 243.04 122.205 243.163C122.04 243.285 121.918 243.442 121.838 243.634C121.764 243.82 121.726 244.017 121.726 244.225V246.516H121.08Z" fill="#728A96"/>
<path d="M136.558 246.516H135.879L138.378 240.832H138.953L141.452 246.516H140.781L138.554 241.311H138.793L136.558 246.516ZM136.941 245.055L137.173 244.512H140.158L140.39 245.055H136.941ZM142.221 248.24V243.626C142.221 243.44 142.216 243.253 142.205 243.067C142.2 242.875 142.184 242.686 142.157 242.5H142.772L142.844 243.33L142.78 243.45C142.871 243.115 143.044 242.857 143.299 242.676C143.555 242.495 143.863 242.404 144.225 242.404C144.576 242.404 144.885 242.492 145.151 242.668C145.423 242.843 145.633 243.088 145.782 243.402C145.936 243.716 146.014 244.084 146.014 244.504C146.014 244.924 145.936 245.292 145.782 245.606C145.633 245.914 145.425 246.154 145.159 246.324C144.893 246.489 144.582 246.572 144.225 246.572C143.863 246.572 143.555 246.481 143.299 246.3C143.044 246.119 142.871 245.861 142.78 245.526L142.868 245.446V248.24H142.221ZM144.105 246.037C144.494 246.037 144.797 245.904 145.016 245.638C145.234 245.372 145.343 244.994 145.343 244.504C145.343 244.014 145.234 243.634 145.016 243.362C144.797 243.086 144.494 242.947 144.105 242.947C143.706 242.947 143.4 243.08 143.187 243.346C142.974 243.612 142.868 243.993 142.868 244.488C142.868 244.983 142.974 245.366 143.187 245.638C143.4 245.904 143.706 246.037 144.105 246.037ZM147.008 246.516V243.626C147.008 243.44 147.003 243.253 146.992 243.067C146.987 242.875 146.971 242.686 146.945 242.5H147.559L147.647 243.49L147.559 243.466C147.634 243.115 147.793 242.851 148.038 242.676C148.288 242.495 148.568 242.404 148.877 242.404C148.946 242.404 149.01 242.41 149.068 242.42C149.132 242.426 149.191 242.436 149.244 242.452L149.228 243.043C149.105 243 148.964 242.979 148.805 242.979C148.528 242.979 148.304 243.04 148.134 243.163C147.969 243.285 147.847 243.442 147.767 243.634C147.692 243.82 147.655 244.017 147.655 244.225V246.516H147.008Z" fill="#728A96"/>
<path d="M162.191 246.516V240.832H162.734L165.042 246.077H164.738L167.021 240.832H167.564V246.516H166.958V241.694L167.205 241.726L165.113 246.516H164.65L162.527 241.726L162.79 241.694L162.798 246.516H162.191ZM170.428 246.572C170.071 246.572 169.757 246.489 169.486 246.324C169.219 246.154 169.012 245.914 168.863 245.606C168.719 245.292 168.647 244.924 168.647 244.504C168.647 244.084 168.722 243.716 168.871 243.402C169.02 243.088 169.227 242.843 169.494 242.668C169.765 242.492 170.076 242.404 170.428 242.404C170.795 242.404 171.106 242.495 171.362 242.676C171.617 242.857 171.79 243.115 171.881 243.45L171.785 243.514V242.5H172.424V246.516H171.785V245.478L171.881 245.526C171.79 245.861 171.617 246.119 171.362 246.3C171.106 246.481 170.795 246.572 170.428 246.572ZM170.555 246.037C170.949 246.037 171.253 245.904 171.465 245.638C171.678 245.366 171.785 244.983 171.785 244.488C171.785 243.993 171.676 243.612 171.458 243.346C171.245 243.08 170.944 242.947 170.555 242.947C170.161 242.947 169.853 243.086 169.629 243.362C169.411 243.634 169.302 244.014 169.302 244.504C169.302 244.994 169.411 245.372 169.629 245.638C169.853 245.904 170.161 246.037 170.555 246.037ZM173.482 248.328L173.347 247.825C173.591 247.767 173.796 247.698 173.961 247.618C174.132 247.543 174.273 247.445 174.384 247.322C174.502 247.2 174.603 247.038 174.688 246.835L174.943 246.244L175.087 246.045L176.556 242.5H177.203L175.326 246.883C175.183 247.208 175.02 247.466 174.839 247.658C174.659 247.855 174.454 248.004 174.225 248.105C174.001 248.206 173.754 248.28 173.482 248.328ZM174.951 246.723L173.147 242.5H173.826L175.279 246.045L174.951 246.723Z" fill="#728A96"/>
<path d="M189.282 247.937V247.37C189.612 247.429 189.873 247.442 190.064 247.41C190.256 247.383 190.392 247.29 190.471 247.131C190.551 246.976 190.591 246.742 190.591 246.428V240.832H191.246V246.436C191.246 246.878 191.182 247.221 191.054 247.466C190.926 247.716 190.719 247.876 190.431 247.945C190.144 248.02 189.761 248.017 189.282 247.937ZM193.993 246.572C193.514 246.572 193.152 246.439 192.907 246.173C192.668 245.906 192.548 245.513 192.548 244.991V242.5H193.195V244.975C193.195 245.337 193.269 245.603 193.418 245.773C193.567 245.944 193.793 246.029 194.097 246.029C194.453 246.029 194.741 245.914 194.959 245.686C195.177 245.457 195.286 245.151 195.286 244.767V242.5H195.933V246.516H195.302V245.646L195.398 245.598C195.292 245.917 195.111 246.159 194.855 246.324C194.605 246.489 194.318 246.572 193.993 246.572ZM197.18 246.516V243.626C197.18 243.44 197.174 243.253 197.164 243.067C197.158 242.875 197.142 242.686 197.116 242.5H197.731L197.802 243.33L197.723 243.394C197.834 243.07 198.021 242.825 198.281 242.66C198.542 242.489 198.843 242.404 199.184 242.404C200.147 242.404 200.629 242.934 200.629 243.993V246.516H199.982V244.025C199.982 243.652 199.907 243.381 199.758 243.211C199.609 243.035 199.375 242.947 199.056 242.947C198.683 242.947 198.385 243.062 198.162 243.29C197.938 243.519 197.826 243.828 197.826 244.217V246.516H197.18Z" fill="#728A96"/>
<path d="M213.549 247.937V247.37C213.879 247.429 214.14 247.442 214.332 247.41C214.523 247.383 214.659 247.29 214.739 247.131C214.819 246.976 214.859 246.742 214.859 246.428V240.832H215.513V246.436C215.513 246.878 215.45 247.221 215.322 247.466C215.194 247.716 214.987 247.876 214.699 247.945C214.412 248.02 214.028 248.017 213.549 247.937ZM218.261 246.572C217.782 246.572 217.42 246.439 217.175 246.173C216.935 245.906 216.816 245.513 216.816 244.991V242.5H217.462V244.975C217.462 245.337 217.537 245.603 217.686 245.773C217.835 245.944 218.061 246.029 218.364 246.029C218.721 246.029 219.008 245.914 219.227 245.686C219.445 245.457 219.554 245.151 219.554 244.767V242.5H220.201V246.516H219.57V245.646L219.666 245.598C219.559 245.917 219.378 246.159 219.123 246.324C218.873 246.489 218.585 246.572 218.261 246.572ZM221.447 246.516V240.64H222.094V246.516H221.447Z" fill="#728A96"/>
<path d="M236.221 246.516H235.542L238.041 240.832H238.616L241.115 246.516H240.444L238.217 241.311H238.456L236.221 246.516ZM236.604 245.055L236.835 244.512H239.821L240.053 245.055H236.604ZM243.305 246.572C242.826 246.572 242.464 246.439 242.219 246.173C241.98 245.906 241.86 245.513 241.86 244.991V242.5H242.507V244.975C242.507 245.337 242.581 245.603 242.73 245.773C242.879 245.944 243.106 246.029 243.409 246.029C243.766 246.029 244.053 245.914 244.271 245.686C244.49 245.457 244.599 245.151 244.599 244.767V242.5H245.245V246.516H244.615V245.646L244.71 245.598C244.604 245.917 244.423 246.159 244.168 246.324C243.917 246.489 243.63 246.572 243.305 246.572ZM248.256 248.296C247.65 248.296 247.123 248.158 246.676 247.881L246.787 247.354C247.038 247.498 247.274 247.602 247.498 247.666C247.721 247.729 247.974 247.761 248.256 247.761C248.64 247.761 248.93 247.658 249.127 247.45C249.329 247.248 249.43 246.944 249.43 246.54V245.454L249.518 245.35C249.454 245.563 249.353 245.749 249.214 245.909C249.081 246.064 248.916 246.183 248.719 246.268C248.522 246.354 248.299 246.396 248.049 246.396C247.692 246.396 247.378 246.314 247.107 246.149C246.841 245.978 246.63 245.744 246.476 245.446C246.327 245.148 246.252 244.799 246.252 244.4C246.252 244.001 246.327 243.652 246.476 243.354C246.63 243.056 246.841 242.825 247.107 242.66C247.378 242.489 247.692 242.404 248.049 242.404C248.421 242.404 248.735 242.497 248.991 242.684C249.252 242.865 249.427 243.12 249.518 243.45L249.422 243.362V242.5H250.069V246.484C250.069 247.085 249.914 247.538 249.606 247.841C249.302 248.145 248.852 248.296 248.256 248.296ZM248.177 245.853C248.565 245.853 248.868 245.726 249.087 245.47C249.31 245.209 249.422 244.853 249.422 244.4C249.422 243.948 249.31 243.594 249.087 243.338C248.868 243.078 248.565 242.947 248.177 242.947C247.783 242.947 247.471 243.078 247.242 243.338C247.019 243.594 246.907 243.948 246.907 244.4C246.907 244.858 247.019 245.215 247.242 245.47C247.471 245.726 247.783 245.853 248.177 245.853Z" fill="#728A96"/>
<path d="M265.882 246.58C265.589 246.58 265.315 246.556 265.059 246.508C264.804 246.455 264.567 246.375 264.349 246.268C264.131 246.157 263.934 246.021 263.758 245.861L264.005 245.358C264.293 245.598 264.58 245.768 264.868 245.869C265.16 245.97 265.501 246.021 265.89 246.021C266.342 246.021 266.693 245.933 266.943 245.757C267.194 245.576 267.319 245.324 267.319 244.999C267.319 244.802 267.255 244.645 267.127 244.528C267.005 244.406 266.834 244.31 266.616 244.241C266.403 244.166 266.161 244.097 265.89 244.033C265.618 243.974 265.36 243.908 265.115 243.833C264.87 243.754 264.652 243.655 264.461 243.538C264.274 243.421 264.128 243.272 264.021 243.091C263.915 242.91 263.862 242.684 263.862 242.412C263.862 242.088 263.947 241.803 264.117 241.558C264.288 241.308 264.527 241.114 264.836 240.975C265.144 240.837 265.509 240.768 265.93 240.768C266.19 240.768 266.44 240.797 266.68 240.855C266.92 240.909 267.14 240.989 267.343 241.095C267.55 241.201 267.734 241.332 267.894 241.486L267.638 241.989C267.377 241.76 267.108 241.593 266.832 241.486C266.555 241.38 266.254 241.326 265.93 241.326C265.488 241.326 265.142 241.42 264.892 241.606C264.641 241.792 264.516 242.053 264.516 242.388C264.516 242.596 264.572 242.764 264.684 242.891C264.796 243.019 264.953 243.123 265.155 243.203C265.357 243.277 265.589 243.346 265.85 243.41C266.126 243.474 266.393 243.543 266.648 243.618C266.904 243.692 267.13 243.785 267.327 243.897C267.529 244.004 267.689 244.145 267.806 244.32C267.923 244.491 267.981 244.709 267.981 244.975C267.981 245.3 267.896 245.582 267.726 245.821C267.556 246.061 267.313 246.247 266.999 246.38C266.685 246.513 266.313 246.58 265.882 246.58ZM272.261 246.037C272.085 246.202 271.859 246.332 271.582 246.428C271.311 246.524 271.031 246.572 270.744 246.572C270.329 246.572 269.97 246.489 269.666 246.324C269.368 246.159 269.137 245.922 268.972 245.614C268.812 245.3 268.732 244.927 268.732 244.496C268.732 244.081 268.812 243.716 268.972 243.402C269.131 243.088 269.352 242.843 269.634 242.668C269.922 242.492 270.252 242.404 270.624 242.404C270.981 242.404 271.287 242.484 271.542 242.644C271.798 242.798 271.992 243.022 272.125 243.314C272.264 243.607 272.333 243.958 272.333 244.368V244.488H269.299V244.065H271.966L271.758 244.36C271.769 243.892 271.676 243.533 271.479 243.283C271.287 243.032 271.005 242.907 270.632 242.907C270.244 242.907 269.938 243.046 269.714 243.322C269.496 243.594 269.387 243.972 269.387 244.456C269.387 244.978 269.501 245.372 269.73 245.638C269.964 245.904 270.305 246.037 270.752 246.037C270.986 246.037 271.21 246 271.423 245.925C271.641 245.845 271.848 245.726 272.045 245.566L272.261 246.037ZM273.314 248.24V243.626C273.314 243.44 273.309 243.253 273.298 243.067C273.293 242.875 273.277 242.686 273.251 242.5H273.865L273.937 243.33L273.873 243.45C273.964 243.115 274.137 242.857 274.392 242.676C274.648 242.495 274.956 242.404 275.318 242.404C275.67 242.404 275.978 242.492 276.244 242.668C276.516 242.843 276.726 243.088 276.875 243.402C277.029 243.716 277.107 244.084 277.107 244.504C277.107 244.924 277.029 245.292 276.875 245.606C276.726 245.914 276.519 246.154 276.252 246.324C275.986 246.489 275.675 246.572 275.318 246.572C274.956 246.572 274.648 246.481 274.392 246.3C274.137 246.119 273.964 245.861 273.873 245.526L273.961 245.446V248.24H273.314ZM275.199 246.037C275.587 246.037 275.89 245.904 276.109 245.638C276.327 245.372 276.436 244.994 276.436 244.504C276.436 244.014 276.327 243.634 276.109 243.362C275.89 243.086 275.587 242.947 275.199 242.947C274.799 242.947 274.493 243.08 274.28 243.346C274.068 243.612 273.961 243.993 273.961 244.488C273.961 244.983 274.068 245.366 274.28 245.638C274.493 245.904 274.799 246.037 275.199 246.037Z" fill="#728A96"/>
<path d="M292.933 246.58C292.401 246.58 291.94 246.463 291.552 246.229C291.168 245.994 290.87 245.659 290.657 245.223C290.45 244.786 290.346 244.27 290.346 243.674C290.346 243.072 290.45 242.556 290.657 242.125C290.865 241.688 291.16 241.353 291.544 241.119C291.932 240.885 292.395 240.768 292.933 240.768C293.465 240.768 293.925 240.885 294.314 241.119C294.703 241.353 295.001 241.688 295.208 242.125C295.416 242.556 295.52 243.07 295.52 243.666C295.52 244.267 295.413 244.786 295.2 245.223C294.993 245.659 294.695 245.994 294.306 246.229C293.923 246.463 293.465 246.58 292.933 246.58ZM292.933 246.021C293.534 246.021 294.003 245.819 294.338 245.414C294.673 245.004 294.841 244.422 294.841 243.666C294.841 242.91 294.673 242.332 294.338 241.933C294.003 241.529 293.534 241.326 292.933 241.326C292.331 241.326 291.86 241.529 291.52 241.933C291.184 242.338 291.017 242.915 291.017 243.666C291.017 244.416 291.184 244.996 291.52 245.406C291.86 245.816 292.331 246.021 292.933 246.021ZM298.325 246.572C297.932 246.572 297.591 246.487 297.304 246.316C297.016 246.146 296.793 245.906 296.633 245.598C296.479 245.289 296.401 244.924 296.401 244.504C296.401 244.089 296.481 243.724 296.641 243.41C296.801 243.091 297.027 242.843 297.32 242.668C297.612 242.492 297.958 242.404 298.357 242.404C298.629 242.404 298.89 242.452 299.14 242.548C299.395 242.638 299.606 242.766 299.771 242.931L299.555 243.41C299.358 243.256 299.164 243.141 298.972 243.067C298.786 242.987 298.592 242.947 298.389 242.947C297.985 242.947 297.663 243.083 297.423 243.354C297.189 243.626 297.072 244.009 297.072 244.504C297.072 244.994 297.189 245.372 297.423 245.638C297.657 245.904 297.98 246.037 298.389 246.037C298.586 246.037 298.781 246 298.972 245.925C299.164 245.845 299.358 245.728 299.555 245.574L299.771 246.053C299.6 246.213 299.385 246.34 299.124 246.436C298.868 246.527 298.602 246.572 298.325 246.572ZM300.035 243.011V242.5H302.613V243.011H300.035ZM302.598 245.941V246.492C302.507 246.519 302.417 246.537 302.326 246.548C302.241 246.564 302.145 246.572 302.039 246.572C301.666 246.572 301.368 246.465 301.144 246.252C300.926 246.04 300.817 245.72 300.817 245.294V241.47L301.464 241.239V245.207C301.464 245.419 301.493 245.584 301.552 245.702C301.616 245.819 301.701 245.901 301.807 245.949C301.914 245.992 302.033 246.013 302.166 246.013C302.246 246.013 302.318 246.008 302.382 245.997C302.446 245.986 302.518 245.968 302.598 245.941Z" fill="#728A96"/>
<path d="M315.537 246.516V240.832H316.04L319.664 245.662L319.473 245.71V240.832H320.096V246.516H319.585L315.968 241.694L316.152 241.638V246.516H315.537ZM323.074 246.572C322.691 246.572 322.356 246.487 322.068 246.316C321.786 246.146 321.565 245.906 321.406 245.598C321.251 245.284 321.174 244.914 321.174 244.488C321.174 244.068 321.251 243.7 321.406 243.386C321.565 243.072 321.786 242.83 322.068 242.66C322.356 242.489 322.691 242.404 323.074 242.404C323.458 242.404 323.79 242.489 324.072 242.66C324.36 242.83 324.581 243.072 324.735 243.386C324.895 243.7 324.974 244.068 324.974 244.488C324.974 244.914 324.895 245.284 324.735 245.598C324.581 245.906 324.36 246.146 324.072 246.316C323.79 246.487 323.458 246.572 323.074 246.572ZM323.074 246.037C323.468 246.037 323.772 245.906 323.984 245.646C324.203 245.38 324.312 244.994 324.312 244.488C324.312 243.993 324.203 243.612 323.984 243.346C323.766 243.08 323.463 242.947 323.074 242.947C322.686 242.947 322.38 243.08 322.156 243.346C321.938 243.612 321.829 243.993 321.829 244.488C321.829 244.994 321.935 245.38 322.148 245.646C322.366 245.906 322.675 246.037 323.074 246.037ZM327.117 246.516L325.409 242.508H326.087L327.54 246.045H327.349L328.818 242.508H329.465L327.732 246.516H327.117Z" fill="#728A96"/>
<path d="M342.656 246.516V240.832H344.564C345.17 240.832 345.687 240.943 346.113 241.167C346.538 241.385 346.863 241.707 347.087 242.133C347.31 242.553 347.422 243.064 347.422 243.666C347.422 244.272 347.307 244.789 347.079 245.215C346.855 245.635 346.53 245.957 346.105 246.181C345.679 246.404 345.165 246.516 344.564 246.516H342.656ZM343.31 245.957H344.524C345.258 245.957 345.809 245.765 346.176 245.382C346.549 244.999 346.735 244.427 346.735 243.666C346.735 242.149 345.998 241.39 344.524 241.39H343.31V245.957ZM351.822 246.037C351.646 246.202 351.42 246.332 351.143 246.428C350.872 246.524 350.592 246.572 350.305 246.572C349.89 246.572 349.53 246.489 349.227 246.324C348.929 246.159 348.697 245.922 348.532 245.614C348.373 245.3 348.293 244.927 348.293 244.496C348.293 244.081 348.373 243.716 348.532 243.402C348.692 243.088 348.913 242.843 349.195 242.668C349.482 242.492 349.812 242.404 350.185 242.404C350.542 242.404 350.848 242.484 351.103 242.644C351.359 242.798 351.553 243.022 351.686 243.314C351.824 243.607 351.893 243.958 351.893 244.368V244.488H348.86V244.065H351.526L351.319 244.36C351.329 243.892 351.236 243.533 351.039 243.283C350.848 243.032 350.566 242.907 350.193 242.907C349.804 242.907 349.498 243.046 349.275 243.322C349.057 243.594 348.947 243.972 348.947 244.456C348.947 244.978 349.062 245.372 349.291 245.638C349.525 245.904 349.866 246.037 350.313 246.037C350.547 246.037 350.77 246 350.983 245.925C351.202 245.845 351.409 245.726 351.606 245.566L351.822 246.037ZM354.56 246.572C354.166 246.572 353.825 246.487 353.538 246.316C353.25 246.146 353.027 245.906 352.867 245.598C352.713 245.289 352.636 244.924 352.636 244.504C352.636 244.089 352.715 243.724 352.875 243.41C353.035 243.091 353.261 242.843 353.554 242.668C353.846 242.492 354.192 242.404 354.592 242.404C354.863 242.404 355.124 242.452 355.374 242.548C355.629 242.638 355.84 242.766 356.005 242.931L355.789 243.41C355.592 243.256 355.398 243.141 355.206 243.067C355.02 242.987 354.826 242.947 354.623 242.947C354.219 242.947 353.897 243.083 353.657 243.354C353.423 243.626 353.306 244.009 353.306 244.504C353.306 244.994 353.423 245.372 353.657 245.638C353.892 245.904 354.214 246.037 354.623 246.037C354.82 246.037 355.015 246 355.206 245.925C355.398 245.845 355.592 245.728 355.789 245.574L356.005 246.053C355.834 246.213 355.619 246.34 355.358 246.436C355.103 246.527 354.836 246.572 354.56 246.572Z" fill="#728A96"/>
<path d="M182.875 263.838V258.154H183.418L185.725 263.399H185.422L187.705 258.154H188.248V263.838H187.641V259.016L187.889 259.048L185.797 263.838H185.334L183.21 259.048L183.474 259.016L183.482 263.838H182.875ZM191.231 263.894C190.848 263.894 190.512 263.809 190.225 263.639C189.943 263.468 189.722 263.229 189.562 262.92C189.408 262.606 189.331 262.236 189.331 261.811C189.331 261.39 189.408 261.023 189.562 260.709C189.722 260.395 189.943 260.153 190.225 259.982C190.512 259.812 190.848 259.727 191.231 259.727C191.614 259.727 191.947 259.812 192.229 259.982C192.516 260.153 192.737 260.395 192.892 260.709C193.051 261.023 193.131 261.39 193.131 261.811C193.131 262.236 193.051 262.606 192.892 262.92C192.737 263.229 192.516 263.468 192.229 263.639C191.947 263.809 191.614 263.894 191.231 263.894ZM191.231 263.359C191.625 263.359 191.928 263.229 192.141 262.968C192.359 262.702 192.468 262.316 192.468 261.811C192.468 261.316 192.359 260.935 192.141 260.669C191.923 260.403 191.62 260.27 191.231 260.27C190.842 260.27 190.536 260.403 190.313 260.669C190.095 260.935 189.985 261.316 189.985 261.811C189.985 262.316 190.092 262.702 190.305 262.968C190.523 263.229 190.832 263.359 191.231 263.359ZM194.139 263.838V260.948C194.139 260.762 194.134 260.576 194.123 260.389C194.118 260.198 194.102 260.009 194.075 259.823H194.69L194.762 260.653L194.682 260.717C194.794 260.392 194.98 260.147 195.241 259.982C195.502 259.812 195.802 259.727 196.143 259.727C197.106 259.727 197.588 260.256 197.588 261.316V263.838H196.941V261.347C196.941 260.975 196.867 260.703 196.718 260.533C196.569 260.357 196.335 260.27 196.015 260.27C195.643 260.27 195.345 260.384 195.121 260.613C194.898 260.842 194.786 261.151 194.786 261.539V263.838H194.139ZM198.242 260.334V259.823H200.821V260.334H198.242ZM200.805 263.264V263.814C200.715 263.841 200.624 263.86 200.534 263.87C200.449 263.886 200.353 263.894 200.246 263.894C199.874 263.894 199.576 263.788 199.352 263.575C199.134 263.362 199.025 263.043 199.025 262.617V258.793L199.672 258.561V262.529C199.672 262.742 199.701 262.907 199.759 263.024C199.823 263.141 199.908 263.224 200.015 263.272C200.121 263.314 200.241 263.335 200.374 263.335C200.454 263.335 200.526 263.33 200.59 263.319C200.654 263.309 200.725 263.29 200.805 263.264ZM201.601 263.838V257.962H202.247V260.637L202.143 260.717C202.255 260.392 202.441 260.147 202.702 259.982C202.963 259.812 203.264 259.727 203.604 259.727C204.568 259.727 205.049 260.256 205.049 261.316V263.838H204.403V261.347C204.403 260.975 204.328 260.703 204.179 260.533C204.03 260.357 203.796 260.27 203.477 260.27C203.104 260.27 202.806 260.384 202.583 260.613C202.359 260.842 202.247 261.151 202.247 261.539V263.838H201.601Z" fill="#728A96"/>
<path d="M62.2549 122.525L110.372 84.9415L158.489 146.742L206.607 171.672L254.724 108.991L297.455 122.525L344.495 69.3425" stroke="#0088CC" stroke-width="1.33062" stroke-linecap="round" stroke-linejoin="round"/>
<path d="M110.372 84.9408L61.2246 122.567V215.968H345.525V67.6256L297.454 122.522L254.724 108.99L206.606 171.667L158.489 146.739L110.372 84.9408Z" fill="#D6EEFA"/>
<ellipse cx="62.941" cy="122.224" rx="2.06014" ry="2.06032" fill="white" stroke="#0088CC" stroke-width="0.997966"/>
<ellipse cx="110.325" cy="85.8251" rx="2.06014" ry="2.06032" fill="white" stroke="#0088CC" stroke-width="0.997966"/>
<ellipse cx="158.394" cy="146.948" rx="2.06014" ry="2.06032" fill="white" stroke="#0088CC" stroke-width="0.997966"/>
<ellipse cx="205.778" cy="171.672" rx="2.06014" ry="2.06031" fill="white" stroke="#0088CC" stroke-width="0.997966"/>
<ellipse cx="254.535" cy="109.175" rx="2.06015" ry="2.06032" fill="white" stroke="#0088CC" stroke-width="0.997966"/>
<ellipse cx="297.111" cy="122.911" rx="2.06014" ry="2.06032" fill="white" stroke="#0088CC" stroke-width="0.997966"/>
<ellipse cx="343.807" cy="69.3426" rx="2.06014" ry="2.06032" fill="white" stroke="#0088CC" stroke-width="0.997966"/>
<path d="M134.678 140V126.421H139.237C140.686 126.421 141.919 126.688 142.937 127.222C143.954 127.743 144.729 128.512 145.263 129.529C145.797 130.534 146.064 131.754 146.064 133.191C146.064 134.641 145.791 135.874 145.244 136.891C144.71 137.896 143.935 138.665 142.918 139.199C141.9 139.733 140.673 140 139.237 140H134.678ZM136.242 138.665H139.141C140.896 138.665 142.212 138.207 143.089 137.292C143.979 136.376 144.424 135.009 144.424 133.191C144.424 129.567 142.663 127.756 139.141 127.756H136.242V138.665ZM148.908 140V126.421H157.491V127.717H150.453V132.447H157.109V133.763H150.453V138.703H157.491V140H148.908ZM160.12 140V126.421H161.417L166.929 138.951H166.204L171.659 126.421H172.956V140H171.507V128.48L172.098 128.557L167.101 140H165.995L160.921 128.557L161.551 128.48L161.57 140H160.12ZM181.989 140.153C180.718 140.153 179.618 139.873 178.69 139.313C177.774 138.754 177.062 137.953 176.554 136.91C176.058 135.868 175.81 134.634 175.81 133.21C175.81 131.774 176.058 130.54 176.554 129.51C177.05 128.468 177.755 127.667 178.671 127.107C179.599 126.548 180.705 126.268 181.989 126.268C183.261 126.268 184.361 126.548 185.289 127.107C186.217 127.667 186.929 128.468 187.425 129.51C187.921 130.54 188.169 131.767 188.169 133.191C188.169 134.628 187.914 135.868 187.406 136.91C186.91 137.953 186.198 138.754 185.27 139.313C184.354 139.873 183.261 140.153 181.989 140.153ZM181.989 138.818C183.426 138.818 184.545 138.334 185.346 137.368C186.147 136.389 186.548 134.997 186.548 133.191C186.548 131.386 186.147 130.006 185.346 129.053C184.545 128.086 183.426 127.603 181.989 127.603C180.553 127.603 179.427 128.086 178.614 129.053C177.812 130.019 177.412 131.398 177.412 133.191C177.412 134.984 177.812 136.37 178.614 137.349C179.427 138.328 180.553 138.818 181.989 138.818ZM202.019 140.153C200.659 140.153 199.489 139.879 198.51 139.332C197.543 138.773 196.8 137.978 196.278 136.948C195.77 135.906 195.515 134.653 195.515 133.191C195.515 131.742 195.77 130.502 196.278 129.472C196.8 128.43 197.537 127.635 198.491 127.088C199.457 126.541 200.595 126.268 201.905 126.268C202.845 126.268 203.71 126.414 204.498 126.707C205.299 126.986 205.992 127.412 206.577 127.984L205.967 129.186C205.306 128.627 204.657 128.226 204.022 127.984C203.386 127.73 202.68 127.603 201.905 127.603C200.366 127.603 199.184 128.086 198.357 129.053C197.543 130.006 197.137 131.386 197.137 133.191C197.137 135.035 197.556 136.44 198.395 137.406C199.234 138.36 200.455 138.837 202.057 138.837C202.718 138.837 203.36 138.779 203.983 138.665C204.619 138.538 205.191 138.373 205.7 138.169L205.319 138.97V134.164H201.943V132.924H206.749V139.218C206.393 139.409 205.954 139.574 205.433 139.714C204.924 139.854 204.371 139.962 203.774 140.038C203.189 140.114 202.604 140.153 202.019 140.153ZM209.962 140V126.421H215.359C216.821 126.421 217.94 126.745 218.716 127.393C219.504 128.042 219.898 128.976 219.898 130.197C219.898 131.367 219.498 132.288 218.697 132.962C217.908 133.624 216.796 133.954 215.359 133.954L216.77 133.687C217.266 133.687 217.692 133.827 218.048 134.107C218.404 134.374 218.69 134.806 218.906 135.404L220.623 140H218.964L217.285 135.48C217.069 134.908 216.77 134.533 216.389 134.355C216.02 134.164 215.524 134.069 214.901 134.069H211.506V140H209.962ZM211.506 132.772H215.225C216.281 132.772 217.063 132.555 217.571 132.123C218.093 131.691 218.353 131.055 218.353 130.216C218.353 129.377 218.099 128.754 217.59 128.347C217.082 127.927 216.294 127.717 215.225 127.717H211.506V132.772ZM223.36 140H221.739L227.708 126.421H229.081L235.051 140H233.449L228.128 127.565H228.7L223.36 140ZM224.275 136.51L224.828 135.213H231.961L232.514 136.51H224.275ZM237.08 140V126.421H242.496C243.895 126.421 244.982 126.758 245.758 127.431C246.546 128.105 246.94 129.033 246.94 130.216C246.94 131.386 246.546 132.314 245.758 133C244.969 133.687 243.882 134.03 242.496 134.03H238.644V140H237.08ZM238.644 132.733H242.363C243.367 132.733 244.124 132.517 244.633 132.085C245.141 131.64 245.395 131.017 245.395 130.216C245.395 129.415 245.141 128.798 244.633 128.366C244.124 127.934 243.367 127.717 242.363 127.717H238.644V132.733ZM259.192 140V126.421H260.756V140H259.192ZM249.503 140V126.421H251.048V140H249.503ZM250.228 133.763V132.447H260.069V133.763H250.228Z" fill="#BDBDBF"/>
</svg>
