<svg width="356" height="246" viewBox="0 0 356 246" fill="none" xmlns="http://www.w3.org/2000/svg">
<line x1="3.43717" y1="12.0187" x2="352.75" y2="12.0187" stroke="#F0F8FC" stroke-width="1.02083" stroke-linecap="round"/>
<line x1="3.43717" y1="55.4041" x2="352.75" y2="55.4041" stroke="#F0F8FC" stroke-width="1.02083" stroke-linecap="round"/>
<line x1="3.43717" y1="96.2375" x2="352.75" y2="96.2375" stroke="#F0F8FC" stroke-width="1.02083" stroke-linecap="round"/>
<line x1="3.43717" y1="137.071" x2="352.75" y2="137.071" stroke="#F0F8FC" stroke-width="1.02083" stroke-linecap="round"/>
<line x1="3.43717" y1="177.904" x2="352.75" y2="177.904" stroke="#F0F8FC" stroke-width="1.02083" stroke-linecap="round"/>
<line x1="3.43717" y1="218.738" x2="352.75" y2="218.738" stroke="#F0F8FC" stroke-width="1.02083" stroke-linecap="round"/>
<path d="M11.49 243.595V242.725C11.9964 242.815 12.3965 242.836 12.6905 242.787C12.9845 242.746 13.1928 242.603 13.3153 242.358C13.4378 242.121 13.499 241.762 13.499 241.28V232.693H14.5035V241.292C14.5035 241.97 14.4055 242.497 14.2095 242.872C14.0135 243.256 13.695 243.501 13.254 243.607C12.813 243.722 12.225 243.718 11.49 243.595ZM18.9025 241.5C18.3553 241.5 17.8735 241.374 17.457 241.121C17.0487 240.859 16.7302 240.492 16.5015 240.018C16.281 239.536 16.1708 238.973 16.1708 238.328C16.1708 237.682 16.2851 237.119 16.5138 236.637C16.7424 236.155 17.0609 235.78 17.4693 235.51C17.8858 235.241 18.3635 235.106 18.9025 235.106C19.466 235.106 19.9438 235.245 20.3358 235.522C20.7278 235.8 20.9932 236.196 21.132 236.711L20.985 236.809V235.253H21.965V241.415H20.985V239.822L21.132 239.896C20.9932 240.41 20.7278 240.806 20.3358 241.084C19.9438 241.361 19.466 241.5 18.9025 241.5ZM19.0985 240.68C19.7028 240.68 20.1683 240.475 20.495 240.067C20.8217 239.651 20.985 239.063 20.985 238.303C20.985 237.544 20.8176 236.96 20.4828 236.551C20.1561 236.143 19.6947 235.939 19.0985 235.939C18.4942 235.939 18.0205 236.151 17.6775 236.576C17.3427 236.992 17.1753 237.576 17.1753 238.328C17.1753 239.079 17.3427 239.659 17.6775 240.067C18.0205 240.475 18.4942 240.68 19.0985 240.68ZM23.8835 241.415V236.98C23.8835 236.694 23.8753 236.408 23.859 236.123C23.8508 235.829 23.8263 235.539 23.7855 235.253H24.7287L24.839 236.527L24.7165 236.625C24.888 236.127 25.1738 235.751 25.574 235.498C25.9741 235.236 26.4356 235.106 26.9582 235.106C28.4364 235.106 29.1755 235.918 29.1755 237.544V241.415H28.1832V237.593C28.1832 237.021 28.0689 236.604 27.8402 236.343C27.6116 236.074 27.2522 235.939 26.7622 235.939C26.1906 235.939 25.7332 236.114 25.3902 236.466C25.0472 236.817 24.8757 237.29 24.8757 237.887V241.415H23.8835Z" fill="#BDBDBF"/>
<path d="M62.7943 241.415V232.693H63.6273L67.1676 240.741H66.7021L70.2056 232.693H71.0386V241.415H70.1076V234.016L70.4873 234.065L67.2778 241.415H66.5673L63.3088 234.065L63.7131 234.016L63.7253 241.415H62.7943ZM75.4318 241.5C74.8846 241.5 74.4028 241.374 73.9863 241.121C73.578 240.859 73.2595 240.492 73.0308 240.018C72.8103 239.536 72.7001 238.973 72.7001 238.328C72.7001 237.682 72.8144 237.119 73.0431 236.637C73.2717 236.155 73.5902 235.78 73.9986 235.51C74.4151 235.241 74.8928 235.106 75.4318 235.106C75.9953 235.106 76.4731 235.245 76.8651 235.522C77.2571 235.8 77.5225 236.196 77.6613 236.711L77.5143 236.809V235.253H78.4943V241.415H77.5143V239.822L77.6613 239.896C77.5225 240.41 77.2571 240.806 76.8651 241.084C76.4731 241.361 75.9953 241.5 75.4318 241.5ZM75.6278 240.68C76.2321 240.68 76.6976 240.475 77.0243 240.067C77.351 239.651 77.5143 239.063 77.5143 238.303C77.5143 237.544 77.3469 236.96 77.0121 236.551C76.6854 236.143 76.224 235.939 75.6278 235.939C75.0235 235.939 74.5498 236.151 74.2068 236.576C73.872 236.992 73.7046 237.576 73.7046 238.328C73.7046 239.079 73.872 239.659 74.2068 240.067C74.5498 240.475 75.0235 240.68 75.6278 240.68ZM80.4128 241.415V236.98C80.4128 236.694 80.4046 236.408 80.3883 236.123C80.3801 235.829 80.3556 235.539 80.3148 235.253H81.258L81.3928 236.772L81.258 236.735C81.3724 236.196 81.6174 235.792 81.993 235.522C82.3769 235.245 82.8056 235.106 83.2793 235.106C83.3854 235.106 83.4834 235.114 83.5733 235.13C83.6713 235.138 83.7611 235.155 83.8428 235.179L83.8183 236.086C83.6304 236.02 83.414 235.988 83.169 235.988C82.7444 235.988 82.4014 236.082 82.14 236.27C81.8869 236.457 81.699 236.698 81.5765 236.992C81.4622 237.278 81.405 237.58 81.405 237.899V241.415H80.4128Z" fill="#BDBDBF"/>
<path d="M116.526 241.415V232.693H117.359L120.9 240.741H120.434L123.938 232.693H124.771V241.415H123.84V234.016L124.219 234.065L121.01 241.415H120.299L117.041 234.065L117.445 234.016L117.457 241.415H116.526ZM129.164 241.5C128.617 241.5 128.135 241.374 127.718 241.121C127.31 240.859 126.992 240.492 126.763 240.018C126.542 239.536 126.432 238.973 126.432 238.328C126.432 237.682 126.547 237.119 126.775 236.637C127.004 236.155 127.322 235.78 127.731 235.51C128.147 235.241 128.625 235.106 129.164 235.106C129.727 235.106 130.205 235.245 130.597 235.522C130.989 235.8 131.255 236.196 131.393 236.711L131.246 236.809V235.253H132.226V241.415H131.246V239.822L131.393 239.896C131.255 240.41 130.989 240.806 130.597 241.084C130.205 241.361 129.727 241.5 129.164 241.5ZM129.36 240.68C129.964 240.68 130.43 240.475 130.756 240.067C131.083 239.651 131.246 239.063 131.246 238.303C131.246 237.544 131.079 236.96 130.744 236.551C130.418 236.143 129.956 235.939 129.36 235.939C128.756 235.939 128.282 236.151 127.939 236.576C127.604 236.992 127.437 237.576 127.437 238.328C127.437 239.079 127.604 239.659 127.939 240.067C128.282 240.475 128.756 240.68 129.36 240.68ZM133.851 244.195L133.643 243.424C134.018 243.334 134.333 243.228 134.586 243.105C134.847 242.991 135.064 242.84 135.235 242.652C135.415 242.464 135.57 242.215 135.701 241.905L136.093 240.998L136.313 240.692L138.567 235.253H139.559L136.681 241.978C136.46 242.476 136.211 242.872 135.933 243.166C135.656 243.468 135.341 243.697 134.99 243.852C134.647 244.007 134.267 244.122 133.851 244.195ZM136.105 241.733L133.336 235.253H134.378L136.607 240.692L136.105 241.733Z" fill="#BDBDBF"/>
<path d="M171.418 243.595V242.725C171.925 242.815 172.325 242.836 172.619 242.787C172.913 242.746 173.121 242.603 173.243 242.358C173.366 242.121 173.427 241.762 173.427 241.28V232.693H174.432V241.292C174.432 241.97 174.334 242.497 174.138 242.872C173.942 243.256 173.623 243.501 173.182 243.607C172.741 243.722 172.153 243.718 171.418 243.595ZM178.647 241.5C177.912 241.5 177.357 241.296 176.981 240.888C176.613 240.479 176.43 239.875 176.43 239.075V235.253H177.422V239.05C177.422 239.606 177.536 240.014 177.765 240.275C177.994 240.537 178.341 240.667 178.806 240.667C179.353 240.667 179.794 240.492 180.129 240.141C180.464 239.789 180.631 239.32 180.631 238.732V235.253H181.624V241.415H180.656V240.079L180.803 240.006C180.64 240.496 180.362 240.867 179.97 241.121C179.586 241.374 179.145 241.5 178.647 241.5ZM183.537 241.415V232.399H184.529V241.415H183.537Z" fill="#BDBDBF"/>
<path d="M220.507 241.513C220.058 241.513 219.638 241.476 219.246 241.402C218.854 241.321 218.49 241.198 218.155 241.035C217.821 240.863 217.518 240.655 217.249 240.41L217.629 239.638C218.07 240.006 218.511 240.267 218.952 240.422C219.401 240.577 219.923 240.655 220.52 240.655C221.214 240.655 221.753 240.52 222.137 240.251C222.52 239.973 222.712 239.585 222.712 239.087C222.712 238.785 222.614 238.544 222.418 238.364C222.231 238.176 221.969 238.029 221.634 237.923C221.308 237.809 220.936 237.703 220.52 237.605C220.103 237.515 219.707 237.413 219.331 237.299C218.956 237.176 218.621 237.025 218.327 236.845C218.041 236.666 217.816 236.437 217.653 236.159C217.49 235.882 217.408 235.535 217.408 235.118C217.408 234.62 217.539 234.183 217.8 233.807C218.061 233.423 218.429 233.125 218.903 232.913C219.376 232.701 219.936 232.595 220.581 232.595C220.981 232.595 221.365 232.639 221.732 232.729C222.1 232.811 222.439 232.933 222.749 233.097C223.068 233.26 223.349 233.46 223.594 233.697L223.202 234.469C222.802 234.118 222.39 233.86 221.965 233.697C221.54 233.534 221.079 233.452 220.581 233.452C219.903 233.452 219.372 233.595 218.988 233.881C218.605 234.167 218.413 234.567 218.413 235.081C218.413 235.4 218.498 235.657 218.67 235.853C218.841 236.049 219.082 236.208 219.393 236.331C219.703 236.445 220.058 236.551 220.458 236.649C220.883 236.747 221.291 236.853 221.683 236.968C222.075 237.082 222.422 237.225 222.725 237.397C223.035 237.56 223.28 237.776 223.46 238.046C223.639 238.307 223.729 238.642 223.729 239.05C223.729 239.548 223.598 239.981 223.337 240.349C223.076 240.716 222.704 241.002 222.222 241.206C221.741 241.41 221.169 241.513 220.507 241.513ZM230.296 240.68C230.026 240.933 229.679 241.133 229.254 241.28C228.838 241.427 228.409 241.5 227.968 241.5C227.331 241.5 226.78 241.374 226.314 241.121C225.857 240.867 225.502 240.504 225.249 240.03C225.004 239.548 224.881 238.977 224.881 238.315C224.881 237.678 225.004 237.119 225.249 236.637C225.494 236.155 225.833 235.78 226.265 235.51C226.706 235.241 227.213 235.106 227.784 235.106C228.332 235.106 228.801 235.228 229.193 235.473C229.585 235.71 229.883 236.053 230.087 236.502C230.3 236.951 230.406 237.49 230.406 238.119V238.303H225.751V237.654H229.842L229.524 238.107C229.54 237.388 229.397 236.837 229.095 236.453C228.801 236.069 228.368 235.878 227.797 235.878C227.201 235.878 226.731 236.09 226.388 236.515C226.053 236.931 225.886 237.511 225.886 238.254C225.886 239.054 226.061 239.659 226.412 240.067C226.772 240.475 227.294 240.68 227.98 240.68C228.34 240.68 228.683 240.622 229.009 240.508C229.344 240.386 229.663 240.202 229.965 239.957L230.296 240.68ZM231.912 244.061V236.98C231.912 236.694 231.904 236.408 231.888 236.123C231.879 235.829 231.855 235.539 231.814 235.253H232.757L232.868 236.527L232.77 236.711C232.908 236.196 233.174 235.8 233.566 235.522C233.958 235.245 234.431 235.106 234.987 235.106C235.526 235.106 235.999 235.241 236.408 235.51C236.824 235.78 237.147 236.155 237.376 236.637C237.612 237.119 237.731 237.682 237.731 238.328C237.731 238.973 237.612 239.536 237.376 240.018C237.147 240.492 236.828 240.859 236.42 241.121C236.012 241.374 235.534 241.5 234.987 241.5C234.431 241.5 233.958 241.361 233.566 241.084C233.174 240.806 232.908 240.41 232.77 239.896L232.904 239.773V244.061H231.912ZM234.803 240.68C235.399 240.68 235.865 240.475 236.2 240.067C236.534 239.659 236.702 239.079 236.702 238.328C236.702 237.576 236.534 236.992 236.2 236.576C235.865 236.151 235.399 235.939 234.803 235.939C234.191 235.939 233.721 236.143 233.394 236.551C233.068 236.96 232.904 237.544 232.904 238.303C232.904 239.063 233.068 239.651 233.394 240.067C233.721 240.475 234.191 240.68 234.803 240.68Z" fill="#BDBDBF"/>
<path d="M270.596 241.415V232.693H271.367L276.929 240.104L276.635 240.177V232.693H277.59V241.415H276.806L271.257 234.016L271.539 233.93V241.415H270.596ZM282.161 241.5C281.573 241.5 281.058 241.37 280.617 241.108C280.184 240.847 279.845 240.479 279.6 240.006C279.364 239.524 279.245 238.956 279.245 238.303C279.245 237.658 279.364 237.094 279.6 236.613C279.845 236.131 280.184 235.759 280.617 235.498C281.058 235.236 281.573 235.106 282.161 235.106C282.749 235.106 283.259 235.236 283.692 235.498C284.133 235.759 284.472 236.131 284.709 236.613C284.954 237.094 285.076 237.658 285.076 238.303C285.076 238.956 284.954 239.524 284.709 240.006C284.472 240.479 284.133 240.847 283.692 241.108C283.259 241.37 282.749 241.5 282.161 241.5ZM282.161 240.68C282.765 240.68 283.231 240.479 283.557 240.079C283.892 239.671 284.059 239.079 284.059 238.303C284.059 237.544 283.892 236.96 283.557 236.551C283.222 236.143 282.757 235.939 282.161 235.939C281.565 235.939 281.095 236.143 280.752 236.551C280.417 236.96 280.25 237.544 280.25 238.303C280.25 239.079 280.413 239.671 280.74 240.079C281.075 240.479 281.548 240.68 282.161 240.68ZM288.364 241.415L285.743 235.265H286.784L289.013 240.692H288.719L290.973 235.265H291.966L289.307 241.415H288.364Z" fill="#BDBDBF"/>
<path d="M324.116 241.415V232.693H327.044C327.975 232.693 328.767 232.864 329.42 233.207C330.074 233.542 330.572 234.036 330.915 234.689C331.258 235.334 331.429 236.118 331.429 237.041C331.429 237.972 331.254 238.764 330.903 239.418C330.56 240.063 330.061 240.557 329.408 240.9C328.755 241.243 327.967 241.415 327.044 241.415H324.116ZM325.121 240.557H326.983C328.11 240.557 328.955 240.263 329.518 239.675C330.09 239.087 330.376 238.209 330.376 237.041C330.376 234.714 329.245 233.55 326.983 233.55H325.121V240.557ZM338.18 240.68C337.911 240.933 337.564 241.133 337.139 241.28C336.722 241.427 336.294 241.5 335.853 241.5C335.216 241.5 334.664 241.374 334.199 241.121C333.742 240.867 333.386 240.504 333.133 240.03C332.888 239.548 332.766 238.977 332.766 238.315C332.766 237.678 332.888 237.119 333.133 236.637C333.378 236.155 333.717 235.78 334.15 235.51C334.591 235.241 335.097 235.106 335.669 235.106C336.216 235.106 336.686 235.228 337.078 235.473C337.47 235.71 337.768 236.053 337.972 236.502C338.184 236.951 338.29 237.49 338.29 238.119V238.303H333.635V237.654H337.727L337.408 238.107C337.425 237.388 337.282 236.837 336.98 236.453C336.686 236.069 336.253 235.878 335.681 235.878C335.085 235.878 334.615 236.09 334.272 236.515C333.938 236.931 333.77 237.511 333.77 238.254C333.77 239.054 333.946 239.659 334.297 240.067C334.656 240.475 335.179 240.68 335.865 240.68C336.224 240.68 336.567 240.622 336.894 240.508C337.229 240.386 337.547 240.202 337.849 239.957L338.18 240.68ZM342.381 241.5C341.777 241.5 341.254 241.37 340.813 241.108C340.372 240.847 340.029 240.479 339.784 240.006C339.547 239.532 339.429 238.973 339.429 238.328C339.429 237.691 339.552 237.131 339.797 236.649C340.042 236.159 340.389 235.78 340.838 235.51C341.287 235.241 341.818 235.106 342.43 235.106C342.847 235.106 343.247 235.179 343.631 235.326C344.023 235.465 344.345 235.661 344.599 235.914L344.268 236.649C343.966 236.412 343.668 236.237 343.374 236.123C343.088 236 342.79 235.939 342.479 235.939C341.859 235.939 341.365 236.147 340.997 236.564C340.638 236.98 340.458 237.568 340.458 238.328C340.458 239.079 340.638 239.659 340.997 240.067C341.356 240.475 341.85 240.68 342.479 240.68C342.781 240.68 343.08 240.622 343.374 240.508C343.668 240.386 343.966 240.206 344.268 239.969L344.599 240.704C344.337 240.949 344.006 241.145 343.606 241.292C343.214 241.431 342.806 241.5 342.381 241.5Z" fill="#BDBDBF"/>
<g clip-path="url(#clip0_20_7226)">
<g clip-path="url(#clip1_20_7226)">
<path d="M13.1348 72.2479C13.1348 68.8651 15.877 66.1229 19.2598 66.1229H23.3431C26.7258 66.1229 29.4681 68.8651 29.4681 72.2479V219.123H13.1348V72.2479Z" fill="#0197E2"/>
<path d="M13.1348 116.873C13.1348 113.49 15.877 110.748 19.2598 110.748H23.3431C26.7258 110.748 29.4681 113.49 29.4681 116.873V219.123H13.1348V116.873Z" fill="#0088CC"/>
<path d="M13.1348 167.873C13.1348 164.49 15.877 161.748 19.2598 161.748H23.3431C26.7258 161.748 29.4681 164.49 29.4681 167.873V219.123H13.1348V167.873Z" fill="#076C9F"/>
<path d="M41.6045 39.5812C41.6045 36.1985 44.3467 33.4562 47.7295 33.4562H51.8128C55.1956 33.4562 57.9378 36.1985 57.9378 39.5812V219.123H41.6045V39.5812Z" fill="#0197E2"/>
<path d="M41.6045 93.734C41.6045 90.3512 44.3467 87.609 47.7295 87.609H51.8128C55.1956 87.609 57.9378 90.3512 57.9378 93.734V219.123H41.6045V93.734Z" fill="#0088CC"/>
<path d="M41.6045 155.623C41.6045 152.24 44.3467 149.498 47.7295 149.498H51.8128C55.1956 149.498 57.9378 152.24 57.9378 155.623V219.123H41.6045V155.623Z" fill="#076C9F"/>
<path d="M70.0742 104.915C70.0742 101.532 72.8165 98.7895 76.1992 98.7895H80.2826C83.6653 98.7895 86.4076 101.532 86.4076 104.915V219.123H70.0742V104.915Z" fill="#0197E2"/>
<path d="M70.0742 140.012C70.0742 136.629 72.8165 133.887 76.1992 133.887H80.2826C83.6653 133.887 86.4076 136.629 86.4076 140.012V219.123H70.0742V140.012Z" fill="#0088CC"/>
<path d="M70.0742 180.123C70.0742 176.74 72.8165 173.998 76.1992 173.998H80.2826C83.6653 173.998 86.4076 176.74 86.4076 180.123V219.123H70.0742V180.123Z" fill="#076C9F"/>
<path d="M98.5439 64.0812C98.5439 60.6985 101.286 57.9562 104.669 57.9562H108.752C112.135 57.9562 114.877 60.6985 114.877 64.0812V219.123H98.5439V64.0812Z" fill="#0197E2"/>
<path d="M98.5439 111.088C98.5439 107.705 101.286 104.963 104.669 104.963H108.752C112.135 104.963 114.877 107.705 114.877 111.088V219.123H98.5439V111.088Z" fill="#0088CC"/>
<path d="M98.5439 164.81C98.5439 161.428 101.286 158.685 104.669 158.685H108.752C112.135 158.685 114.877 161.428 114.877 164.81V219.123H98.5439V164.81Z" fill="#076C9F"/>
<path d="M127.014 104.915C127.014 101.532 129.756 98.7895 133.139 98.7895H137.222C140.605 98.7895 143.347 101.532 143.347 104.915V219.123H127.014V104.915Z" fill="#0197E2"/>
<path d="M127.014 140.012C127.014 136.629 129.756 133.887 133.139 133.887H137.222C140.605 133.887 143.347 136.629 143.347 140.012V219.123H127.014V140.012Z" fill="#0088CC"/>
<path d="M127.014 180.123C127.014 176.74 129.756 173.998 133.139 173.998H137.222C140.605 173.998 143.347 176.74 143.347 180.123V219.123H127.014V180.123Z" fill="#076C9F"/>
<path d="M155.483 47.7479C155.483 44.3651 158.226 41.6229 161.608 41.6229H165.692C169.074 41.6229 171.817 44.3651 171.817 47.7479V219.123H155.483V47.7479Z" fill="#0197E2"/>
<path d="M155.483 99.5187C155.483 96.136 158.226 93.3937 161.608 93.3937H165.692C169.074 93.3937 171.817 96.136 171.817 99.5187V219.123H155.483V99.5187Z" fill="#0088CC"/>
<path d="M155.483 158.685C155.483 155.303 158.226 152.56 161.608 152.56H165.692C169.074 152.56 171.817 155.303 171.817 158.685V219.123H155.483V158.685Z" fill="#076C9F"/>
<path d="M183.953 72.2479C183.953 68.8651 186.695 66.1229 190.078 66.1229H194.161C197.544 66.1229 200.286 68.8651 200.286 72.2479V219.123H183.953V72.2479Z" fill="#0197E2"/>
<path d="M183.953 116.873C183.953 113.49 186.695 110.748 190.078 110.748H194.161C197.544 110.748 200.286 113.49 200.286 116.873V219.123H183.953V116.873Z" fill="#0088CC"/>
<path d="M183.953 167.873C183.953 164.49 186.695 161.748 190.078 161.748H194.161C197.544 161.748 200.286 164.49 200.286 167.873V219.123H183.953V167.873Z" fill="#076C9F"/>
<path d="M212.423 64.0812C212.423 60.6985 215.165 57.9562 218.548 57.9562H222.631C226.014 57.9562 228.756 60.6985 228.756 64.0812V219.123H212.423V64.0812Z" fill="#0197E2"/>
<path d="M212.423 111.088C212.423 107.705 215.165 104.963 218.548 104.963H222.631C226.014 104.963 228.756 107.705 228.756 111.088V219.123H212.423V111.088Z" fill="#0088CC"/>
<path d="M212.423 164.81C212.423 161.428 215.165 158.685 218.548 158.685H222.631C226.014 158.685 228.756 161.428 228.756 164.81V219.123H212.423V164.81Z" fill="#076C9F"/>
<path d="M240.893 72.2479C240.893 68.8651 243.635 66.1229 247.018 66.1229H251.101C254.484 66.1229 257.226 68.8651 257.226 72.2479V219.123H240.893V72.2479Z" fill="#0197E2"/>
<path d="M240.893 116.873C240.893 113.49 243.635 110.748 247.018 110.748H251.101C254.484 110.748 257.226 113.49 257.226 116.873V219.123H240.893V116.873Z" fill="#0088CC"/>
<path d="M240.893 167.873C240.893 164.49 243.635 161.748 247.018 161.748H251.101C254.484 161.748 257.226 164.49 257.226 167.873V219.123H240.893V167.873Z" fill="#076C9F"/>
<path d="M269.362 55.9145C269.362 52.5318 272.105 49.7895 275.487 49.7895H279.571C282.953 49.7895 285.696 52.5318 285.696 55.9145V219.123H269.362V55.9145Z" fill="#0197E2"/>
<path d="M269.362 105.303C269.362 101.921 272.105 99.1784 275.487 99.1784H279.571C282.953 99.1784 285.696 101.921 285.696 105.303V219.123H269.362V105.303Z" fill="#0088CC"/>
<path d="M269.362 161.748C269.362 158.365 272.105 155.623 275.487 155.623H279.571C282.953 155.623 285.696 158.365 285.696 161.748V219.123H269.362V161.748Z" fill="#076C9F"/>
<path d="M297.832 39.5812C297.832 36.1985 300.574 33.4562 303.957 33.4562H308.04C311.423 33.4562 314.165 36.1985 314.165 39.5812V219.123H297.832V39.5812Z" fill="#0197E2"/>
<path d="M297.832 93.734C297.832 90.3512 300.574 87.609 303.957 87.609H308.04C311.423 87.609 314.165 90.3512 314.165 93.734V219.123H297.832V93.734Z" fill="#0088CC"/>
<path d="M297.832 155.623C297.832 152.24 300.574 149.498 303.957 149.498H308.04C311.423 149.498 314.165 152.24 314.165 155.623V219.123H297.832V155.623Z" fill="#076C9F"/>
<path d="M326.302 80.4145C326.302 77.0318 329.044 74.2895 332.427 74.2895H336.51C339.893 74.2895 342.635 77.0318 342.635 80.4145V219.123H326.302V80.4145Z" fill="#0197E2"/>
<path d="M326.302 122.658C326.302 119.275 329.044 116.533 332.427 116.533H336.51C339.893 116.533 342.635 119.275 342.635 122.658V219.123H326.302V122.658Z" fill="#0088CC"/>
<path d="M326.302 170.935C326.302 167.553 329.044 164.81 332.427 164.81H336.51C339.893 164.81 342.635 167.553 342.635 170.935V219.123H326.302V170.935Z" fill="#076C9F"/>
</g>
</g>
<path d="M114.678 130V116.421H119.237C120.686 116.421 121.919 116.688 122.937 117.222C123.954 117.743 124.729 118.512 125.263 119.529C125.797 120.534 126.064 121.754 126.064 123.191C126.064 124.641 125.791 125.874 125.244 126.891C124.71 127.896 123.935 128.665 122.918 129.199C121.9 129.733 120.673 130 119.237 130H114.678ZM116.242 128.665H119.141C120.896 128.665 122.212 128.207 123.089 127.292C123.979 126.376 124.424 125.009 124.424 123.191C124.424 119.567 122.663 117.756 119.141 117.756H116.242V128.665ZM128.908 130V116.421H137.491V117.717H130.453V122.447H137.109V123.763H130.453V128.703H137.491V130H128.908ZM140.12 130V116.421H141.417L146.929 128.951H146.204L151.659 116.421H152.956V130H151.507V118.48L152.098 118.557L147.101 130H145.995L140.921 118.557L141.551 118.48L141.57 130H140.12ZM161.989 130.153C160.718 130.153 159.618 129.873 158.69 129.313C157.774 128.754 157.062 127.953 156.554 126.91C156.058 125.868 155.81 124.634 155.81 123.21C155.81 121.774 156.058 120.54 156.554 119.51C157.05 118.468 157.755 117.667 158.671 117.107C159.599 116.548 160.705 116.268 161.989 116.268C163.261 116.268 164.361 116.548 165.289 117.107C166.217 117.667 166.929 118.468 167.425 119.51C167.921 120.54 168.169 121.767 168.169 123.191C168.169 124.628 167.914 125.868 167.406 126.91C166.91 127.953 166.198 128.754 165.27 129.313C164.354 129.873 163.261 130.153 161.989 130.153ZM161.989 128.818C163.426 128.818 164.545 128.334 165.346 127.368C166.147 126.389 166.548 124.997 166.548 123.191C166.548 121.386 166.147 120.006 165.346 119.053C164.545 118.086 163.426 117.603 161.989 117.603C160.553 117.603 159.427 118.086 158.614 119.053C157.812 120.019 157.412 121.398 157.412 123.191C157.412 124.984 157.812 126.37 158.614 127.349C159.427 128.328 160.553 128.818 161.989 128.818ZM182.019 130.153C180.659 130.153 179.489 129.879 178.51 129.332C177.543 128.773 176.8 127.978 176.278 126.948C175.77 125.906 175.515 124.653 175.515 123.191C175.515 121.742 175.77 120.502 176.278 119.472C176.8 118.43 177.537 117.635 178.491 117.088C179.457 116.541 180.595 116.268 181.905 116.268C182.845 116.268 183.71 116.414 184.498 116.707C185.299 116.986 185.992 117.412 186.577 117.984L185.967 119.186C185.306 118.627 184.657 118.226 184.022 117.984C183.386 117.73 182.68 117.603 181.905 117.603C180.366 117.603 179.184 118.086 178.357 119.053C177.543 120.006 177.137 121.386 177.137 123.191C177.137 125.035 177.556 126.44 178.395 127.406C179.234 128.36 180.455 128.837 182.057 128.837C182.718 128.837 183.36 128.779 183.983 128.665C184.619 128.538 185.191 128.373 185.7 128.169L185.319 128.97V124.164H181.943V122.924H186.749V129.218C186.393 129.409 185.954 129.574 185.433 129.714C184.924 129.854 184.371 129.962 183.774 130.038C183.189 130.114 182.604 130.153 182.019 130.153ZM189.962 130V116.421H195.359C196.821 116.421 197.94 116.745 198.716 117.393C199.504 118.042 199.898 118.976 199.898 120.197C199.898 121.367 199.498 122.288 198.697 122.962C197.908 123.624 196.796 123.954 195.359 123.954L196.77 123.687C197.266 123.687 197.692 123.827 198.048 124.107C198.404 124.374 198.69 124.806 198.906 125.404L200.623 130H198.964L197.285 125.48C197.069 124.908 196.77 124.533 196.389 124.355C196.02 124.164 195.524 124.069 194.901 124.069H191.506V130H189.962ZM191.506 122.772H195.225C196.281 122.772 197.063 122.555 197.571 122.123C198.093 121.691 198.353 121.055 198.353 120.216C198.353 119.377 198.099 118.754 197.59 118.347C197.082 117.927 196.294 117.717 195.225 117.717H191.506V122.772ZM203.36 130H201.739L207.708 116.421H209.081L215.051 130H213.449L208.128 117.565H208.7L203.36 130ZM204.275 126.51L204.828 125.213H211.961L212.514 126.51H204.275ZM217.08 130V116.421H222.496C223.895 116.421 224.982 116.758 225.758 117.431C226.546 118.105 226.94 119.033 226.94 120.216C226.94 121.386 226.546 122.314 225.758 123C224.969 123.687 223.882 124.03 222.496 124.03H218.644V130H217.08ZM218.644 122.733H222.363C223.367 122.733 224.124 122.517 224.633 122.085C225.141 121.64 225.395 121.017 225.395 120.216C225.395 119.415 225.141 118.798 224.633 118.366C224.124 117.934 223.367 117.717 222.363 117.717H218.644V122.733ZM239.192 130V116.421H240.756V130H239.192ZM229.503 130V116.421H231.048V130H229.503ZM230.228 123.763V122.447H240.069V123.763H230.228Z" fill="#2A2A2F"/>
<defs>
<clipPath id="clip0_20_7226">
<rect width="354.229" height="202.125" fill="white" transform="translate(0.884766 17.1229)"/>
</clipPath>
<clipPath id="clip1_20_7226">
<rect width="354" height="202.125" fill="white" transform="translate(0.884766 17.1229)"/>
</clipPath>
</defs>
</svg>
