<svg width="156" height="111" viewBox="0 0 156 111" fill="none" xmlns="http://www.w3.org/2000/svg">
<path d="M93.444 44.3736V48.4056H61.956V44.3736H93.444ZM75.716 30.6135H79.684V62.1656H75.716V30.6135Z" fill="#BDBDBF"/>
<path d="M3.12 104.79H0L7.728 87.7016H10.248L17.976 104.79H14.904L8.616 90.1015H9.456L3.12 104.79ZM3.408 100.782L4.584 98.3816H13.296L14.424 100.782H3.408ZM31.2006 104.79H28.2486V101.718L28.5366 102.15C28.2646 103.046 27.7446 103.742 26.9766 104.238C26.2246 104.718 25.3366 104.958 24.3126 104.958C23.2566 104.958 22.3206 104.702 21.5046 104.19C20.7046 103.662 20.0806 102.918 19.6326 101.958C19.1846 100.998 18.9606 99.8856 18.9606 98.6216C18.9606 97.3576 19.1766 96.2536 19.6086 95.3096C20.0566 94.3656 20.6886 93.6376 21.5046 93.1256C22.3206 92.6136 23.2566 92.3576 24.3126 92.3576C25.3366 92.3576 26.2246 92.6136 26.9766 93.1256C27.7446 93.6376 28.2646 94.3256 28.5366 95.1896L28.2006 95.5496V87.1255H31.2006V104.79ZM25.1286 102.654C26.1206 102.654 26.8886 102.31 27.4326 101.622C27.9766 100.934 28.2486 99.9496 28.2486 98.6696C28.2486 97.4056 27.9766 96.4296 27.4326 95.7416C26.8886 95.0536 26.1206 94.7096 25.1286 94.7096C24.1206 94.7096 23.3366 95.0536 22.7766 95.7416C22.2166 96.4136 21.9366 97.3736 21.9366 98.6216C21.9366 99.9016 22.2166 100.894 22.7766 101.598C23.3366 102.302 24.1206 102.654 25.1286 102.654ZM46.0599 104.79H43.1079V101.718L43.3959 102.15C43.1239 103.046 42.6039 103.742 41.8359 104.238C41.0839 104.718 40.1959 104.958 39.1719 104.958C38.1159 104.958 37.1799 104.702 36.3639 104.19C35.5639 103.662 34.9399 102.918 34.4919 101.958C34.0439 100.998 33.8199 99.8856 33.8199 98.6216C33.8199 97.3576 34.0359 96.2536 34.4679 95.3096C34.9159 94.3656 35.5479 93.6376 36.3639 93.1256C37.1799 92.6136 38.1159 92.3576 39.1719 92.3576C40.1959 92.3576 41.0839 92.6136 41.8359 93.1256C42.6039 93.6376 43.1239 94.3256 43.3959 95.1896L43.0599 95.5496V87.1255H46.0599V104.79ZM39.9879 102.654C40.9799 102.654 41.7479 102.31 42.2919 101.622C42.8359 100.934 43.1079 99.9496 43.1079 98.6696C43.1079 97.4056 42.8359 96.4296 42.2919 95.7416C41.7479 95.0536 40.9799 94.7096 39.9879 94.7096C38.9799 94.7096 38.1959 95.0536 37.6359 95.7416C37.0759 96.4136 36.7959 97.3736 36.7959 98.6216C36.7959 99.9016 37.0759 100.894 37.6359 101.598C38.1959 102.302 38.9799 102.654 39.9879 102.654ZM60.6172 104.958C59.5613 104.958 58.6253 104.71 57.8092 104.214C56.9933 103.702 56.3613 102.982 55.9133 102.054C55.4813 101.11 55.2653 100.006 55.2653 98.7416C55.2653 97.4616 55.4893 96.3496 55.9373 95.4056C56.3853 94.4455 57.0093 93.7016 57.8092 93.1736C58.6253 92.6296 59.5613 92.3576 60.6172 92.3576C61.6413 92.3576 62.5293 92.6136 63.2813 93.1256C64.0493 93.6216 64.5693 94.3176 64.8413 95.2136L64.5533 95.3816V92.6696H67.5052V104.79H64.5533V102.054L64.8413 102.15C64.5693 103.046 64.0493 103.742 63.2813 104.238C62.5293 104.718 61.6413 104.958 60.6172 104.958ZM61.4333 102.654C62.4253 102.654 63.1933 102.31 63.7373 101.622C64.2813 100.934 64.5533 99.9576 64.5533 98.6936C64.5533 97.3976 64.2813 96.4136 63.7373 95.7416C63.1933 95.0536 62.4253 94.7096 61.4333 94.7096C60.4253 94.7096 59.6413 95.0616 59.0813 95.7656C58.5213 96.4696 58.2413 97.4616 58.2413 98.7416C58.2413 99.9896 58.5213 100.958 59.0813 101.646C59.6413 102.318 60.4253 102.654 61.4333 102.654ZM80.7186 104.79L75.9666 92.6696H79.0626L82.4706 102.054H81.8706L85.3026 92.6696H87.4866L90.8946 102.054H90.3426L93.7506 92.6696H96.6546L91.9026 104.79H89.2866L85.5906 95.0216H86.9586L83.3346 104.79H80.7186ZM98.5221 104.79V92.6696H101.522V104.79H98.5221ZM98.3781 87.1736H101.714V90.1256H98.3781V87.1736ZM116.372 104.79H113.42V101.718L113.708 102.15C113.436 103.046 112.916 103.742 112.148 104.238C111.396 104.718 110.508 104.958 109.484 104.958C108.428 104.958 107.492 104.702 106.676 104.19C105.876 103.662 105.252 102.918 104.804 101.958C104.356 100.998 104.132 99.8856 104.132 98.6216C104.132 97.3576 104.348 96.2536 104.78 95.3096C105.228 94.3656 105.86 93.6376 106.676 93.1256C107.492 92.6136 108.428 92.3576 109.484 92.3576C110.508 92.3576 111.396 92.6136 112.148 93.1256C112.916 93.6376 113.436 94.3256 113.708 95.1896L113.372 95.5496V87.1255H116.372V104.79ZM110.3 102.654C111.292 102.654 112.06 102.31 112.604 101.622C113.148 100.934 113.42 99.9496 113.42 98.6696C113.42 97.4056 113.148 96.4296 112.604 95.7416C112.06 95.0536 111.292 94.7096 110.3 94.7096C109.292 94.7096 108.508 95.0536 107.948 95.7416C107.388 96.4136 107.108 97.3736 107.108 98.6216C107.108 99.9016 107.388 100.894 107.948 101.598C108.508 102.302 109.292 102.654 110.3 102.654ZM125.184 110.142C123.312 110.142 121.672 109.758 120.264 108.99L120.744 106.71C121.48 107.094 122.2 107.374 122.904 107.55C123.624 107.742 124.368 107.838 125.136 107.838C126.208 107.838 127.016 107.574 127.56 107.046C128.104 106.518 128.376 105.718 128.376 104.646V101.646H128.664C128.472 102.158 128.168 102.63 127.752 103.062C127.352 103.478 126.864 103.814 126.288 104.07C125.712 104.31 125.08 104.43 124.392 104.43C123.336 104.43 122.4 104.182 121.584 103.686C120.768 103.19 120.128 102.494 119.664 101.598C119.216 100.686 118.992 99.6216 118.992 98.4056C118.992 97.1896 119.216 96.1336 119.664 95.2376C120.128 94.3256 120.768 93.6216 121.584 93.1256C122.4 92.6136 123.336 92.3576 124.392 92.3576C125.432 92.3576 126.336 92.6136 127.104 93.1256C127.872 93.6376 128.392 94.3256 128.664 95.1896L128.376 95.2376V92.6696H131.352V104.406C131.352 106.294 130.832 107.718 129.792 108.678C128.752 109.654 127.216 110.142 125.184 110.142ZM125.208 102.102C126.2 102.102 126.976 101.774 127.536 101.118C128.096 100.462 128.376 99.5576 128.376 98.4056C128.376 97.2536 128.096 96.3496 127.536 95.6936C126.976 95.0376 126.2 94.7096 125.208 94.7096C124.2 94.7096 123.408 95.0376 122.832 95.6936C122.256 96.3496 121.968 97.2536 121.968 98.4056C121.968 99.5576 122.256 100.462 122.832 101.118C123.408 101.774 124.2 102.102 125.208 102.102ZM144.985 103.446C144.409 103.926 143.697 104.302 142.849 104.574C142.017 104.83 141.169 104.958 140.305 104.958C138.993 104.958 137.857 104.71 136.897 104.214C135.953 103.718 135.225 102.998 134.713 102.054C134.201 101.11 133.945 99.9896 133.945 98.6936C133.945 97.4456 134.193 96.3496 134.689 95.4056C135.185 94.4455 135.873 93.7016 136.753 93.1736C137.633 92.6296 138.649 92.3576 139.801 92.3576C140.921 92.3576 141.881 92.6056 142.681 93.1016C143.481 93.5816 144.097 94.2776 144.529 95.1896C144.977 96.1016 145.201 97.1816 145.201 98.4296V98.8856H136.585L136.609 97.2776H143.425L142.609 98.0936C142.625 96.9256 142.393 96.0376 141.913 95.4296C141.449 94.8216 140.769 94.5175 139.873 94.5175C138.913 94.5175 138.169 94.8616 137.641 95.5496C137.113 96.2216 136.849 97.1896 136.849 98.4536C136.849 99.8936 137.145 100.958 137.737 101.646C138.329 102.318 139.225 102.654 140.425 102.654C141.081 102.654 141.721 102.55 142.345 102.342C142.985 102.118 143.577 101.798 144.121 101.382L144.985 103.446ZM146.065 94.9256V92.6696H154.609V94.9256H146.065ZM154.609 102.294V104.67C154.289 104.782 153.969 104.854 153.649 104.886C153.345 104.934 153.017 104.958 152.665 104.958C151.305 104.958 150.249 104.574 149.497 103.806C148.761 103.038 148.393 101.934 148.393 100.494V89.7176L151.393 88.7096V100.35C151.393 100.894 151.481 101.326 151.657 101.646C151.833 101.95 152.065 102.166 152.353 102.294C152.657 102.422 152.993 102.486 153.361 102.486C153.569 102.486 153.769 102.47 153.961 102.438C154.153 102.406 154.369 102.358 154.609 102.294Z" fill="#BDBDBF"/>
</svg>
