<svg width="26" height="26" viewBox="0 0 26 26" fill="none" xmlns="http://www.w3.org/2000/svg">
<g opacity="0.5">
<path d="M22.1875 25H9.4375C7.88652 25 6.625 23.7385 6.625 22.1875V9.4375C6.625 7.88652 7.88652 6.625 9.4375 6.625H22.1875C23.7385 6.625 25 7.88652 25 9.4375V22.1875C25 23.7385 23.7385 25 22.1875 25ZM9.4375 8.5C8.92056 8.5 8.5 8.92056 8.5 9.4375V22.1875C8.5 22.7044 8.92056 23.125 9.4375 23.125H22.1875C22.7044 23.125 23.125 22.7044 23.125 22.1875V9.4375C23.125 8.92056 22.7044 8.5 22.1875 8.5H9.4375ZM4.75 17.5H3.8125C3.29556 17.5 2.875 17.0794 2.875 16.5625V3.8125C2.875 3.29556 3.29556 2.875 3.8125 2.875H16.5625C17.0794 2.875 17.5 3.29556 17.5 3.8125V4.70313H19.375V3.8125C19.375 2.26152 18.1135 1 16.5625 1H3.8125C2.26152 1 1 2.26152 1 3.8125V16.5625C1 18.1135 2.26152 19.375 3.8125 19.375H4.75V17.5Z" fill="#232328" stroke="#232328" stroke-width="0.7"/>
</g>
</svg>
