<svg width="529" height="471" viewBox="0 0 529 471" fill="none" xmlns="http://www.w3.org/2000/svg">
<g filter="url(#filter0_d_114_2017)">
<rect x="44.0426" y="103.39" width="436.711" height="162.239" rx="34.5528" transform="rotate(-7.39348 44.0426 103.39)" fill="white" shape-rendering="crispEdges"/>
<path d="M86.8797 147.278L84.5053 128.98L91.8553 128.026C93.7056 127.786 95.2078 128.018 96.3618 128.722C97.5136 129.409 98.1885 130.514 98.3863 132.039C98.5242 133.101 98.3496 134.039 97.8627 134.851C97.3907 135.644 96.6693 136.26 95.6985 136.7L95.6718 136.494C96.8486 136.568 97.8136 136.957 98.5669 137.66C99.3203 138.364 99.7747 139.315 99.9303 140.515C100.139 142.125 99.7683 143.428 98.8172 144.422C97.8661 145.417 96.4226 146.039 94.4866 146.291L86.8797 147.278ZM88.7345 145.26L94.0799 144.566C95.5191 144.38 96.5383 143.977 97.1376 143.36C97.7539 142.74 97.9888 141.864 97.842 140.733C97.6975 139.62 97.246 138.825 96.4873 138.348C95.7286 137.872 94.6383 137.726 93.2162 137.91L87.8708 138.604L88.7345 145.26ZM87.6407 136.831L92.575 136.19C93.9627 136.01 94.9637 135.602 95.5778 134.965C96.2091 134.325 96.4559 133.474 96.318 132.412C96.1824 131.367 95.7386 130.632 94.9866 130.207C94.2324 129.765 93.1528 129.635 91.7479 129.817L86.8137 130.457L87.6407 136.831ZM109.098 144.578C107.951 144.726 106.905 144.592 105.963 144.174C105.035 143.737 104.267 143.053 103.658 142.122C103.064 141.171 102.679 140.019 102.504 138.665C102.328 137.312 102.415 136.098 102.763 135.025C103.112 133.952 103.678 133.077 104.461 132.401C105.261 131.722 106.227 131.309 107.358 131.163C108.54 131.009 109.58 131.17 110.478 131.646C111.376 132.122 112.04 132.881 112.472 133.922L112.19 134.168L111.767 130.904L113.822 130.637L115.5 143.564L113.444 143.831L113.01 140.49L113.339 140.604C113.188 141.721 112.739 142.624 111.992 143.314C111.245 144.003 110.281 144.424 109.098 144.578ZM109.286 142.802C110.554 142.638 111.475 142.083 112.049 141.137C112.621 140.174 112.804 138.896 112.597 137.303C112.39 135.71 111.88 134.53 111.066 133.765C110.27 132.997 109.246 132.694 107.996 132.857C106.728 133.021 105.792 133.596 105.188 134.58C104.599 135.545 104.407 136.815 104.611 138.392C104.816 139.968 105.325 141.139 106.138 141.904C106.969 142.667 108.018 142.967 109.286 142.802ZM119.525 143.042L117.07 124.127L119.152 123.857L121.606 142.772L119.525 143.042ZM130.631 141.783C129.484 141.932 128.438 141.798 127.496 141.38C126.568 140.943 125.8 140.259 125.191 139.327C124.597 138.377 124.212 137.224 124.037 135.871C123.861 134.517 123.948 133.304 124.296 132.231C124.645 131.158 125.211 130.283 125.994 129.607C126.794 128.928 127.76 128.515 128.891 128.368C130.073 128.215 131.113 128.376 132.011 128.852C132.909 129.328 133.573 130.086 134.005 131.128L133.723 131.374L133.3 128.11L135.356 127.843L137.033 140.77L134.977 141.037L134.543 137.696L134.872 137.81C134.721 138.927 134.272 139.83 133.525 140.519C132.778 141.209 131.814 141.63 130.631 141.783ZM130.819 140.008C132.087 139.844 133.008 139.289 133.582 138.343C134.154 137.38 134.337 136.102 134.13 134.509C133.923 132.916 133.413 131.736 132.599 130.971C131.803 130.203 130.779 129.9 129.529 130.063C128.261 130.227 127.325 130.801 126.721 131.786C126.132 132.751 125.94 134.021 126.144 135.597C126.349 137.174 126.858 138.345 127.671 139.11C128.502 139.873 129.551 140.173 130.819 140.008ZM141.058 140.248L139.85 130.944C139.773 130.345 139.678 129.747 139.566 129.152C139.468 128.538 139.338 127.936 139.175 127.348L141.153 127.091L141.732 129.733L141.501 129.972C141.725 128.881 142.223 128.015 142.993 127.375C143.762 126.717 144.694 126.318 145.791 126.175C148.892 125.773 150.663 127.277 151.106 130.686L152.16 138.807L150.078 139.077L149.038 131.059C148.882 129.86 148.529 129.017 147.978 128.531C147.425 128.028 146.634 127.843 145.606 127.976C144.407 128.132 143.495 128.625 142.871 129.455C142.247 130.285 142.017 131.325 142.179 132.576L143.139 139.977L141.058 140.248ZM161.536 137.773C160.269 137.938 159.137 137.806 158.14 137.378C157.144 136.949 156.324 136.272 155.681 135.345C155.056 134.416 154.655 133.274 154.479 131.921C154.306 130.584 154.411 129.377 154.793 128.3C155.174 127.205 155.799 126.314 156.668 125.626C157.537 124.939 158.614 124.512 159.899 124.345C160.772 124.231 161.632 124.277 162.477 124.481C163.337 124.665 164.067 124.988 164.667 125.451L164.174 127.083C163.475 126.668 162.802 126.381 162.154 126.221C161.521 126.042 160.879 125.995 160.228 126.079C158.926 126.248 157.946 126.819 157.289 127.793C156.648 128.765 156.431 130.047 156.638 131.641C156.843 133.217 157.377 134.384 158.242 135.143C159.107 135.902 160.199 136.196 161.519 136.025C162.153 135.942 162.762 135.741 163.348 135.421C163.931 135.084 164.508 134.626 165.077 134.047L165.971 135.499C165.49 136.084 164.849 136.585 164.05 137.003C163.265 137.401 162.427 137.657 161.536 137.773ZM179.203 133.73C178.706 134.334 178.032 134.849 177.182 135.273C176.348 135.694 175.468 135.965 174.543 136.085C173.207 136.259 172.016 136.143 170.97 135.739C169.942 135.332 169.098 134.666 168.438 133.742C167.793 132.798 167.38 131.632 167.2 130.244C167.027 128.908 167.131 127.701 167.514 126.623C167.897 125.546 168.506 124.665 169.34 123.982C170.192 123.297 171.218 122.876 172.417 122.72C173.565 122.571 174.583 122.701 175.472 123.108C176.359 123.498 177.078 124.136 177.629 125.023C178.196 125.908 178.566 127.009 178.737 128.329L178.787 128.714L169.021 129.981L168.845 128.619L177.428 127.506L176.883 128.543C176.722 127.031 176.272 125.913 175.534 125.19C174.812 124.465 173.852 124.18 172.653 124.336C171.402 124.498 170.475 125.072 169.871 126.056C169.282 127.021 169.088 128.283 169.291 129.842C169.509 131.521 170.041 132.741 170.889 133.502C171.754 134.261 172.906 134.547 174.345 134.36C175.099 134.262 175.803 134.049 176.458 133.72C177.127 133.372 177.745 132.9 178.312 132.304L179.203 133.73Z" fill="#728A96"/>
<path fill-rule="evenodd" clip-rule="evenodd" d="M422.094 79.6824L441.687 77.14C442.381 77.05 443.087 77.0618 443.854 77.3055C444.774 77.5972 445.317 78.1753 445.701 78.6048C445.731 78.6383 445.759 78.673 445.786 78.7088C446.252 79.3345 446.542 80.0375 446.644 80.8211C446.741 81.5659 446.668 82.4 446.363 83.1585C446.36 83.1657 446.357 83.173 446.354 83.1803L436.735 106.051C436.523 106.555 436.058 106.908 435.515 106.976C434.972 107.045 434.434 106.818 434.103 106.383L419.198 86.7408C419.194 86.7355 419.19 86.7301 419.185 86.7249C418.848 86.3027 418.326 85.6498 418.132 84.7449C417.954 83.9131 418.033 83.0458 418.361 82.2604C418.689 81.4748 419.249 80.8082 419.968 80.3513C420.739 79.8614 421.57 79.7505 422.094 79.6824ZM430.69 81.6558L422.488 82.7201C421.949 82.79 421.747 82.8501 421.611 82.9365C421.423 83.0557 421.275 83.231 421.188 83.4399C421.101 83.6488 421.079 83.8804 421.127 84.1032C421.154 84.231 421.226 84.372 421.603 84.8437C421.611 84.8536 421.619 84.8637 421.627 84.8738L433.063 99.9454L430.69 81.6558ZM433.728 81.2617L436.111 99.6315L443.525 82.006C443.607 81.7964 443.644 81.5042 443.606 81.2153C443.576 80.9813 443.501 80.7841 443.365 80.5886C443.23 80.4396 443.149 80.3619 443.084 80.31C443.027 80.2656 442.985 80.2435 442.928 80.2252C442.689 80.1495 442.451 80.1297 442.082 80.1777L433.728 81.2617Z" fill="#0088CC"/>
<path d="M111.649 221.629C108.641 222.019 105.939 221.925 103.541 221.346C101.138 220.728 99.1778 219.647 97.661 218.102C96.1823 216.552 95.2898 214.596 94.9835 212.236C94.613 209.38 95.2444 206.937 96.8777 204.905C98.5062 202.836 100.911 201.382 104.093 200.543L103.976 201.429C101.046 201.228 98.6328 200.38 96.7352 198.884C94.8328 197.35 93.721 195.346 93.3999 192.871C93.1084 190.625 93.4656 188.604 94.4715 186.809C95.5154 185.009 97.0467 183.533 99.0651 182.38C101.122 181.223 103.52 180.467 106.262 180.111C109.003 179.755 111.496 179.877 113.742 180.476C116.026 181.07 117.883 182.106 119.314 183.585C120.783 185.06 121.663 186.92 121.954 189.166C122.281 191.679 121.72 193.92 120.272 195.888C118.824 197.857 116.723 199.272 113.97 200.132L113.63 199.305C116.926 199.342 119.606 200.156 121.671 201.746C123.773 203.332 125.005 205.514 125.366 208.293C125.672 210.654 125.289 212.775 124.217 214.656C123.183 216.532 121.583 218.075 119.417 219.286C117.246 220.458 114.657 221.239 111.649 221.629ZM110.908 215.918C113.459 215.587 115.41 214.811 116.762 213.591C118.108 212.332 118.65 210.694 118.389 208.676C118.137 206.734 117.159 205.313 115.454 204.411C113.783 203.466 111.71 203 109.233 203.012C106.836 203.632 104.931 204.615 103.519 205.96C102.139 207.262 101.575 208.883 101.827 210.825C102.089 212.843 103.031 214.288 104.655 215.162C106.273 215.997 108.357 216.249 110.908 215.918ZM108.626 198.329C110.675 197.714 112.316 196.785 113.548 195.541C114.776 194.259 115.268 192.686 115.026 190.82C114.774 188.878 113.918 187.499 112.457 186.682C111.029 185.822 109.211 185.535 107.003 185.822C104.795 186.108 103.091 186.852 101.892 188.053C100.726 189.211 100.269 190.761 100.521 192.702C100.763 194.568 101.641 195.964 103.155 196.89C104.664 197.778 106.487 198.258 108.626 198.329ZM139.191 175.838C144.331 175.171 148.516 176.389 151.744 179.493C154.968 182.559 157 187.328 157.84 193.801C158.428 198.331 158.266 202.301 157.353 205.71C156.474 209.076 154.908 211.777 152.655 213.811C150.398 215.807 147.537 217.03 144.072 217.48C141.636 217.796 139.204 217.705 136.778 217.207C134.39 216.704 132.24 215.802 130.33 214.501L132.146 208.807C134.242 210.045 136.191 210.895 137.994 211.358C139.791 211.783 141.489 211.892 143.088 211.684C146.172 211.284 148.36 209.645 149.651 206.768C150.937 203.852 151.254 199.882 150.602 194.856L150.202 191.772L151.187 193.096C151.057 194.778 150.557 196.294 149.687 197.646C148.812 198.96 147.657 200.058 146.223 200.941C144.823 201.781 143.227 202.317 141.438 202.549C139.039 202.86 136.817 202.588 134.77 201.73C132.756 200.83 131.09 199.479 129.772 197.675C128.449 195.834 127.622 193.638 127.291 191.087C126.95 188.46 127.239 186.061 128.158 183.89C129.071 181.681 130.482 179.872 132.389 178.463C134.297 177.054 136.564 176.179 139.191 175.838ZM140.347 181.611C138.215 181.888 136.591 182.795 135.474 184.334C134.391 185.83 133.995 187.7 134.286 189.947C134.577 192.193 135.44 193.92 136.875 195.128C138.342 196.292 140.142 196.736 142.274 196.459C143.682 196.277 144.899 195.809 145.924 195.057C146.945 194.266 147.669 193.282 148.096 192.104C148.557 190.882 148.694 189.548 148.506 188.102C148.314 186.617 147.841 185.362 147.089 184.337C146.374 183.307 145.425 182.559 144.242 182.093C143.054 181.589 141.756 181.428 140.347 181.611ZM170.561 221.302L167.352 219.395C168.412 218.019 169.099 216.749 169.413 215.585C169.765 214.417 169.864 213.243 169.711 212.063L171.746 213.424L166.092 214.158L165.054 206.163L173.107 205.118L173.796 210.429C174.043 212.333 173.93 214.148 173.457 215.874C172.989 217.638 172.024 219.447 170.561 221.302ZM181.396 212.172L180.692 206.747L192.521 190.055C193.888 188.059 194.856 186.268 195.424 184.685C195.993 183.101 196.184 181.586 195.996 180.139C195.754 178.273 195.038 176.934 193.849 176.12C192.659 175.307 191.055 175.031 189.038 175.293C187.21 175.53 185.41 176.131 183.639 177.097C181.9 178.019 180.209 179.303 178.564 180.949L175.354 175.907C176.804 174.248 178.731 172.836 181.135 171.673C183.539 170.509 186.035 169.759 188.624 169.423C191.289 169.078 193.669 169.214 195.762 169.833C197.855 170.452 199.544 171.529 200.827 173.066C202.106 174.565 202.893 176.457 203.19 178.741C203.496 181.101 203.288 183.374 202.564 185.558C201.836 187.705 200.458 190.206 198.428 193.064L187.74 207.807L186.565 205.462L207.866 202.698L208.637 208.637L181.396 212.172ZM231.401 205.683L227.303 174.102L229.016 173.88L217.584 195.862L217.337 193.513L242.636 190.231L243.385 195.999L212.717 199.978L212.013 194.553L227.495 164.844L233.378 164.081L238.654 204.742L231.401 205.683ZM262.213 202.092C259.471 202.448 256.773 202.391 254.119 201.923C251.497 201.411 249.272 200.519 247.442 199.247L249.258 193.552C251.23 194.729 253.196 195.558 255.156 196.039C257.148 196.477 259.153 196.566 261.171 196.304C263.798 195.963 265.676 195.216 266.804 194.063C267.927 192.872 268.35 191.211 268.073 189.078C267.806 187.022 266.962 185.584 265.539 184.762C264.116 183.94 262.053 183.704 259.349 184.055L253.981 184.752L253.225 178.926L257.623 178.356C260.25 178.015 262.146 177.266 263.312 176.108C264.516 174.945 264.99 173.374 264.733 171.394C264.486 169.49 263.727 168.117 262.457 167.276C261.186 166.434 259.542 166.144 257.524 166.406C255.658 166.648 253.84 167.252 252.068 168.217C250.291 169.145 248.619 170.426 247.05 172.062L243.841 167.02C245.29 165.361 247.217 163.95 249.621 162.786C252.025 161.622 254.541 160.87 257.168 160.529C259.833 160.183 262.193 160.322 264.248 160.946C266.342 161.565 268.028 162.623 269.306 164.122C270.58 165.583 271.357 167.398 271.639 169.569C271.955 172.005 271.596 174.162 270.562 176.038C269.523 177.876 267.906 179.286 265.71 180.268L265.579 179.704C268.323 179.968 270.513 180.884 272.149 182.452C273.818 183.978 274.828 186.092 275.179 188.795C275.639 192.336 274.688 195.305 272.328 197.702C270.001 200.055 266.629 201.519 262.213 202.092Z" fill="#232328"/>
</g>
<g filter="url(#filter1_d_114_2017)">
<rect x="41.4691" y="239.231" width="436.711" height="163.35" rx="34.5528" transform="rotate(2.70249 41.4691 239.231)" fill="white" shape-rendering="crispEdges"/>
<path d="M75.9494 289.948L76.8194 271.518L88.468 272.068L88.3849 273.828L78.833 273.377L78.53 279.797L87.5642 280.223L87.4798 282.009L78.4457 281.583L78.1293 288.287L87.6811 288.738L87.598 290.498L75.9494 289.948ZM95.896 291.072C94.7397 291.017 93.7342 290.701 92.8793 290.125C92.0425 289.532 91.4061 288.724 90.9702 287.7C90.5523 286.66 90.3755 285.458 90.4399 284.095C90.5042 282.731 90.802 281.552 91.3333 280.557C91.8646 279.561 92.5751 278.799 93.4648 278.271C94.3718 277.743 95.3948 277.505 96.5338 277.559C97.7245 277.615 98.7202 277.956 99.5209 278.582C100.322 279.208 100.843 280.072 101.085 281.173L100.765 281.365L100.92 278.078L102.991 278.175L102.376 291.196L100.305 291.098L100.464 287.733L100.767 287.903C100.423 288.976 99.8222 289.787 98.9661 290.334C98.1101 290.882 97.0867 291.128 95.896 291.072ZM96.392 289.357C97.669 289.417 98.673 289.032 99.4041 288.202C100.136 287.354 100.54 286.128 100.615 284.523C100.691 282.918 100.396 281.668 99.7288 280.771C99.0793 279.876 98.1246 279.398 96.8649 279.339C95.5878 279.279 94.5657 279.68 93.7986 280.543C93.0495 281.39 92.6375 282.607 92.5625 284.195C92.4876 285.783 92.7835 287.025 93.4503 287.921C94.1344 288.818 95.115 289.297 96.392 289.357ZM106.43 291.387L106.872 282.017C106.901 281.413 106.912 280.808 106.906 280.202C106.918 279.58 106.895 278.965 106.837 278.357L108.831 278.451L108.964 281.674L108.683 281.583C108.978 280.456 109.536 279.626 110.357 279.094C111.196 278.545 112.116 278.295 113.116 278.342C113.341 278.353 113.547 278.38 113.735 278.423C113.942 278.45 114.13 278.494 114.3 278.554L114.158 280.467C113.767 280.31 113.313 280.219 112.795 280.195C111.898 280.152 111.164 280.317 110.593 280.687C110.039 281.059 109.618 281.55 109.33 282.159C109.06 282.751 108.909 283.384 108.877 284.057L108.527 291.486L106.43 291.387ZM115.808 291.83L116.251 282.459C116.279 281.855 116.291 281.25 116.284 280.645C116.297 280.023 116.274 279.408 116.216 278.8L118.209 278.894L118.315 281.597L118.046 281.792C118.458 280.756 119.1 279.991 119.971 279.496C120.842 278.983 121.831 278.753 122.935 278.805C126.059 278.953 127.539 280.744 127.377 284.178L126.991 292.358L124.894 292.259L125.276 284.182C125.333 282.974 125.133 282.083 124.675 281.508C124.219 280.916 123.473 280.595 122.438 280.546C121.23 280.489 120.246 280.815 119.486 281.522C118.726 282.23 118.317 283.214 118.257 284.474L117.905 291.929L115.808 291.83ZM141.689 291.495C141.094 292.003 140.341 292.391 139.429 292.659C138.534 292.929 137.621 293.041 136.689 292.997C135.343 292.934 134.19 292.611 133.232 292.03C132.291 291.449 131.576 290.646 131.089 289.62C130.619 288.577 130.417 287.357 130.483 285.959C130.547 284.613 130.861 283.443 131.427 282.449C131.993 281.455 132.747 280.695 133.688 280.169C134.647 279.644 135.73 279.409 136.938 279.466C138.094 279.521 139.074 279.827 139.878 280.384C140.683 280.923 141.279 281.678 141.665 282.647C142.069 283.617 142.24 284.767 142.177 286.096L142.159 286.484L132.322 286.02L132.387 284.648L141.033 285.056L140.315 285.982C140.421 284.465 140.174 283.286 139.574 282.445C138.991 281.604 138.095 281.155 136.887 281.098C135.627 281.039 134.614 281.441 133.847 282.304C133.098 283.151 132.686 284.359 132.612 285.93C132.532 287.621 132.843 288.915 133.544 289.813C134.263 290.712 135.347 291.196 136.796 291.264C137.556 291.3 138.286 291.213 138.988 291.004C139.708 290.779 140.399 290.422 141.062 289.935L141.689 291.495ZM156.498 293.751L154.428 293.653L154.592 290.158L154.89 290.458C154.545 291.531 153.945 292.342 153.089 292.889C152.233 293.437 151.209 293.683 150.018 293.626C148.879 293.573 147.883 293.249 147.029 292.655C146.193 292.045 145.557 291.219 145.122 290.178C144.688 289.12 144.503 287.909 144.567 286.546C144.632 285.183 144.92 284.011 145.434 283.033C145.964 282.054 146.674 281.31 147.563 280.798C148.469 280.287 149.5 280.059 150.656 280.114C151.847 280.17 152.842 280.52 153.642 281.163C154.443 281.789 154.965 282.644 155.207 283.727L154.859 283.97L155.301 274.6L157.398 274.699L156.498 293.751ZM150.514 291.912C151.774 291.971 152.77 291.586 153.501 290.755C154.25 289.909 154.662 288.683 154.738 287.078C154.813 285.49 154.526 284.249 153.876 283.353C153.227 282.441 152.264 281.954 150.987 281.894C149.71 281.833 148.689 282.218 147.923 283.046C147.175 283.876 146.764 285.076 146.69 286.646C146.614 288.251 146.909 289.519 147.574 290.45C148.257 291.364 149.237 291.851 150.514 291.912ZM172.013 294.483L172.798 277.864L166.378 277.561L166.463 275.749L181.451 276.457L181.366 278.269L174.946 277.966L174.162 294.584L172.013 294.483ZM182.899 294.997L183.798 275.945L185.895 276.044L185.486 284.716L185.137 284.959C185.549 283.923 186.191 283.158 187.061 282.663C187.933 282.15 188.921 281.92 190.026 281.972C193.149 282.12 194.63 283.911 194.468 287.345L194.082 295.525L191.985 295.426L192.366 287.349C192.423 286.141 192.223 285.25 191.766 284.675C191.31 284.082 190.564 283.762 189.528 283.713C188.32 283.656 187.336 283.981 186.577 284.689C185.817 285.397 185.407 286.381 185.348 287.641L184.996 295.096L182.899 294.997ZM198.041 295.712L198.656 282.691L200.753 282.79L200.138 295.81L198.041 295.712ZM198.709 277.168L201.272 277.288L201.159 279.67L198.597 279.549L198.709 277.168ZM208.601 296.392C206.41 296.288 204.702 295.645 203.478 294.463L204.25 292.943C204.915 293.511 205.604 293.941 206.316 294.234C207.047 294.511 207.861 294.67 208.758 294.713C209.742 294.759 210.492 294.63 211.008 294.326C211.542 294.005 211.824 293.526 211.854 292.887C211.878 292.369 211.725 291.956 211.394 291.646C211.063 291.319 210.506 291.042 209.721 290.815L207.545 290.193C206.469 289.9 205.644 289.429 205.069 288.779C204.512 288.13 204.253 287.374 204.294 286.511C204.33 285.752 204.568 285.097 205.009 284.547C205.451 283.98 206.051 283.55 206.809 283.257C207.566 282.965 208.454 282.842 209.472 282.89C210.387 282.933 211.243 283.121 212.04 283.452C212.837 283.784 213.499 284.239 214.025 284.817L213.254 286.312C212.657 285.765 212.037 285.355 211.392 285.082C210.766 284.793 210.099 284.632 209.391 284.599C208.46 284.555 207.726 284.702 207.191 285.04C206.674 285.378 206.4 285.858 206.371 286.48C206.346 287.015 206.481 287.445 206.777 287.77C207.09 288.096 207.597 288.362 208.296 288.568L210.471 289.216C211.684 289.532 212.561 290.006 213.102 290.637C213.661 291.251 213.919 292.016 213.876 292.931C213.823 294.052 213.323 294.928 212.377 295.558C211.43 296.188 210.172 296.466 208.601 296.392ZM224.059 296.94L224.929 278.509L226.69 278.592L233.368 295.952L232.384 295.906L240.59 279.248L242.35 279.331L241.481 297.762L239.513 297.669L240.251 282.034L241.049 282.176L233.534 297.387L232.032 297.316L225.88 281.459L226.739 281.396L226.027 297.032L224.059 296.94ZM251.144 298.4C249.901 298.341 248.827 298.014 247.921 297.417C247.033 296.822 246.353 296.012 245.883 294.986C245.43 293.944 245.237 292.733 245.302 291.353C245.366 289.989 245.673 288.81 246.221 287.816C246.787 286.822 247.54 286.071 248.481 285.562C249.439 285.053 250.539 284.829 251.782 284.887C253.024 284.946 254.09 285.273 254.978 285.868C255.884 286.465 256.563 287.284 257.016 288.325C257.485 289.368 257.688 290.571 257.623 291.934C257.558 293.315 257.243 294.502 256.677 295.496C256.129 296.473 255.377 297.216 254.419 297.724C253.478 298.233 252.386 298.458 251.144 298.4ZM251.226 296.665C252.503 296.726 253.506 296.349 254.236 295.536C254.985 294.707 255.398 293.472 255.475 291.833C255.551 290.228 255.255 288.977 254.588 288.081C253.922 287.185 252.958 286.707 251.698 286.648C250.439 286.588 249.426 286.973 248.661 287.801C247.912 288.631 247.5 289.848 247.424 291.453C247.347 293.092 247.633 294.36 248.283 295.255C248.95 296.134 249.931 296.604 251.226 296.665ZM260.582 298.664L261.024 289.293C261.052 288.689 261.064 288.084 261.058 287.478C261.07 286.856 261.047 286.241 260.989 285.633L262.982 285.727L263.088 288.43L262.82 288.625C263.232 287.59 263.873 286.824 264.744 286.329C265.616 285.817 266.604 285.587 267.708 285.639C270.832 285.787 272.312 287.577 272.15 291.012L271.764 299.191L269.667 299.092L270.049 291.016C270.106 289.808 269.906 288.917 269.449 288.342C268.992 287.749 268.246 287.429 267.211 287.38C266.003 287.323 265.019 287.648 264.259 288.356C263.499 289.064 263.09 290.048 263.03 291.307L262.678 298.763L260.582 298.664ZM274.422 287.928L274.5 286.271L282.862 286.666L282.783 288.322L274.422 287.928ZM282.283 297.82L282.199 299.606C281.901 299.679 281.605 299.725 281.31 299.746C281.032 299.785 280.72 299.796 280.375 299.779C279.167 299.722 278.217 299.332 277.524 298.607C276.849 297.883 276.544 296.831 276.61 295.451L277.195 283.052L279.327 282.4L278.72 295.265C278.687 295.955 278.757 296.495 278.929 296.883C279.118 297.273 279.381 297.553 279.719 297.725C280.058 297.879 280.443 297.967 280.874 297.987C281.133 297.999 281.367 297.993 281.576 297.968C281.784 297.943 282.02 297.894 282.283 297.82ZM284.774 299.805L285.673 280.754L287.77 280.853L287.36 289.524L287.012 289.767C287.424 288.732 288.065 287.966 288.936 287.471C289.808 286.959 290.796 286.729 291.9 286.781C295.024 286.928 296.504 288.719 296.342 292.153L295.956 300.333L293.86 300.234L294.241 292.158C294.298 290.95 294.098 290.058 293.641 289.483C293.184 288.891 292.438 288.571 291.403 288.522C290.195 288.465 289.211 288.79 288.451 289.498C287.691 290.206 287.282 291.19 287.222 292.449L286.87 299.904L284.774 299.805Z" fill="#728A96"/>
<path fill-rule="evenodd" clip-rule="evenodd" d="M417.823 282.162L437.558 283.094C438.256 283.127 438.949 283.262 439.662 283.637C440.517 284.085 440.95 284.749 441.252 285.24C441.276 285.278 441.298 285.317 441.318 285.357C441.668 286.055 441.83 286.798 441.793 287.587C441.757 288.337 441.54 289.146 441.106 289.839C441.102 289.845 441.098 289.852 441.094 289.859L427.614 310.688C427.317 311.148 426.797 311.414 426.251 311.386C425.704 311.358 425.214 311.041 424.965 310.554L413.734 288.604C413.731 288.598 413.728 288.592 413.724 288.586C413.466 288.111 413.066 287.377 413.034 286.452C413.005 285.602 413.235 284.762 413.695 284.046C414.156 283.33 414.824 282.772 415.612 282.448C416.457 282.101 417.294 282.137 417.823 282.162ZM425.939 285.612L417.678 285.222C417.135 285.196 416.925 285.22 416.776 285.281C416.571 285.366 416.394 285.512 416.272 285.703C416.149 285.893 416.088 286.117 416.095 286.345C416.1 286.476 416.146 286.627 416.434 287.158C416.441 287.169 416.446 287.18 416.452 287.191L425.07 304.034L425.939 285.612ZM428.999 285.756L428.126 304.26L438.514 288.207C438.632 288.015 438.719 287.733 438.733 287.442C438.744 287.207 438.705 286.999 438.605 286.783C438.498 286.613 438.433 286.522 438.377 286.46C438.329 286.406 438.292 286.377 438.239 286.349C438.016 286.232 437.786 286.171 437.414 286.154L428.999 285.756Z" fill="#0088CC"/>
<path d="M87.3018 367.491C84.7708 367.371 82.2596 366.83 79.7684 365.867C77.3155 364.905 75.3181 363.658 73.7762 362.125L76.505 356.834C78.2806 358.302 80.0908 359.444 81.9355 360.261C83.8186 361.081 85.738 361.536 87.6938 361.629C90.2249 361.748 92.2105 361.208 93.6509 360.007C95.093 358.769 95.8702 356.96 95.9824 354.583C96.0548 353.049 95.7913 351.71 95.1918 350.567C94.6307 349.426 93.7894 348.522 92.6679 347.854C91.5464 347.186 90.1995 346.815 88.6272 346.741C87.0548 346.667 85.5447 346.903 84.0969 347.449C82.6508 347.958 81.3254 348.76 80.1206 349.856L75.6912 349.647L76.8289 325.544L102.485 326.755L102.21 332.565L83.8027 331.696L83.1646 345.215L80.9375 344.764C82.1531 343.437 83.5835 342.448 85.2285 341.795C86.8736 341.143 88.7124 340.864 90.7449 340.96C93.3143 341.082 95.5315 341.743 97.3964 342.946C99.2998 344.151 100.742 345.756 101.724 347.763C102.743 349.771 103.192 352.079 103.069 354.687C102.942 357.371 102.197 359.719 100.834 361.73C99.5106 363.705 97.6915 365.195 95.3764 366.2C93.0996 367.207 90.4081 367.637 87.3018 367.491ZM117.498 368.512L109.56 368.138L131.108 331.796L131.172 334.105L109.198 333.068L109.48 327.086L138.012 328.432L137.751 333.955L117.498 368.512ZM145.359 377.495L142.534 375.056C143.819 373.887 144.718 372.757 145.231 371.666C145.782 370.578 146.085 369.439 146.141 368.25L147.906 369.948L142.211 369.679L142.591 361.626L150.702 362.008L150.45 367.358C150.359 369.276 149.93 371.043 149.162 372.659C148.392 374.314 147.124 375.926 145.359 377.495ZM169.975 371.393C167.214 371.263 164.567 370.734 162.036 369.808C159.545 368.844 157.51 367.576 155.932 366.003L158.718 360.715C160.453 362.219 162.243 363.38 164.088 364.197C165.973 364.978 167.932 365.416 169.964 365.512C172.61 365.637 174.59 365.231 175.902 364.293C177.217 363.318 177.925 361.756 178.026 359.608C178.124 357.538 177.544 355.973 176.287 354.914C175.031 353.856 173.041 353.262 170.318 353.133L164.911 352.878L165.188 347.011L169.617 347.22C172.263 347.345 174.262 346.939 175.613 346.004C177.002 345.07 177.744 343.606 177.838 341.612C177.928 339.695 177.422 338.21 176.318 337.159C175.215 336.107 173.647 335.534 171.614 335.438C169.735 335.349 167.839 335.625 165.925 336.265C164.014 336.866 162.142 337.835 160.311 339.171L158.036 333.644C159.753 332.264 161.898 331.213 164.469 330.488C167.039 329.764 169.648 329.465 172.294 329.589C174.978 329.716 177.278 330.267 179.192 331.241C181.145 332.217 182.619 333.555 183.615 335.255C184.612 336.916 185.06 338.84 184.957 341.026C184.841 343.48 184.109 345.54 182.762 347.206C181.417 348.834 179.578 349.938 177.244 350.52L177.214 349.942C179.869 350.683 181.865 351.968 183.201 353.799C184.576 355.594 185.2 357.852 185.071 360.575C184.903 364.142 183.447 366.898 180.703 368.844C178 370.753 174.423 371.603 169.975 371.393ZM204.467 373.021C201.706 372.891 199.059 372.362 196.528 371.436C194.037 370.473 192.002 369.204 190.423 367.631L193.21 362.343C194.945 363.847 196.735 365.008 198.58 365.825C200.465 366.606 202.424 367.044 204.456 367.14C207.102 367.265 209.082 366.859 210.394 365.921C211.709 364.946 212.416 363.384 212.518 361.237C212.616 359.166 212.036 357.601 210.779 356.542C209.522 355.484 207.533 354.89 204.81 354.762L199.403 354.506L199.679 348.639L204.109 348.848C206.755 348.973 208.753 348.568 210.104 347.632C211.494 346.698 212.235 345.234 212.33 343.24C212.42 341.323 211.914 339.838 210.81 338.787C209.707 337.736 208.139 337.162 206.106 337.066C204.227 336.977 202.331 337.253 200.417 337.893C198.506 338.494 196.634 339.463 194.803 340.799L192.527 335.272C194.245 333.893 196.39 332.841 198.96 332.116C201.531 331.392 204.14 331.093 206.786 331.218C209.47 331.344 211.77 331.895 213.684 332.869C215.636 333.845 217.111 335.183 218.107 336.883C219.104 338.544 219.552 340.468 219.448 342.654C219.333 345.108 218.601 347.168 217.254 348.834C215.909 350.462 214.07 351.567 211.736 352.148L211.706 351.57C214.361 352.311 216.357 353.596 217.692 355.427C219.068 357.222 219.692 359.48 219.563 362.203C219.395 365.77 217.939 368.526 215.195 370.472C212.491 372.381 208.915 373.231 204.467 373.021ZM239.704 374.742C234.872 374.514 231.255 372.556 228.854 368.868C226.453 365.18 225.414 359.924 225.736 353.097C226.058 346.271 227.569 341.135 230.268 337.688C233.006 334.242 236.81 332.635 241.68 332.865C246.551 333.095 250.167 335.052 252.53 338.738C254.931 342.426 255.971 347.664 255.651 354.452C255.327 361.316 253.796 366.471 251.058 369.916C248.321 373.362 244.536 374.97 239.704 374.742ZM239.975 368.99C242.621 369.115 244.615 367.998 245.956 365.64C247.299 363.243 248.096 359.399 248.345 354.107C248.593 348.853 248.16 345.008 247.045 342.573C245.93 340.137 244.05 338.857 241.403 338.732C238.757 338.607 236.764 339.724 235.423 342.082C234.083 344.402 233.29 348.169 233.044 353.385C232.794 358.677 233.225 362.579 234.336 365.091C235.45 367.565 237.329 368.865 239.975 368.99Z" fill="#232328"/>
</g>
<defs>
<filter id="filter0_d_114_2017" x="9.48987" y="18.3989" width="523.063" height="286.193" filterUnits="userSpaceOnUse" color-interpolation-filters="sRGB">
<feFlood flood-opacity="0" result="BackgroundImageFix"/>
<feColorMatrix in="SourceAlpha" type="matrix" values="0 0 0 0 0 0 0 0 0 0 0 0 0 0 0 0 0 0 127 0" result="hardAlpha"/>
<feOffset dy="5.75879"/>
<feGaussianBlur stdDeviation="17.2764"/>
<feComposite in2="hardAlpha" operator="out"/>
<feColorMatrix type="matrix" values="0 0 0 0 0 0 0 0 0 0.533333 0 0 0 0 0.8 0 0 0 0.11 0"/>
<feBlend mode="normal" in2="BackgroundImageFix" result="effect1_dropShadow_114_2017"/>
<feBlend mode="normal" in="SourceGraphic" in2="effect1_dropShadow_114_2017" result="shape"/>
</filter>
<filter id="filter1_d_114_2017" x="-0.785595" y="210.437" width="513.033" height="252.865" filterUnits="userSpaceOnUse" color-interpolation-filters="sRGB">
<feFlood flood-opacity="0" result="BackgroundImageFix"/>
<feColorMatrix in="SourceAlpha" type="matrix" values="0 0 0 0 0 0 0 0 0 0 0 0 0 0 0 0 0 0 127 0" result="hardAlpha"/>
<feOffset dy="5.75879"/>
<feGaussianBlur stdDeviation="17.2764"/>
<feComposite in2="hardAlpha" operator="out"/>
<feColorMatrix type="matrix" values="0 0 0 0 0 0 0 0 0 0.533333 0 0 0 0 0.8 0 0 0 0.11 0"/>
<feBlend mode="normal" in2="BackgroundImageFix" result="effect1_dropShadow_114_2017"/>
<feBlend mode="normal" in="SourceGraphic" in2="effect1_dropShadow_114_2017" result="shape"/>
</filter>
</defs>
</svg>
