<svg width="690" height="101" viewBox="0 0 690 101" fill="none" xmlns="http://www.w3.org/2000/svg">
<rect y="0.739258" width="690" height="100" rx="32" fill="#F7F9FB"/>
<path d="M25.488 38.8513C24.536 38.8513 23.7147 38.6459 23.024 38.2353C22.3333 37.8246 21.8013 37.2366 21.428 36.4713C21.0547 35.7059 20.868 34.7959 20.868 33.7413C20.868 32.6866 21.0547 31.7813 21.428 31.0253C21.8013 30.2693 22.3333 29.6859 23.024 29.2753C23.7147 28.8646 24.536 28.6593 25.488 28.6593C26.1693 28.6593 26.7993 28.7666 27.378 28.9813C27.9567 29.1866 28.456 29.4993 28.876 29.9193L28.442 30.8013C27.966 30.3906 27.4947 30.0966 27.028 29.9193C26.5613 29.7419 26.0527 29.6533 25.502 29.6533C24.41 29.6533 23.5607 30.0079 22.954 30.7173C22.3567 31.4266 22.058 32.4346 22.058 33.7413C22.058 35.0573 22.3567 36.0746 22.954 36.7933C23.5513 37.5026 24.4007 37.8573 25.502 37.8573C26.0527 37.8573 26.5613 37.7686 27.028 37.5913C27.4947 37.4139 27.966 37.1199 28.442 36.7093L28.876 37.5913C28.456 38.0113 27.9567 38.3286 27.378 38.5433C26.7993 38.7486 26.1693 38.8513 25.488 38.8513ZM33.2276 38.8373C32.6023 38.8373 32.0516 38.6926 31.5756 38.4033C31.1089 38.1046 30.7449 37.6846 30.4836 37.1433C30.2316 36.5926 30.1056 35.9486 30.1056 35.2113C30.1056 34.4739 30.2363 33.8299 30.4976 33.2793C30.7589 32.7286 31.1229 32.2993 31.5896 31.9913C32.0656 31.6833 32.6116 31.5293 33.2276 31.5293C33.8716 31.5293 34.4176 31.6879 34.8656 32.0053C35.3136 32.3226 35.6169 32.7753 35.7756 33.3633L35.6076 33.4753V31.6973H36.7276V38.7393H35.6076V36.9193L35.7756 37.0033C35.6169 37.5913 35.3136 38.0439 34.8656 38.3613C34.4176 38.6786 33.8716 38.8373 33.2276 38.8373ZM33.4516 37.8993C34.1423 37.8993 34.6743 37.6659 35.0476 37.1993C35.4209 36.7233 35.6076 36.0513 35.6076 35.1833C35.6076 34.3153 35.4163 33.6479 35.0336 33.1813C34.6603 32.7146 34.1329 32.4813 33.4516 32.4813C32.7609 32.4813 32.2196 32.7239 31.8276 33.2093C31.4449 33.6853 31.2536 34.3526 31.2536 35.2113C31.2536 36.0699 31.4449 36.7326 31.8276 37.1993C32.2196 37.6659 32.7609 37.8993 33.4516 37.8993ZM38.9201 38.7393V33.6713C38.9201 33.3446 38.9108 33.0179 38.8921 32.6913C38.8828 32.3553 38.8548 32.0239 38.8081 31.6973H39.8861L40.0121 33.1533L39.8721 33.2513C40.0401 32.7006 40.3295 32.2759 40.7401 31.9773C41.1601 31.6786 41.6548 31.5293 42.2241 31.5293C42.9055 31.5293 43.4328 31.6973 43.8061 32.0333C44.1888 32.3693 44.4315 32.8826 44.5341 33.5733L44.1981 33.3913C44.3475 32.8219 44.6461 32.3693 45.0941 32.0333C45.5515 31.6973 46.0975 31.5293 46.7321 31.5293C47.5068 31.5293 48.0901 31.7626 48.4821 32.2293C48.8741 32.6866 49.0701 33.3819 49.0701 34.3153V38.7393H47.9361V34.3713C47.9361 33.7179 47.8195 33.2419 47.5861 32.9433C47.3528 32.6353 46.9841 32.4813 46.4801 32.4813C45.8921 32.4813 45.4255 32.6819 45.0801 33.0833C44.7441 33.4846 44.5761 34.0306 44.5761 34.7213V38.7393H43.4421V34.3713C43.4421 33.7179 43.3208 33.2419 43.0781 32.9433C42.8448 32.6353 42.4761 32.4813 41.9721 32.4813C41.3748 32.4813 40.9035 32.6819 40.5581 33.0833C40.2221 33.4846 40.0541 34.0306 40.0541 34.7213V38.7393H38.9201ZM51.2248 41.7633V33.6713C51.2248 33.3446 51.2155 33.0179 51.1968 32.6913C51.1875 32.3553 51.1595 32.0239 51.1128 31.6973H52.1908L52.3168 33.1533L52.2048 33.3633C52.3635 32.7753 52.6668 32.3226 53.1148 32.0053C53.5628 31.6879 54.1041 31.5293 54.7388 31.5293C55.3548 31.5293 55.8961 31.6833 56.3628 31.9913C56.8388 32.2993 57.2075 32.7286 57.4688 33.2793C57.7395 33.8299 57.8748 34.4739 57.8748 35.2113C57.8748 35.9486 57.7395 36.5926 57.4688 37.1433C57.2075 37.6846 56.8435 38.1046 56.3768 38.4033C55.9101 38.6926 55.3641 38.8373 54.7388 38.8373C54.1041 38.8373 53.5628 38.6786 53.1148 38.3613C52.6668 38.0439 52.3635 37.5913 52.2048 37.0033L52.3588 36.8633V41.7633H51.2248ZM54.5288 37.8993C55.2101 37.8993 55.7421 37.6659 56.1248 37.1993C56.5075 36.7326 56.6988 36.0699 56.6988 35.2113C56.6988 34.3526 56.5075 33.6853 56.1248 33.2093C55.7421 32.7239 55.2101 32.4813 54.5288 32.4813C53.8288 32.4813 53.2921 32.7146 52.9188 33.1813C52.5455 33.6479 52.3588 34.3153 52.3588 35.1833C52.3588 36.0513 52.5455 36.7233 52.9188 37.1993C53.2921 37.6659 53.8288 37.8993 54.5288 37.8993ZM62.3213 38.8373C61.696 38.8373 61.1453 38.6926 60.6693 38.4033C60.2027 38.1046 59.8387 37.6846 59.5773 37.1433C59.3253 36.5926 59.1993 35.9486 59.1993 35.2113C59.1993 34.4739 59.33 33.8299 59.5913 33.2793C59.8527 32.7286 60.2167 32.2993 60.6833 31.9913C61.1593 31.6833 61.7053 31.5293 62.3213 31.5293C62.9653 31.5293 63.5113 31.6879 63.9593 32.0053C64.4073 32.3226 64.7107 32.7753 64.8693 33.3633L64.7013 33.4753V31.6973H65.8213V38.7393H64.7013V36.9193L64.8693 37.0033C64.7107 37.5913 64.4073 38.0439 63.9593 38.3613C63.5113 38.6786 62.9653 38.8373 62.3213 38.8373ZM62.5453 37.8993C63.236 37.8993 63.768 37.6659 64.1413 37.1993C64.5147 36.7233 64.7013 36.0513 64.7013 35.1833C64.7013 34.3153 64.51 33.6479 64.1273 33.1813C63.754 32.7146 63.2267 32.4813 62.5453 32.4813C61.8547 32.4813 61.3133 32.7239 60.9213 33.2093C60.5387 33.6853 60.3473 34.3526 60.3473 35.2113C60.3473 36.0699 60.5387 36.7326 60.9213 37.1993C61.3133 37.6659 61.8547 37.8993 62.5453 37.8993ZM68.0139 38.7393V31.6973H69.1479V38.7393H68.0139ZM67.9019 28.7153H69.2879V30.0033H67.9019V28.7153ZM74.4438 41.8613C73.3798 41.8613 72.4558 41.6186 71.6718 41.1333L71.8678 40.2093C72.3065 40.4613 72.7218 40.6433 73.1138 40.7553C73.5058 40.8673 73.9491 40.9233 74.4438 40.9233C75.1158 40.9233 75.6245 40.7413 75.9698 40.3773C76.3245 40.0226 76.5018 39.4906 76.5018 38.7813V36.8773L76.6558 36.6953C76.5438 37.0686 76.3665 37.3953 76.1238 37.6753C75.8905 37.9459 75.6011 38.1559 75.2558 38.3053C74.9105 38.4546 74.5185 38.5293 74.0798 38.5293C73.4545 38.5293 72.9038 38.3846 72.4278 38.0953C71.9611 37.7966 71.5925 37.3859 71.3218 36.8633C71.0605 36.3406 70.9298 35.7293 70.9298 35.0293C70.9298 34.3293 71.0605 33.7179 71.3218 33.1953C71.5925 32.6726 71.9611 32.2666 72.4278 31.9773C72.9038 31.6786 73.4545 31.5293 74.0798 31.5293C74.7331 31.5293 75.2838 31.6926 75.7318 32.0193C76.1891 32.3366 76.4971 32.7846 76.6558 33.3633L76.4878 33.2093V31.6973H77.6218V38.6833C77.6218 39.7379 77.3511 40.5313 76.8098 41.0633C76.2778 41.5953 75.4891 41.8613 74.4438 41.8613ZM74.3038 37.5773C74.9851 37.5773 75.5171 37.3533 75.8998 36.9053C76.2918 36.4479 76.4878 35.8226 76.4878 35.0293C76.4878 34.2359 76.2918 33.6153 75.8998 33.1673C75.5171 32.7099 74.9851 32.4813 74.3038 32.4813C73.6131 32.4813 73.0671 32.7099 72.6658 33.1673C72.2738 33.6153 72.0778 34.2359 72.0778 35.0293C72.0778 35.8319 72.2738 36.4573 72.6658 36.9053C73.0671 37.3533 73.6131 37.5773 74.3038 37.5773ZM79.799 38.7393V33.6713C79.799 33.3446 79.7897 33.0179 79.771 32.6913C79.7617 32.3553 79.7337 32.0239 79.687 31.6973H80.765L80.891 33.1533L80.751 33.2653C80.947 32.6959 81.2737 32.2666 81.731 31.9773C82.1884 31.6786 82.7157 31.5293 83.313 31.5293C85.0024 31.5293 85.847 32.4579 85.847 34.3153V38.7393H84.713V34.3713C84.713 33.7179 84.5824 33.2419 84.321 32.9433C84.0597 32.6353 83.649 32.4813 83.089 32.4813C82.4357 32.4813 81.913 32.6819 81.521 33.0833C81.129 33.4846 80.933 34.0259 80.933 34.7073V38.7393H79.799ZM91.7789 38.7393V28.7713H92.6609L99.0169 37.2413L98.6809 37.3253V28.7713H99.7729V38.7393H98.8769L92.5349 30.2833L92.8569 30.1853V38.7393H91.7789ZM104.786 38.8373C104.161 38.8373 103.61 38.6926 103.134 38.4033C102.668 38.1046 102.304 37.6846 102.042 37.1433C101.79 36.5926 101.664 35.9486 101.664 35.2113C101.664 34.4739 101.795 33.8299 102.056 33.2793C102.318 32.7286 102.682 32.2993 103.148 31.9913C103.624 31.6833 104.17 31.5293 104.786 31.5293C105.43 31.5293 105.976 31.6879 106.424 32.0053C106.872 32.3226 107.176 32.7753 107.334 33.3633L107.166 33.4753V31.6973H108.286V38.7393H107.166V36.9193L107.334 37.0033C107.176 37.5913 106.872 38.0439 106.424 38.3613C105.976 38.6786 105.43 38.8373 104.786 38.8373ZM105.01 37.8993C105.701 37.8993 106.233 37.6659 106.606 37.1993C106.98 36.7233 107.166 36.0513 107.166 35.1833C107.166 34.3153 106.975 33.6479 106.592 33.1813C106.219 32.7146 105.692 32.4813 105.01 32.4813C104.32 32.4813 103.778 32.7239 103.386 33.2093C103.004 33.6853 102.812 34.3526 102.812 35.2113C102.812 36.0699 103.004 36.7326 103.386 37.1993C103.778 37.6659 104.32 37.8993 105.01 37.8993ZM110.479 38.7393V33.6713C110.479 33.3446 110.469 33.0179 110.451 32.6913C110.441 32.3553 110.413 32.0239 110.367 31.6973H111.445L111.571 33.1533L111.431 33.2513C111.599 32.7006 111.888 32.2759 112.299 31.9773C112.719 31.6786 113.213 31.5293 113.783 31.5293C114.464 31.5293 114.991 31.6973 115.365 32.0333C115.747 32.3693 115.99 32.8826 116.093 33.5733L115.757 33.3913C115.906 32.8219 116.205 32.3693 116.653 32.0333C117.11 31.6973 117.656 31.5293 118.291 31.5293C119.065 31.5293 119.649 31.7626 120.041 32.2293C120.433 32.6866 120.629 33.3819 120.629 34.3153V38.7393H119.495V34.3713C119.495 33.7179 119.378 33.2419 119.145 32.9433C118.911 32.6353 118.543 32.4813 118.039 32.4813C117.451 32.4813 116.984 32.6819 116.639 33.0833C116.303 33.4846 116.135 34.0306 116.135 34.7213V38.7393H115.001V34.3713C115.001 33.7179 114.879 33.2419 114.637 32.9433C114.403 32.6353 114.035 32.4813 113.531 32.4813C112.933 32.4813 112.462 32.6819 112.117 33.0833C111.781 33.4846 111.613 34.0306 111.613 34.7213V38.7393H110.479ZM128.551 37.8993C128.243 38.1886 127.847 38.4173 127.361 38.5853C126.885 38.7533 126.395 38.8373 125.891 38.8373C125.163 38.8373 124.533 38.6926 124.001 38.4033C123.479 38.1139 123.073 37.6986 122.783 37.1573C122.503 36.6066 122.363 35.9533 122.363 35.1973C122.363 34.4693 122.503 33.8299 122.783 33.2793C123.063 32.7286 123.451 32.2993 123.945 31.9913C124.449 31.6833 125.028 31.5293 125.681 31.5293C126.307 31.5293 126.843 31.6693 127.291 31.9493C127.739 32.2199 128.08 32.6119 128.313 33.1253C128.556 33.6386 128.677 34.2546 128.677 34.9733V35.1833H123.357V34.4413H128.033L127.669 34.9593C127.688 34.1379 127.525 33.5079 127.179 33.0693C126.843 32.6306 126.349 32.4113 125.695 32.4113C125.014 32.4113 124.477 32.6539 124.085 33.1393C123.703 33.6153 123.511 34.2779 123.511 35.1273C123.511 36.0419 123.712 36.7326 124.113 37.1993C124.524 37.6659 125.121 37.8993 125.905 37.8993C126.316 37.8993 126.708 37.8339 127.081 37.7033C127.464 37.5633 127.828 37.3533 128.173 37.0733L128.551 37.8993Z" fill="#728A96"/>
<path d="M21.848 70.7393V53.6513H28.136C30.008 53.6513 31.6 53.9873 32.912 54.6593C34.224 55.3313 35.224 56.3073 35.912 57.5873C36.616 58.8513 36.968 60.3793 36.968 62.1713C36.968 63.9793 36.616 65.5233 35.912 66.8033C35.224 68.0833 34.216 69.0593 32.888 69.7313C31.576 70.4033 29.992 70.7393 28.136 70.7393H21.848ZM24.944 68.2193H27.944C29.912 68.2193 31.384 67.7153 32.36 66.7073C33.352 65.6993 33.848 64.1873 33.848 62.1713C33.848 58.1713 31.88 56.1713 27.944 56.1713H24.944V68.2193ZM45.3858 70.9073C44.1218 70.9073 43.0258 70.6513 42.0978 70.1393C41.1858 69.6273 40.4818 68.9073 39.9858 67.9793C39.4898 67.0353 39.2418 65.9153 39.2418 64.6193C39.2418 63.3393 39.4898 62.2273 39.9858 61.2833C40.4818 60.3233 41.1858 59.5873 42.0978 59.0753C43.0258 58.5633 44.1218 58.3073 45.3858 58.3073C46.6178 58.3073 47.6898 58.5633 48.6018 59.0753C49.5298 59.5873 50.2418 60.3233 50.7378 61.2833C51.2498 62.2273 51.5058 63.3393 51.5058 64.6193C51.5058 65.9153 51.2498 67.0353 50.7378 67.9793C50.2418 68.9073 49.5298 69.6273 48.6018 70.1393C47.6898 70.6513 46.6178 70.9073 45.3858 70.9073ZM45.3858 68.6033C46.3778 68.6033 47.1378 68.2753 47.6658 67.6193C48.2098 66.9473 48.4818 65.9473 48.4818 64.6193C48.4818 63.3073 48.2098 62.3233 47.6658 61.6673C47.1378 60.9953 46.3778 60.6593 45.3858 60.6593C44.3778 60.6593 43.5938 60.9953 43.0338 61.6673C42.4898 62.3233 42.2178 63.3073 42.2178 64.6193C42.2178 65.9473 42.4898 66.9473 43.0338 67.6193C43.5778 68.2753 44.3618 68.6033 45.3858 68.6033ZM54.0689 70.7393V62.0513C54.0689 61.4753 54.0529 60.8993 54.0209 60.3233C54.0049 59.7473 53.9569 59.1793 53.8769 58.6193H56.7089L56.9729 61.0193L56.7089 61.0913C57.0929 60.1793 57.6609 59.4913 58.4129 59.0273C59.1809 58.5473 60.0609 58.3073 61.0529 58.3073C63.9329 58.3073 65.3729 59.9713 65.3729 63.2993V70.7393H62.3729V63.4193C62.3729 62.4753 62.1889 61.7873 61.8209 61.3553C61.4529 60.9073 60.8849 60.6833 60.1169 60.6833C59.1889 60.6833 58.4449 60.9793 57.8849 61.5713C57.3409 62.1473 57.0689 62.9153 57.0689 63.8753V70.7393H54.0689ZM72.8984 70.9073C71.4104 70.9073 70.2904 70.4993 69.5384 69.6833C68.8024 68.8513 68.4344 67.6033 68.4344 65.9393V58.6193H71.4344V65.9633C71.4344 66.8433 71.6184 67.4913 71.9864 67.9073C72.3544 68.3233 72.9064 68.5313 73.6424 68.5313C74.5224 68.5313 75.2264 68.2433 75.7544 67.6673C76.2824 67.0913 76.5464 66.3233 76.5464 65.3633V58.6193H79.5704V70.7393H76.6424V68.2433L76.9544 68.2193C76.6024 69.0993 76.0744 69.7713 75.3704 70.2353C74.6664 70.6833 73.8424 70.9073 72.8984 70.9073ZM81.2919 60.8753V58.6193H89.8359V60.8753H81.2919ZM89.8359 68.2433V70.6193C89.5159 70.7313 89.1959 70.8033 88.8759 70.8353C88.5719 70.8833 88.2439 70.9073 87.8919 70.9073C86.5319 70.9073 85.4759 70.5233 84.7239 69.7553C83.9879 68.9873 83.6199 67.8833 83.6199 66.4433V55.6673L86.6199 54.6593V66.2993C86.6199 66.8433 86.7079 67.2753 86.8839 67.5953C87.0599 67.8993 87.2919 68.1153 87.5799 68.2433C87.8839 68.3713 88.2199 68.4353 88.5879 68.4353C88.7959 68.4353 88.9959 68.4193 89.1879 68.3873C89.3799 68.3553 89.5959 68.3073 89.8359 68.2433ZM96.3376 70.9073C94.1296 70.9073 92.3856 70.4033 91.1056 69.3953L91.9456 67.2833C92.5856 67.7633 93.2816 68.1233 94.0336 68.3633C94.7856 68.6033 95.5696 68.7233 96.3856 68.7233C97.1216 68.7233 97.6816 68.6033 98.0656 68.3633C98.4496 68.1233 98.6416 67.7873 98.6416 67.3553C98.6416 66.9873 98.5056 66.6993 98.2336 66.4913C97.9616 66.2673 97.4976 66.0753 96.8416 65.9153L94.8256 65.4593C93.7216 65.2193 92.8896 64.8193 92.3296 64.2593C91.7856 63.6833 91.5136 62.9553 91.5136 62.0753C91.5136 61.3393 91.7216 60.6913 92.1376 60.1313C92.5536 59.5553 93.1376 59.1073 93.8896 58.7873C94.6416 58.4673 95.5136 58.3073 96.5056 58.3073C97.3696 58.3073 98.2016 58.4433 99.0016 58.7153C99.8016 58.9713 100.498 59.3473 101.09 59.8433L100.226 61.9073C99.6176 61.4433 98.9936 61.0993 98.3536 60.8753C97.7296 60.6513 97.1056 60.5393 96.4816 60.5393C95.7936 60.5393 95.2576 60.6673 94.8736 60.9233C94.4896 61.1793 94.2976 61.5313 94.2976 61.9793C94.2976 62.3313 94.4096 62.6113 94.6336 62.8193C94.8736 63.0273 95.2816 63.1953 95.8576 63.3233L97.8976 63.8273C99.0976 64.0833 99.9696 64.4993 100.514 65.0753C101.074 65.6353 101.354 66.3793 101.354 67.3073C101.354 68.4113 100.906 69.2913 100.01 69.9473C99.1136 70.5873 97.8896 70.9073 96.3376 70.9073ZM115.691 70.9073C114.523 70.9073 113.499 70.7153 112.619 70.3313C111.739 69.9473 111.051 69.4113 110.555 68.7233C110.075 68.0193 109.835 67.2033 109.835 66.2753C109.835 65.1073 110.203 64.0833 110.939 63.2033C111.675 62.3233 112.859 61.4913 114.491 60.7073C115.403 60.2433 116.123 59.8273 116.651 59.4593C117.179 59.0913 117.547 58.7393 117.755 58.4033C117.979 58.0673 118.091 57.6993 118.091 57.2993C118.091 56.7713 117.931 56.3473 117.611 56.0273C117.291 55.7073 116.867 55.5473 116.339 55.5473C115.747 55.5473 115.267 55.7233 114.899 56.0753C114.547 56.4273 114.371 56.8913 114.371 57.4673C114.371 57.7553 114.419 58.0353 114.515 58.3073C114.627 58.5633 114.811 58.8593 115.067 59.1953C115.339 59.5153 115.723 59.9393 116.219 60.4673L122.075 66.5633C122.603 67.0913 123.179 67.5553 123.803 67.9553C124.427 68.3393 125.123 68.6593 125.891 68.9153L124.403 70.9553C123.555 70.6673 122.803 70.3153 122.147 69.8993C121.491 69.4833 120.899 69.0033 120.371 68.4593L113.675 61.4993C113.195 60.9873 112.803 60.5153 112.499 60.0833C112.195 59.6353 111.971 59.2033 111.827 58.7873C111.699 58.3553 111.635 57.9233 111.635 57.4913C111.635 56.6913 111.827 55.9953 112.211 55.4033C112.611 54.7953 113.163 54.3233 113.867 53.9873C114.571 53.6513 115.379 53.4833 116.291 53.4833C117.587 53.4833 118.619 53.8193 119.387 54.4913C120.171 55.1633 120.563 56.0593 120.563 57.1793C120.563 57.8673 120.403 58.4993 120.083 59.0753C119.763 59.6513 119.259 60.2113 118.571 60.7553C117.883 61.2833 116.979 61.8193 115.859 62.3633C115.139 62.7313 114.547 63.1073 114.083 63.4913C113.619 63.8753 113.283 64.2833 113.075 64.7153C112.867 65.1313 112.763 65.5953 112.763 66.1073C112.763 66.8753 113.035 67.4833 113.579 67.9313C114.123 68.3793 114.859 68.6033 115.787 68.6033C116.875 68.6033 117.859 68.2593 118.739 67.5713C119.619 66.8673 120.331 65.9073 120.875 64.6913C121.419 63.4593 121.723 62.0433 121.787 60.4433H124.307C124.259 61.9793 124.003 63.3873 123.539 64.6673C123.075 65.9473 122.459 67.0513 121.691 67.9793C120.923 68.9073 120.027 69.6273 119.003 70.1393C117.995 70.6513 116.891 70.9073 115.691 70.9073ZM133.786 70.7393V53.6513H140.074C141.946 53.6513 143.538 53.9873 144.85 54.6593C146.162 55.3313 147.162 56.3073 147.85 57.5873C148.554 58.8513 148.906 60.3793 148.906 62.1713C148.906 63.9793 148.554 65.5233 147.85 66.8033C147.162 68.0833 146.154 69.0593 144.826 69.7313C143.514 70.4033 141.93 70.7393 140.074 70.7393H133.786ZM136.882 68.2193H139.882C141.85 68.2193 143.322 67.7153 144.298 66.7073C145.29 65.6993 145.786 64.1873 145.786 62.1713C145.786 58.1713 143.818 56.1713 139.882 56.1713H136.882V68.2193ZM157.323 70.9073C156.059 70.9073 154.963 70.6513 154.035 70.1393C153.123 69.6273 152.419 68.9073 151.923 67.9793C151.427 67.0353 151.179 65.9153 151.179 64.6193C151.179 63.3393 151.427 62.2273 151.923 61.2833C152.419 60.3233 153.123 59.5873 154.035 59.0753C154.963 58.5633 156.059 58.3073 157.323 58.3073C158.555 58.3073 159.627 58.5633 160.539 59.0753C161.467 59.5873 162.179 60.3233 162.675 61.2833C163.187 62.2273 163.443 63.3393 163.443 64.6193C163.443 65.9153 163.187 67.0353 162.675 67.9793C162.179 68.9073 161.467 69.6273 160.539 70.1393C159.627 70.6513 158.555 70.9073 157.323 70.9073ZM157.323 68.6033C158.315 68.6033 159.075 68.2753 159.603 67.6193C160.147 66.9473 160.419 65.9473 160.419 64.6193C160.419 63.3073 160.147 62.3233 159.603 61.6673C159.075 60.9953 158.315 60.6593 157.323 60.6593C156.315 60.6593 155.531 60.9953 154.971 61.6673C154.427 62.3233 154.155 63.3073 154.155 64.6193C154.155 65.9473 154.427 66.9473 154.971 67.6193C155.515 68.2753 156.299 68.6033 157.323 68.6033ZM166.006 70.7393V62.0513C166.006 61.4753 165.99 60.8993 165.958 60.3233C165.942 59.7473 165.894 59.1793 165.814 58.6193H168.646L168.91 61.0193L168.646 61.0913C169.03 60.1793 169.598 59.4913 170.35 59.0273C171.118 58.5473 171.998 58.3073 172.99 58.3073C175.87 58.3073 177.31 59.9713 177.31 63.2993V70.7393H174.31V63.4193C174.31 62.4753 174.126 61.7873 173.758 61.3553C173.39 60.9073 172.822 60.6833 172.054 60.6833C171.126 60.6833 170.382 60.9793 169.822 61.5713C169.278 62.1473 169.006 62.9153 169.006 63.8753V70.7393H166.006ZM185.172 70.9073C184.116 70.9073 183.18 70.6593 182.364 70.1633C181.548 69.6513 180.916 68.9313 180.468 68.0033C180.036 67.0593 179.82 65.9553 179.82 64.6913C179.82 63.4113 180.044 62.2993 180.492 61.3553C180.94 60.3953 181.564 59.6513 182.364 59.1233C183.18 58.5793 184.116 58.3073 185.172 58.3073C186.196 58.3073 187.084 58.5633 187.836 59.0753C188.604 59.5713 189.124 60.2673 189.396 61.1633L189.108 61.3313V58.6193H192.06V70.7393H189.108V68.0033L189.396 68.0993C189.124 68.9953 188.604 69.6913 187.836 70.1873C187.084 70.6673 186.196 70.9073 185.172 70.9073ZM185.988 68.6033C186.98 68.6033 187.748 68.2593 188.292 67.5713C188.836 66.8833 189.108 65.9073 189.108 64.6433C189.108 63.3473 188.836 62.3633 188.292 61.6913C187.748 61.0033 186.98 60.6593 185.988 60.6593C184.98 60.6593 184.196 61.0113 183.636 61.7153C183.076 62.4193 182.796 63.4113 182.796 64.6913C182.796 65.9393 183.076 66.9073 183.636 67.5953C184.196 68.2673 184.98 68.6033 185.988 68.6033ZM193.815 60.8753V58.6193H202.359V60.8753H193.815ZM202.359 68.2433V70.6193C202.039 70.7313 201.719 70.8033 201.399 70.8353C201.095 70.8833 200.767 70.9073 200.415 70.9073C199.055 70.9073 197.999 70.5233 197.247 69.7553C196.511 68.9873 196.143 67.8833 196.143 66.4433V55.6673L199.143 54.6593V66.2993C199.143 66.8433 199.231 67.2753 199.407 67.5953C199.583 67.8993 199.815 68.1153 200.103 68.2433C200.407 68.3713 200.743 68.4353 201.111 68.4353C201.319 68.4353 201.519 68.4193 201.711 68.3873C201.903 68.3553 202.119 68.3073 202.359 68.2433ZM214.813 69.3953C214.237 69.8753 213.525 70.2513 212.677 70.5233C211.845 70.7793 210.997 70.9073 210.133 70.9073C208.821 70.9073 207.685 70.6593 206.725 70.1633C205.781 69.6673 205.053 68.9473 204.541 68.0033C204.029 67.0593 203.773 65.9393 203.773 64.6433C203.773 63.3953 204.021 62.2993 204.517 61.3553C205.013 60.3953 205.701 59.6513 206.581 59.1233C207.461 58.5793 208.477 58.3073 209.629 58.3073C210.749 58.3073 211.709 58.5553 212.509 59.0513C213.309 59.5313 213.925 60.2273 214.357 61.1393C214.805 62.0513 215.029 63.1313 215.029 64.3793V64.8353H206.413L206.437 63.2273H213.253L212.437 64.0433C212.453 62.8753 212.221 61.9873 211.741 61.3793C211.277 60.7713 210.597 60.4673 209.701 60.4673C208.741 60.4673 207.997 60.8113 207.469 61.4993C206.941 62.1713 206.677 63.1393 206.677 64.4033C206.677 65.8433 206.973 66.9073 207.565 67.5953C208.157 68.2673 209.053 68.6033 210.253 68.6033C210.909 68.6033 211.549 68.4993 212.173 68.2913C212.813 68.0673 213.405 67.7473 213.949 67.3313L214.813 69.3953Z" fill="black"/>
<path d="M263.442 38.7393H262.252L266.634 28.7713H267.642L272.024 38.7393H270.848L266.942 29.6113H267.362L263.442 38.7393ZM264.114 36.1773L264.52 35.2253H269.756L270.162 36.1773H264.114ZM275.865 38.8373C275.025 38.8373 274.391 38.6039 273.961 38.1373C273.541 37.6706 273.331 36.9799 273.331 36.0653V31.6973H274.465V36.0373C274.465 36.6719 274.596 37.1386 274.857 37.4373C275.119 37.7359 275.515 37.8853 276.047 37.8853C276.673 37.8853 277.177 37.6846 277.559 37.2833C277.942 36.8819 278.133 36.3453 278.133 35.6733V31.6973H279.267V38.7393H278.161V37.2133L278.329 37.1293C278.143 37.6893 277.825 38.1139 277.377 38.4033C276.939 38.6926 276.435 38.8373 275.865 38.8373ZM280.459 32.5933V31.6973H284.981V32.5933H280.459ZM284.953 37.7313V38.6973C284.795 38.7439 284.636 38.7766 284.477 38.7953C284.328 38.8233 284.16 38.8373 283.973 38.8373C283.32 38.8373 282.797 38.6506 282.405 38.2773C282.023 37.9039 281.831 37.3439 281.831 36.5973V29.8913L282.965 29.4853V36.4433C282.965 36.8166 283.017 37.1059 283.119 37.3113C283.231 37.5166 283.381 37.6613 283.567 37.7453C283.754 37.8199 283.964 37.8573 284.197 37.8573C284.337 37.8573 284.463 37.8479 284.575 37.8293C284.687 37.8106 284.813 37.7779 284.953 37.7313ZM289.26 38.8373C288.588 38.8373 288 38.6879 287.496 38.3893C287.001 38.0906 286.614 37.6706 286.334 37.1293C286.063 36.5786 285.928 35.9299 285.928 35.1833C285.928 34.4459 286.063 33.8019 286.334 33.2513C286.614 32.7006 287.001 32.2759 287.496 31.9773C288 31.6786 288.588 31.5293 289.26 31.5293C289.932 31.5293 290.515 31.6786 291.01 31.9773C291.514 32.2759 291.901 32.7006 292.172 33.2513C292.452 33.8019 292.592 34.4459 292.592 35.1833C292.592 35.9299 292.452 36.5786 292.172 37.1293C291.901 37.6706 291.514 38.0906 291.01 38.3893C290.515 38.6879 289.932 38.8373 289.26 38.8373ZM289.26 37.8993C289.951 37.8993 290.483 37.6706 290.856 37.2133C291.239 36.7466 291.43 36.0699 291.43 35.1833C291.43 34.3153 291.239 33.6479 290.856 33.1813C290.473 32.7146 289.941 32.4813 289.26 32.4813C288.579 32.4813 288.042 32.7146 287.65 33.1813C287.267 33.6479 287.076 34.3153 287.076 35.1833C287.076 36.0699 287.263 36.7466 287.636 37.2133C288.019 37.6706 288.56 37.8993 289.26 37.8993ZM294.36 38.7393V33.6713C294.36 33.3446 294.35 33.0179 294.332 32.6913C294.322 32.3553 294.294 32.0239 294.248 31.6973H295.326L295.452 33.1533L295.312 33.2513C295.48 32.7006 295.769 32.2759 296.18 31.9773C296.6 31.6786 297.094 31.5293 297.664 31.5293C298.345 31.5293 298.872 31.6973 299.246 32.0333C299.628 32.3693 299.871 32.8826 299.974 33.5733L299.638 33.3913C299.787 32.8219 300.086 32.3693 300.534 32.0333C300.991 31.6973 301.537 31.5293 302.172 31.5293C302.946 31.5293 303.53 31.7626 303.922 32.2293C304.314 32.6866 304.51 33.3819 304.51 34.3153V38.7393H303.376V34.3713C303.376 33.7179 303.259 33.2419 303.026 32.9433C302.792 32.6353 302.424 32.4813 301.92 32.4813C301.332 32.4813 300.865 32.6819 300.52 33.0833C300.184 33.4846 300.016 34.0306 300.016 34.7213V38.7393H298.882V34.3713C298.882 33.7179 298.76 33.2419 298.518 32.9433C298.284 32.6353 297.916 32.4813 297.412 32.4813C296.814 32.4813 296.343 32.6819 295.998 33.0833C295.662 33.4846 295.494 34.0306 295.494 34.7213V38.7393H294.36ZM309.366 38.8373C308.741 38.8373 308.19 38.6926 307.714 38.4033C307.248 38.1046 306.884 37.6846 306.622 37.1433C306.37 36.5926 306.244 35.9486 306.244 35.2113C306.244 34.4739 306.375 33.8299 306.636 33.2793C306.898 32.7286 307.262 32.2993 307.728 31.9913C308.204 31.6833 308.75 31.5293 309.366 31.5293C310.01 31.5293 310.556 31.6879 311.004 32.0053C311.452 32.3226 311.756 32.7753 311.914 33.3633L311.746 33.4753V31.6973H312.866V38.7393H311.746V36.9193L311.914 37.0033C311.756 37.5913 311.452 38.0439 311.004 38.3613C310.556 38.6786 310.01 38.8373 309.366 38.8373ZM309.59 37.8993C310.281 37.8993 310.813 37.6659 311.186 37.1993C311.56 36.7233 311.746 36.0513 311.746 35.1833C311.746 34.3153 311.555 33.6479 311.172 33.1813C310.799 32.7146 310.272 32.4813 309.59 32.4813C308.9 32.4813 308.358 32.7239 307.966 33.2093C307.584 33.6853 307.392 34.3526 307.392 35.2113C307.392 36.0699 307.584 36.7326 307.966 37.1993C308.358 37.6659 308.9 37.8993 309.59 37.8993ZM314.065 32.5933V31.6973H318.587V32.5933H314.065ZM318.559 37.7313V38.6973C318.4 38.7439 318.241 38.7766 318.083 38.7953C317.933 38.8233 317.765 38.8373 317.579 38.8373C316.925 38.8373 316.403 38.6506 316.011 38.2773C315.628 37.9039 315.437 37.3439 315.437 36.5973V29.8913L316.571 29.4853V36.4433C316.571 36.8166 316.622 37.1059 316.725 37.3113C316.837 37.5166 316.986 37.6613 317.173 37.7453C317.359 37.8199 317.569 37.8573 317.803 37.8573C317.943 37.8573 318.069 37.8479 318.181 37.8293C318.293 37.8106 318.419 37.7779 318.559 37.7313ZM322.907 38.8373C322.217 38.8373 321.619 38.6879 321.115 38.3893C320.611 38.0906 320.219 37.6706 319.939 37.1293C319.669 36.5879 319.533 35.9486 319.533 35.2113C319.533 34.4833 319.673 33.8439 319.953 33.2933C320.233 32.7333 320.63 32.2993 321.143 31.9913C321.657 31.6833 322.263 31.5293 322.963 31.5293C323.439 31.5293 323.897 31.6133 324.335 31.7813C324.783 31.9399 325.152 32.1639 325.441 32.4533L325.063 33.2933C324.718 33.0226 324.377 32.8219 324.041 32.6913C323.715 32.5513 323.374 32.4813 323.019 32.4813C322.31 32.4813 321.745 32.7193 321.325 33.1953C320.915 33.6713 320.709 34.3433 320.709 35.2113C320.709 36.0699 320.915 36.7326 321.325 37.1993C321.736 37.6659 322.301 37.8993 323.019 37.8993C323.365 37.8993 323.705 37.8339 324.041 37.7033C324.377 37.5633 324.718 37.3579 325.063 37.0873L325.441 37.9273C325.143 38.2073 324.765 38.4313 324.307 38.5993C323.859 38.7579 323.393 38.8373 322.907 38.8373ZM326.885 38.7393V28.4353H328.019V33.1253L327.837 33.2653C328.033 32.6959 328.36 32.2666 328.817 31.9773C329.274 31.6786 329.802 31.5293 330.399 31.5293C332.088 31.5293 332.933 32.4579 332.933 34.3153V38.7393H331.799V34.3713C331.799 33.7179 331.668 33.2419 331.407 32.9433C331.146 32.6353 330.735 32.4813 330.175 32.4813C329.522 32.4813 328.999 32.6819 328.607 33.0833C328.215 33.4846 328.019 34.0259 328.019 34.7073V38.7393H326.885Z" fill="#728A96"/>
<path d="M267.856 70.7393V56.1953H262.288V53.6513H276.544V56.1953H270.976V70.7393H267.856ZM276.546 70.7393V62.0513C276.546 61.4913 276.53 60.9233 276.498 60.3473C276.482 59.7553 276.434 59.1793 276.354 58.6193H279.186L279.522 61.7393L279.186 61.5713C279.394 60.4993 279.866 59.6913 280.602 59.1473C281.338 58.6033 282.17 58.3313 283.098 58.3313C283.338 58.3313 283.562 58.3473 283.77 58.3793C283.978 58.4113 284.162 58.4593 284.322 58.5233L284.274 61.2593C283.778 61.0513 283.25 60.9473 282.69 60.9473C281.97 60.9473 281.378 61.0913 280.914 61.3793C280.466 61.6673 280.122 62.0593 279.882 62.5553C279.658 63.0353 279.546 63.5793 279.546 64.1873V70.7393H276.546ZM285.944 70.7393V58.6193H288.944V70.7393H285.944ZM285.8 53.1233H289.136V56.0753H285.8V53.1233ZM297.746 76.0913C295.874 76.0913 294.234 75.7073 292.826 74.9393L293.306 72.6593C294.042 73.0433 294.762 73.3233 295.466 73.4993C296.186 73.6913 296.93 73.7873 297.698 73.7873C298.77 73.7873 299.578 73.5233 300.122 72.9953C300.666 72.4673 300.938 71.6673 300.938 70.5953V67.5953H301.226C301.034 68.1073 300.73 68.5793 300.314 69.0113C299.914 69.4273 299.426 69.7633 298.85 70.0193C298.274 70.2593 297.642 70.3793 296.954 70.3793C295.898 70.3793 294.962 70.1313 294.146 69.6353C293.33 69.1393 292.69 68.4433 292.226 67.5473C291.778 66.6353 291.554 65.5713 291.554 64.3553C291.554 63.1393 291.778 62.0833 292.226 61.1873C292.69 60.2753 293.33 59.5713 294.146 59.0753C294.962 58.5633 295.898 58.3073 296.954 58.3073C297.994 58.3073 298.898 58.5633 299.666 59.0753C300.434 59.5873 300.954 60.2753 301.226 61.1393L300.938 61.1873V58.6193H303.914V70.3553C303.914 72.2433 303.394 73.6673 302.354 74.6273C301.314 75.6033 299.778 76.0913 297.746 76.0913ZM297.77 68.0513C298.762 68.0513 299.538 67.7233 300.098 67.0673C300.658 66.4113 300.938 65.5073 300.938 64.3553C300.938 63.2033 300.658 62.2993 300.098 61.6433C299.538 60.9873 298.762 60.6593 297.77 60.6593C296.762 60.6593 295.97 60.9873 295.394 61.6433C294.818 62.2993 294.53 63.2033 294.53 64.3553C294.53 65.5073 294.818 66.4113 295.394 67.0673C295.97 67.7233 296.762 68.0513 297.77 68.0513ZM312.699 76.0913C310.827 76.0913 309.187 75.7073 307.779 74.9393L308.259 72.6593C308.995 73.0433 309.715 73.3233 310.419 73.4993C311.139 73.6913 311.883 73.7873 312.651 73.7873C313.723 73.7873 314.531 73.5233 315.075 72.9953C315.619 72.4673 315.891 71.6673 315.891 70.5953V67.5953H316.179C315.987 68.1073 315.683 68.5793 315.267 69.0113C314.867 69.4273 314.379 69.7633 313.803 70.0193C313.227 70.2593 312.595 70.3793 311.907 70.3793C310.851 70.3793 309.915 70.1313 309.099 69.6353C308.283 69.1393 307.643 68.4433 307.179 67.5473C306.731 66.6353 306.507 65.5713 306.507 64.3553C306.507 63.1393 306.731 62.0833 307.179 61.1873C307.643 60.2753 308.283 59.5713 309.099 59.0753C309.915 58.5633 310.851 58.3073 311.907 58.3073C312.947 58.3073 313.851 58.5633 314.619 59.0753C315.387 59.5873 315.907 60.2753 316.179 61.1393L315.891 61.1873V58.6193H318.867V70.3553C318.867 72.2433 318.347 73.6673 317.307 74.6273C316.267 75.6033 314.731 76.0913 312.699 76.0913ZM312.723 68.0513C313.715 68.0513 314.491 67.7233 315.051 67.0673C315.611 66.4113 315.891 65.5073 315.891 64.3553C315.891 63.2033 315.611 62.2993 315.051 61.6433C314.491 60.9873 313.715 60.6593 312.723 60.6593C311.715 60.6593 310.923 60.9873 310.347 61.6433C309.771 62.2993 309.483 63.2033 309.483 64.3553C309.483 65.5073 309.771 66.4113 310.347 67.0673C310.923 67.7233 311.715 68.0513 312.723 68.0513ZM332.501 69.3953C331.925 69.8753 331.213 70.2513 330.365 70.5233C329.533 70.7793 328.685 70.9073 327.821 70.9073C326.509 70.9073 325.373 70.6593 324.413 70.1633C323.469 69.6673 322.741 68.9473 322.229 68.0033C321.717 67.0593 321.461 65.9393 321.461 64.6433C321.461 63.3953 321.709 62.2993 322.205 61.3553C322.701 60.3953 323.389 59.6513 324.269 59.1233C325.149 58.5793 326.165 58.3073 327.317 58.3073C328.437 58.3073 329.397 58.5553 330.197 59.0513C330.997 59.5313 331.613 60.2273 332.045 61.1393C332.493 62.0513 332.717 63.1313 332.717 64.3793V64.8353H324.101L324.125 63.2273H330.941L330.125 64.0433C330.141 62.8753 329.909 61.9873 329.429 61.3793C328.965 60.7713 328.285 60.4673 327.389 60.4673C326.429 60.4673 325.685 60.8113 325.157 61.4993C324.629 62.1713 324.365 63.1393 324.365 64.4033C324.365 65.8433 324.661 66.9073 325.253 67.5953C325.845 68.2673 326.741 68.6033 327.941 68.6033C328.597 68.6033 329.237 68.4993 329.861 68.2913C330.501 68.0673 331.093 67.7473 331.637 67.3313L332.501 69.3953ZM335.233 70.7393V62.0513C335.233 61.4913 335.217 60.9233 335.185 60.3473C335.169 59.7553 335.121 59.1793 335.041 58.6193H337.873L338.209 61.7393L337.873 61.5713C338.081 60.4993 338.553 59.6913 339.289 59.1473C340.025 58.6033 340.857 58.3313 341.785 58.3313C342.025 58.3313 342.249 58.3473 342.457 58.3793C342.665 58.4113 342.849 58.4593 343.009 58.5233L342.961 61.2593C342.465 61.0513 341.937 60.9473 341.377 60.9473C340.657 60.9473 340.065 61.0913 339.601 61.3793C339.153 61.6673 338.809 62.0593 338.569 62.5553C338.345 63.0353 338.233 63.5793 338.233 64.1873V70.7393H335.233ZM348.978 70.9073C346.77 70.9073 345.026 70.4033 343.746 69.3953L344.586 67.2833C345.226 67.7633 345.922 68.1233 346.674 68.3633C347.426 68.6033 348.21 68.7233 349.026 68.7233C349.762 68.7233 350.322 68.6033 350.706 68.3633C351.09 68.1233 351.282 67.7873 351.282 67.3553C351.282 66.9873 351.146 66.6993 350.874 66.4913C350.602 66.2673 350.138 66.0753 349.482 65.9153L347.466 65.4593C346.362 65.2193 345.53 64.8193 344.97 64.2593C344.426 63.6833 344.154 62.9553 344.154 62.0753C344.154 61.3393 344.362 60.6913 344.778 60.1313C345.194 59.5553 345.778 59.1073 346.53 58.7873C347.282 58.4673 348.154 58.3073 349.146 58.3073C350.01 58.3073 350.842 58.4433 351.642 58.7153C352.442 58.9713 353.138 59.3473 353.73 59.8433L352.866 61.9073C352.258 61.4433 351.634 61.0993 350.994 60.8753C350.37 60.6513 349.746 60.5393 349.122 60.5393C348.434 60.5393 347.898 60.6673 347.514 60.9233C347.13 61.1793 346.938 61.5313 346.938 61.9793C346.938 62.3313 347.05 62.6113 347.274 62.8193C347.514 63.0273 347.922 63.1953 348.498 63.3233L350.538 63.8273C351.738 64.0833 352.61 64.4993 353.154 65.0753C353.714 65.6353 353.994 66.3793 353.994 67.3073C353.994 68.4113 353.546 69.2913 352.65 69.9473C351.754 70.5873 350.53 70.9073 348.978 70.9073Z" fill="#0088CC"/>
<path d="M364.706 58.4462C364.519 58.2588 364.414 58.0049 364.414 57.7402C364.414 57.4756 364.519 57.2217 364.706 57.0342L364.794 56.9462C364.887 56.8532 364.997 56.7794 365.118 56.7291C365.24 56.6788 365.37 56.653 365.501 56.6532C365.633 56.6534 365.763 56.6795 365.884 56.7302C366.005 56.7808 366.115 56.8549 366.208 56.9482L371.292 62.0322C371.385 62.125 371.459 62.2353 371.51 62.3568C371.561 62.4783 371.587 62.6086 371.587 62.7402C371.587 62.8718 371.561 63.0022 371.51 63.1237C371.459 63.2452 371.385 63.3555 371.292 63.4482L366.208 68.5322C366.02 68.7195 365.766 68.8248 365.501 68.8252C365.236 68.8256 364.982 68.721 364.794 68.5342L364.706 68.4462C364.613 68.3538 364.539 68.2438 364.489 68.1226C364.438 68.0014 364.412 67.8715 364.412 67.7402C364.412 67.609 364.438 67.479 364.489 67.3579C364.539 67.2367 364.613 67.1267 364.706 67.0342L369 62.7402L364.706 58.4462Z" fill="#0088CC"/>
<path d="M392 61.7393C392 53.455 398.716 46.7393 407 46.7393H441C449.284 46.7393 456 53.455 456 61.7393V61.7393C456 70.0235 449.284 76.7393 441 76.7393H407C398.716 76.7393 392 70.0235 392 61.7393V61.7393Z" fill="#0088CC"/>
<circle cx="441" cy="61.7393" r="13" fill="white"/>
<path d="M489.488 38.8513C488.536 38.8513 487.715 38.6459 487.024 38.2353C486.333 37.8246 485.801 37.2366 485.428 36.4713C485.055 35.7059 484.868 34.7959 484.868 33.7413C484.868 32.6866 485.055 31.7813 485.428 31.0253C485.801 30.2693 486.333 29.6859 487.024 29.2753C487.715 28.8646 488.536 28.6593 489.488 28.6593C490.169 28.6593 490.799 28.7666 491.378 28.9813C491.957 29.1866 492.456 29.4993 492.876 29.9193L492.442 30.8013C491.966 30.3906 491.495 30.0966 491.028 29.9193C490.561 29.7419 490.053 29.6533 489.502 29.6533C488.41 29.6533 487.561 30.0079 486.954 30.7173C486.357 31.4266 486.058 32.4346 486.058 33.7413C486.058 35.0573 486.357 36.0746 486.954 36.7933C487.551 37.5026 488.401 37.8573 489.502 37.8573C490.053 37.8573 490.561 37.7686 491.028 37.5913C491.495 37.4139 491.966 37.1199 492.442 36.7093L492.876 37.5913C492.456 38.0113 491.957 38.3286 491.378 38.5433C490.799 38.7486 490.169 38.8513 489.488 38.8513ZM497.438 38.8373C496.766 38.8373 496.178 38.6879 495.674 38.3893C495.179 38.0906 494.792 37.6706 494.512 37.1293C494.241 36.5786 494.106 35.9299 494.106 35.1833C494.106 34.4459 494.241 33.8019 494.512 33.2513C494.792 32.7006 495.179 32.2759 495.674 31.9773C496.178 31.6786 496.766 31.5293 497.438 31.5293C498.11 31.5293 498.693 31.6786 499.188 31.9773C499.692 32.2759 500.079 32.7006 500.35 33.2513C500.63 33.8019 500.77 34.4459 500.77 35.1833C500.77 35.9299 500.63 36.5786 500.35 37.1293C500.079 37.6706 499.692 38.0906 499.188 38.3893C498.693 38.6879 498.11 38.8373 497.438 38.8373ZM497.438 37.8993C498.128 37.8993 498.66 37.6706 499.034 37.2133C499.416 36.7466 499.608 36.0699 499.608 35.1833C499.608 34.3153 499.416 33.6479 499.034 33.1813C498.651 32.7146 498.119 32.4813 497.438 32.4813C496.756 32.4813 496.22 32.7146 495.828 33.1813C495.445 33.6479 495.254 34.3153 495.254 35.1833C495.254 36.0699 495.44 36.7466 495.814 37.2133C496.196 37.6706 496.738 37.8993 497.438 37.8993ZM502.537 38.7393V33.6713C502.537 33.3446 502.528 33.0179 502.509 32.6913C502.5 32.3553 502.472 32.0239 502.425 31.6973H503.503L503.629 33.1533L503.489 33.2653C503.685 32.6959 504.012 32.2666 504.469 31.9773C504.927 31.6786 505.454 31.5293 506.051 31.5293C507.741 31.5293 508.585 32.4579 508.585 34.3153V38.7393H507.451V34.3713C507.451 33.7179 507.321 33.2419 507.059 32.9433C506.798 32.6353 506.387 32.4813 505.827 32.4813C505.174 32.4813 504.651 32.6819 504.259 33.0833C503.867 33.4846 503.671 34.0259 503.671 34.7073V38.7393H502.537ZM509.733 32.5933V31.6973H514.255V32.5933H509.733ZM514.227 37.7313V38.6973C514.068 38.7439 513.909 38.7766 513.751 38.7953C513.601 38.8233 513.433 38.8373 513.247 38.8373C512.593 38.8373 512.071 38.6506 511.679 38.2773C511.296 37.9039 511.105 37.3439 511.105 36.5973V29.8913L512.239 29.4853V36.4433C512.239 36.8166 512.29 37.1059 512.393 37.3113C512.505 37.5166 512.654 37.6613 512.841 37.7453C513.027 37.8199 513.237 37.8573 513.471 37.8573C513.611 37.8573 513.737 37.8479 513.849 37.8293C513.961 37.8106 514.087 37.7779 514.227 37.7313ZM521.389 37.8993C521.081 38.1886 520.685 38.4173 520.199 38.5853C519.723 38.7533 519.233 38.8373 518.729 38.8373C518.001 38.8373 517.371 38.6926 516.839 38.4033C516.317 38.1139 515.911 37.6986 515.621 37.1573C515.341 36.6066 515.201 35.9533 515.201 35.1973C515.201 34.4693 515.341 33.8299 515.621 33.2793C515.901 32.7286 516.289 32.2993 516.783 31.9913C517.287 31.6833 517.866 31.5293 518.519 31.5293C519.145 31.5293 519.681 31.6693 520.129 31.9493C520.577 32.2199 520.918 32.6119 521.151 33.1253C521.394 33.6386 521.515 34.2546 521.515 34.9733V35.1833H516.195V34.4413H520.871L520.507 34.9593C520.526 34.1379 520.363 33.5079 520.017 33.0693C519.681 32.6306 519.187 32.4113 518.533 32.4113C517.852 32.4113 517.315 32.6539 516.923 33.1393C516.541 33.6153 516.349 34.2779 516.349 35.1273C516.349 36.0419 516.55 36.7326 516.951 37.1993C517.362 37.6659 517.959 37.8993 518.743 37.8993C519.154 37.8993 519.546 37.8339 519.919 37.7033C520.302 37.5633 520.666 37.3533 521.011 37.0733L521.389 37.8993ZM523.237 38.7393V33.6713C523.237 33.3446 523.227 33.0179 523.209 32.6913C523.199 32.3553 523.171 32.0239 523.125 31.6973H524.203L524.329 33.1533L524.189 33.2653C524.385 32.6959 524.711 32.2666 525.169 31.9773C525.626 31.6786 526.153 31.5293 526.751 31.5293C528.44 31.5293 529.285 32.4579 529.285 34.3153V38.7393H528.151V34.3713C528.151 33.7179 528.02 33.2419 527.759 32.9433C527.497 32.6353 527.087 32.4813 526.527 32.4813C525.873 32.4813 525.351 32.6819 524.959 33.0833C524.567 33.4846 524.371 34.0259 524.371 34.7073V38.7393H523.237ZM530.432 32.5933V31.6973H534.954V32.5933H530.432ZM534.926 37.7313V38.6973C534.767 38.7439 534.609 38.7766 534.45 38.7953C534.301 38.8233 534.133 38.8373 533.946 38.8373C533.293 38.8373 532.77 38.6506 532.378 38.2773C531.995 37.9039 531.804 37.3439 531.804 36.5973V29.8913L532.938 29.4853V36.4433C532.938 36.8166 532.989 37.1059 533.092 37.3113C533.204 37.5166 533.353 37.6613 533.54 37.7453C533.727 37.8199 533.937 37.8573 534.17 37.8573C534.31 37.8573 534.436 37.8479 534.548 37.8293C534.66 37.8106 534.786 37.7779 534.926 37.7313Z" fill="#728A96"/>
<path d="M491.392 70.7393L483.784 53.6513H487.024L493.168 68.0033H492.184L498.4 53.6513H501.52L493.936 70.7393H491.392ZM502.905 70.7393V58.6193H505.905V70.7393H502.905ZM502.761 53.1233H506.097V56.0753H502.761V53.1233ZM519.555 69.3953C518.979 69.8753 518.267 70.2513 517.419 70.5233C516.587 70.7793 515.739 70.9073 514.875 70.9073C513.563 70.9073 512.427 70.6593 511.467 70.1633C510.523 69.6673 509.795 68.9473 509.283 68.0033C508.771 67.0593 508.515 65.9393 508.515 64.6433C508.515 63.3953 508.763 62.2993 509.259 61.3553C509.755 60.3953 510.443 59.6513 511.323 59.1233C512.203 58.5793 513.219 58.3073 514.371 58.3073C515.491 58.3073 516.451 58.5553 517.251 59.0513C518.051 59.5313 518.667 60.2273 519.099 61.1393C519.547 62.0513 519.771 63.1313 519.771 64.3793V64.8353H511.155L511.179 63.2273H517.995L517.179 64.0433C517.195 62.8753 516.963 61.9873 516.483 61.3793C516.019 60.7713 515.339 60.4673 514.443 60.4673C513.483 60.4673 512.739 60.8113 512.211 61.4993C511.683 62.1713 511.419 63.1393 511.419 64.4033C511.419 65.8433 511.715 66.9073 512.307 67.5953C512.899 68.2673 513.795 68.6033 514.995 68.6033C515.651 68.6033 516.291 68.4993 516.915 68.2913C517.555 68.0673 518.147 67.7473 518.691 67.3313L519.555 69.3953ZM525.484 70.7393L520.732 58.6193H523.828L527.236 68.0033H526.636L530.068 58.6193H532.252L535.66 68.0033H535.108L538.516 58.6193H541.42L536.668 70.7393H534.052L530.356 60.9713H531.724L528.1 70.7393H525.484ZM557.866 70.9313C556.17 70.9313 554.698 70.5793 553.45 69.8753C552.202 69.1553 551.242 68.1393 550.57 66.8273C549.914 65.5153 549.586 63.9633 549.586 62.1713C549.586 60.3953 549.914 58.8593 550.57 57.5633C551.242 56.2513 552.202 55.2433 553.45 54.5393C554.698 53.8193 556.17 53.4593 557.866 53.4593C559.018 53.4593 560.098 53.6353 561.106 53.9873C562.13 54.3233 562.978 54.8193 563.65 55.4753L562.642 57.7313C561.858 57.1073 561.09 56.6593 560.338 56.3873C559.586 56.0993 558.778 55.9553 557.914 55.9553C556.266 55.9553 554.986 56.4913 554.074 57.5633C553.178 58.6193 552.73 60.1553 552.73 62.1713C552.73 64.1873 553.178 65.7393 554.074 66.8273C554.986 67.8993 556.266 68.4353 557.914 68.4353C558.778 68.4353 559.586 68.2993 560.338 68.0273C561.09 67.7393 561.858 67.2833 562.642 66.6593L563.65 68.9153C562.978 69.5713 562.13 70.0753 561.106 70.4273C560.098 70.7633 559.018 70.9313 557.866 70.9313ZM571.566 70.9073C570.302 70.9073 569.206 70.6513 568.278 70.1393C567.366 69.6273 566.662 68.9073 566.166 67.9793C565.67 67.0353 565.422 65.9153 565.422 64.6193C565.422 63.3393 565.67 62.2273 566.166 61.2833C566.662 60.3233 567.366 59.5873 568.278 59.0753C569.206 58.5633 570.302 58.3073 571.566 58.3073C572.798 58.3073 573.87 58.5633 574.782 59.0753C575.71 59.5873 576.422 60.3233 576.918 61.2833C577.43 62.2273 577.686 63.3393 577.686 64.6193C577.686 65.9153 577.43 67.0353 576.918 67.9793C576.422 68.9073 575.71 69.6273 574.782 70.1393C573.87 70.6513 572.798 70.9073 571.566 70.9073ZM571.566 68.6033C572.558 68.6033 573.318 68.2753 573.846 67.6193C574.39 66.9473 574.662 65.9473 574.662 64.6193C574.662 63.3073 574.39 62.3233 573.846 61.6673C573.318 60.9953 572.558 60.6593 571.566 60.6593C570.558 60.6593 569.774 60.9953 569.214 61.6673C568.67 62.3233 568.398 63.3073 568.398 64.6193C568.398 65.9473 568.67 66.9473 569.214 67.6193C569.758 68.2753 570.542 68.6033 571.566 68.6033ZM580.249 70.7393V62.0513C580.249 61.4753 580.233 60.8993 580.201 60.3233C580.185 59.7473 580.137 59.1793 580.057 58.6193H582.889L583.153 61.0193L582.889 61.0913C583.273 60.1793 583.841 59.4913 584.593 59.0273C585.361 58.5473 586.241 58.3073 587.233 58.3073C590.113 58.3073 591.553 59.9713 591.553 63.2993V70.7393H588.553V63.4193C588.553 62.4753 588.369 61.7873 588.001 61.3553C587.633 60.9073 587.065 60.6833 586.297 60.6833C585.369 60.6833 584.625 60.9793 584.065 61.5713C583.521 62.1473 583.249 62.9153 583.249 63.8753V70.7393H580.249ZM593.198 60.8753V58.6193H601.742V60.8753H593.198ZM601.742 68.2433V70.6193C601.422 70.7313 601.102 70.8033 600.782 70.8353C600.478 70.8833 600.15 70.9073 599.798 70.9073C598.438 70.9073 597.382 70.5233 596.63 69.7553C595.894 68.9873 595.526 67.8833 595.526 66.4433V55.6673L598.526 54.6593V66.2993C598.526 66.8433 598.614 67.2753 598.79 67.5953C598.966 67.8993 599.198 68.1153 599.486 68.2433C599.79 68.3713 600.126 68.4353 600.494 68.4353C600.702 68.4353 600.902 68.4193 601.094 68.3873C601.286 68.3553 601.502 68.3073 601.742 68.2433ZM614.196 69.3953C613.62 69.8753 612.908 70.2513 612.06 70.5233C611.228 70.7793 610.38 70.9073 609.516 70.9073C608.204 70.9073 607.068 70.6593 606.108 70.1633C605.164 69.6673 604.436 68.9473 603.924 68.0033C603.412 67.0593 603.156 65.9393 603.156 64.6433C603.156 63.3953 603.404 62.2993 603.9 61.3553C604.396 60.3953 605.084 59.6513 605.964 59.1233C606.844 58.5793 607.86 58.3073 609.012 58.3073C610.132 58.3073 611.092 58.5553 611.892 59.0513C612.692 59.5313 613.308 60.2273 613.74 61.1393C614.188 62.0513 614.412 63.1313 614.412 64.3793V64.8353H605.796L605.82 63.2273H612.636L611.82 64.0433C611.836 62.8753 611.604 61.9873 611.124 61.3793C610.66 60.7713 609.98 60.4673 609.084 60.4673C608.124 60.4673 607.38 60.8113 606.852 61.4993C606.324 62.1713 606.06 63.1393 606.06 64.4033C606.06 65.8433 606.356 66.9073 606.948 67.5953C607.54 68.2673 608.436 68.6033 609.636 68.6033C610.292 68.6033 610.932 68.4993 611.556 68.2913C612.196 68.0673 612.788 67.7473 613.332 67.3313L614.196 69.3953ZM616.928 70.7393V62.0513C616.928 61.4753 616.912 60.8993 616.88 60.3233C616.864 59.7473 616.816 59.1793 616.736 58.6193H619.568L619.832 61.0193L619.568 61.0913C619.952 60.1793 620.52 59.4913 621.272 59.0273C622.04 58.5473 622.92 58.3073 623.912 58.3073C626.792 58.3073 628.232 59.9713 628.232 63.2993V70.7393H625.232V63.4193C625.232 62.4753 625.048 61.7873 624.68 61.3553C624.312 60.9073 623.744 60.6833 622.976 60.6833C622.048 60.6833 621.304 60.9793 620.744 61.5713C620.2 62.1473 619.928 62.9153 619.928 63.8753V70.7393H616.928ZM629.878 60.8753V58.6193H638.422V60.8753H629.878ZM638.422 68.2433V70.6193C638.102 70.7313 637.782 70.8033 637.462 70.8353C637.158 70.8833 636.83 70.9073 636.478 70.9073C635.118 70.9073 634.062 70.5233 633.31 69.7553C632.574 68.9873 632.206 67.8833 632.206 66.4433V55.6673L635.206 54.6593V66.2993C635.206 66.8433 635.294 67.2753 635.47 67.5953C635.646 67.8993 635.878 68.1153 636.166 68.2433C636.47 68.3713 636.806 68.4353 637.174 68.4353C637.382 68.4353 637.582 68.4193 637.774 68.3873C637.966 68.3553 638.182 68.3073 638.422 68.2433Z" fill="#0088CC"/>
<path d="M648.706 58.4462C648.519 58.2588 648.414 58.0049 648.414 57.7402C648.414 57.4756 648.519 57.2217 648.706 57.0342L648.794 56.9462C648.887 56.8532 648.997 56.7794 649.118 56.7291C649.24 56.6788 649.37 56.653 649.501 56.6532C649.633 56.6534 649.763 56.6795 649.884 56.7302C650.005 56.7808 650.115 56.8549 650.208 56.9482L655.292 62.0322C655.385 62.125 655.459 62.2353 655.51 62.3568C655.561 62.4783 655.587 62.6086 655.587 62.7402C655.587 62.8718 655.561 63.0022 655.51 63.1237C655.459 63.2452 655.385 63.3555 655.292 63.4482L650.208 68.5322C650.02 68.7195 649.766 68.8248 649.501 68.8252C649.236 68.8256 648.982 68.721 648.794 68.5342L648.706 68.4462C648.613 68.3538 648.539 68.2438 648.489 68.1226C648.438 68.0014 648.412 67.8715 648.412 67.7402C648.412 67.609 648.438 67.479 648.489 67.3579C648.539 67.2367 648.613 67.1267 648.706 67.0342L653 62.7402L648.706 58.4462Z" fill="#0088CC"/>
</svg>
