<svg width="943" height="216" viewBox="0 0 943 216" fill="none" xmlns="http://www.w3.org/2000/svg">
<circle opacity="0.05" cx="63" cy="106.37" r="63" fill="#0088CC"/>
<path d="M63.0311 105.898C67.0894 105.898 70.6032 104.443 73.475 101.571C76.3459 98.6996 77.8019 95.1863 77.8019 91.1275C77.8019 87.0701 76.3463 83.5563 73.4745 80.6841C70.6027 77.8132 67.0889 76.3576 63.0311 76.3576C58.9722 76.3576 55.459 77.8132 52.5876 80.6845C49.7163 83.5559 48.2602 87.0696 48.2602 91.1275C48.2602 95.1863 49.7163 98.7001 52.5876 101.571C55.4599 104.442 58.9736 105.898 63.0311 105.898V105.898ZM55.1291 83.2255C57.3323 81.0223 59.9169 79.9514 63.0311 79.9514C66.1448 79.9514 68.7298 81.0223 70.9335 83.2255C73.1367 85.4292 74.2081 88.0143 74.2081 91.1275C74.2081 94.2417 73.1367 96.8262 70.9335 99.0299C68.7298 101.234 66.1448 102.305 63.0311 102.305C59.9178 102.305 57.3333 101.233 55.1291 99.0299C52.9254 96.8267 51.854 94.2417 51.854 91.1275C51.854 88.0143 52.9254 85.4292 55.1291 83.2255Z" fill="#0088CC"/>
<path d="M88.876 123.514C88.7932 122.319 88.6257 121.015 88.3791 119.639C88.1302 118.252 87.8097 116.941 87.4261 115.743C87.0293 114.504 86.4908 113.281 85.8241 112.109C85.133 110.893 84.3208 109.834 83.4094 108.962C82.4563 108.05 81.2894 107.317 79.9401 106.782C78.5954 106.25 77.1052 105.981 75.5111 105.981C74.8851 105.981 74.2797 106.238 73.1105 106.999C72.3909 107.468 71.5492 108.011 70.6097 108.611C69.8063 109.123 68.7181 109.603 67.3739 110.037C66.0624 110.461 64.7308 110.676 63.4161 110.676C62.1023 110.676 60.7707 110.461 59.4583 110.037C58.1155 109.603 57.0268 109.123 56.2248 108.612C55.2942 108.017 54.4521 107.474 53.7217 106.998C52.5534 106.237 51.948 105.98 51.322 105.98C49.7275 105.98 48.2377 106.25 46.8935 106.783C45.5451 107.316 44.3778 108.05 43.4238 108.962C42.5124 109.835 41.7001 110.893 41.0095 112.109C40.3438 113.281 39.8048 114.504 39.408 115.743C39.0248 116.942 38.7043 118.252 38.4554 119.639C38.2084 121.014 38.0413 122.318 37.9585 123.515C37.8771 124.686 37.8359 125.905 37.8359 127.137C37.8359 130.338 38.8536 132.929 40.8603 134.841C42.8422 136.727 45.4642 137.683 48.6537 137.683H78.1822C81.3708 137.683 83.9928 136.727 85.9752 134.841C87.9824 132.931 89 130.338 89 127.136C88.9995 125.9 88.9579 124.682 88.876 123.514V123.514ZM83.4973 132.237C82.1877 133.483 80.4491 134.089 78.1818 134.089H48.6537C46.3859 134.089 44.6473 133.483 43.3382 132.237C42.0538 131.015 41.4297 129.346 41.4297 127.137C41.4297 125.988 41.4676 124.853 41.5434 123.764C41.6173 122.695 41.7684 121.521 41.9925 120.274C42.2138 119.042 42.4955 117.886 42.8305 116.839C43.1519 115.836 43.5903 114.842 44.134 113.885C44.6529 112.972 45.2499 112.189 45.9087 111.559C46.5249 110.969 47.3015 110.486 48.2167 110.124C49.0631 109.789 50.0143 109.605 51.0469 109.578C51.1727 109.645 51.3968 109.772 51.7599 110.009C52.4987 110.491 53.3502 111.04 54.2916 111.641C55.3527 112.318 56.7199 112.929 58.3532 113.456C60.0231 113.996 61.7261 114.27 63.4166 114.27C65.107 114.27 66.8105 113.996 68.4794 113.456C70.1142 112.928 71.4809 112.318 72.5434 111.64C73.5068 111.024 74.3344 110.491 75.0732 110.009C75.4363 109.773 75.6604 109.645 75.7863 109.578C76.8193 109.605 77.7705 109.789 78.6174 110.124C79.5321 110.486 80.3087 110.969 80.9249 111.559C81.5837 112.189 82.1807 112.972 82.6996 113.885C83.2437 114.842 83.6826 115.836 84.0036 116.839C84.339 117.887 84.6212 119.042 84.842 120.273C85.0656 121.523 85.2172 122.697 85.2911 123.764V123.765C85.3674 124.85 85.4058 125.984 85.4062 127.137C85.4058 129.346 84.7816 131.015 83.4973 132.237V132.237Z" fill="#0088CC"/>
<path d="M7.92122 209.37H5.88122L13.3932 192.282H15.1212L22.6332 209.37H20.6172L13.9212 193.722H14.6412L7.92122 209.37ZM9.07322 204.978L9.76922 203.346H18.7452L19.4412 204.978H9.07322ZM35.5782 209.37H33.6582V206.13L33.9462 206.394C33.6742 207.402 33.1542 208.178 32.3862 208.722C31.6182 209.266 30.6822 209.538 29.5782 209.538C28.5222 209.538 27.5862 209.282 26.7702 208.77C25.9702 208.242 25.3462 207.506 24.8982 206.562C24.4502 205.602 24.2262 204.49 24.2262 203.226C24.2262 201.962 24.4422 200.866 24.8742 199.938C25.3222 199.01 25.9462 198.29 26.7462 197.778C27.5622 197.266 28.5062 197.01 29.5782 197.01C30.6822 197.01 31.6182 197.29 32.3862 197.85C33.1542 198.394 33.6742 199.162 33.9462 200.154L33.6342 200.394V191.706H35.5782V209.37ZM29.9622 207.93C31.1302 207.93 32.0342 207.53 32.6742 206.73C33.3302 205.914 33.6582 204.762 33.6582 203.274C33.6582 201.802 33.3382 200.666 32.6982 199.866C32.0582 199.05 31.1462 198.642 29.9622 198.642C28.7782 198.642 27.8502 199.042 27.1782 199.842C26.5222 200.642 26.1942 201.77 26.1942 203.226C26.1942 204.714 26.5222 205.874 27.1782 206.706C27.8502 207.522 28.7782 207.93 29.9622 207.93ZM42.8888 209.37L37.7528 197.322H39.7928L44.1608 207.954H43.5848L48.0008 197.322H49.9448L44.7368 209.37H42.8888ZM61.8342 207.93C61.3062 208.426 60.6262 208.818 59.7942 209.106C58.9782 209.394 58.1382 209.538 57.2742 209.538C56.0262 209.538 54.9462 209.29 54.0342 208.794C53.1382 208.298 52.4422 207.586 51.9462 206.658C51.4662 205.714 51.2262 204.594 51.2262 203.298C51.2262 202.05 51.4662 200.954 51.9462 200.01C52.4262 199.066 53.0902 198.33 53.9382 197.802C54.8022 197.274 55.7942 197.01 56.9142 197.01C57.9862 197.01 58.9062 197.25 59.6742 197.73C60.4422 198.194 61.0262 198.866 61.4262 199.746C61.8422 200.626 62.0502 201.682 62.0502 202.914V203.274H52.9302V202.002H60.9462L60.3222 202.89C60.3542 201.482 60.0742 200.402 59.4822 199.65C58.9062 198.898 58.0582 198.522 56.9382 198.522C55.7702 198.522 54.8502 198.938 54.1782 199.77C53.5222 200.586 53.1942 201.722 53.1942 203.178C53.1942 204.746 53.5382 205.93 54.2262 206.73C54.9302 207.53 55.9542 207.93 57.2982 207.93C58.0022 207.93 58.6742 207.818 59.3142 207.594C59.9702 207.354 60.5942 206.994 61.1862 206.514L61.8342 207.93ZM65.0009 209.37V200.682C65.0009 200.122 64.9849 199.562 64.9529 199.002C64.9369 198.426 64.8889 197.858 64.8089 197.298H66.6569L66.9209 200.274L66.6569 200.202C66.8809 199.146 67.3609 198.354 68.0969 197.826C68.8489 197.282 69.6889 197.01 70.6169 197.01C70.8249 197.01 71.0169 197.026 71.1929 197.058C71.3849 197.074 71.5609 197.106 71.7209 197.154L71.6729 198.93C71.3049 198.802 70.8809 198.738 70.4009 198.738C69.5689 198.738 68.8969 198.922 68.3849 199.29C67.8889 199.658 67.5209 200.13 67.2809 200.706C67.0569 201.266 66.9449 201.858 66.9449 202.482V209.37H65.0009ZM72.9532 198.834V197.298H80.7052V198.834H72.9532ZM80.6572 207.642V209.298C80.3852 209.378 80.1132 209.434 79.8412 209.466C79.5852 209.514 79.2972 209.538 78.9772 209.538C77.8572 209.538 76.9612 209.218 76.2892 208.578C75.6332 207.938 75.3052 206.978 75.3052 205.698V194.202L77.2492 193.506V205.434C77.2492 206.074 77.3372 206.57 77.5132 206.922C77.7052 207.274 77.9612 207.522 78.2812 207.666C78.6012 207.794 78.9612 207.858 79.3612 207.858C79.6012 207.858 79.8172 207.842 80.0092 207.81C80.2012 207.778 80.4172 207.722 80.6572 207.642ZM83.0478 209.37V197.298H84.9918V209.37H83.0478ZM82.8558 192.186H85.2318V194.394H82.8558V192.186ZM92.8465 209.538C90.8145 209.538 89.2065 209.018 88.0225 207.978L88.6705 206.538C89.3105 207.034 89.9665 207.402 90.6385 207.642C91.3265 207.866 92.0865 207.978 92.9185 207.978C93.8305 207.978 94.5185 207.826 94.9825 207.522C95.4625 207.202 95.7025 206.746 95.7025 206.154C95.7025 205.674 95.5425 205.298 95.2225 205.026C94.9025 204.738 94.3745 204.506 93.6385 204.33L91.5985 203.85C90.5905 203.626 89.8065 203.226 89.2465 202.65C88.7025 202.074 88.4305 201.386 88.4305 200.586C88.4305 199.882 88.6225 199.266 89.0065 198.738C89.3905 198.194 89.9265 197.77 90.6145 197.466C91.3025 197.162 92.1185 197.01 93.0625 197.01C93.9105 197.01 94.7105 197.146 95.4625 197.418C96.2145 197.69 96.8465 198.082 97.3585 198.594L96.7105 200.01C96.1345 199.53 95.5425 199.178 94.9345 198.954C94.3425 198.714 93.7185 198.594 93.0625 198.594C92.1985 198.594 91.5265 198.762 91.0465 199.098C90.5825 199.434 90.3505 199.89 90.3505 200.466C90.3505 200.962 90.4945 201.354 90.7825 201.642C91.0865 201.93 91.5665 202.154 92.2225 202.314L94.2625 202.818C95.3985 203.058 96.2305 203.458 96.7585 204.018C97.3025 204.562 97.5745 205.258 97.5745 206.106C97.5745 207.146 97.1505 207.978 96.3025 208.602C95.4545 209.226 94.3025 209.538 92.8465 209.538ZM110.561 207.93C110.033 208.426 109.353 208.818 108.521 209.106C107.705 209.394 106.865 209.538 106.001 209.538C104.753 209.538 103.673 209.29 102.761 208.794C101.865 208.298 101.169 207.586 100.673 206.658C100.193 205.714 99.9528 204.594 99.9528 203.298C99.9528 202.05 100.193 200.954 100.673 200.01C101.153 199.066 101.817 198.33 102.665 197.802C103.529 197.274 104.521 197.01 105.641 197.01C106.713 197.01 107.633 197.25 108.401 197.73C109.169 198.194 109.753 198.866 110.153 199.746C110.569 200.626 110.777 201.682 110.777 202.914V203.274H101.657V202.002H109.673L109.049 202.89C109.081 201.482 108.801 200.402 108.209 199.65C107.633 198.898 106.785 198.522 105.665 198.522C104.497 198.522 103.577 198.938 102.905 199.77C102.249 200.586 101.921 201.722 101.921 203.178C101.921 204.746 102.265 205.93 102.953 206.73C103.657 207.53 104.681 207.93 106.025 207.93C106.729 207.93 107.401 207.818 108.041 207.594C108.697 207.354 109.321 206.994 109.913 206.514L110.561 207.93ZM113.727 209.37V200.682C113.727 200.122 113.711 199.562 113.679 199.002C113.663 198.426 113.615 197.858 113.535 197.298H115.383L115.647 200.274L115.383 200.202C115.607 199.146 116.087 198.354 116.823 197.826C117.575 197.282 118.415 197.01 119.343 197.01C119.551 197.01 119.743 197.026 119.919 197.058C120.111 197.074 120.287 197.106 120.447 197.154L120.399 198.93C120.031 198.802 119.607 198.738 119.127 198.738C118.295 198.738 117.623 198.922 117.111 199.29C116.615 199.658 116.247 200.13 116.007 200.706C115.783 201.266 115.671 201.858 115.671 202.482V209.37H113.727Z" fill="#728A96"/>
<path d="M880 118.517C880.755 118.517 881.367 117.905 881.367 117.15C881.367 116.395 880.755 115.783 880 115.783C879.245 115.783 878.633 116.395 878.633 117.15C878.633 117.905 879.245 118.517 880 118.517Z" fill="#0088CC"/>
<path d="M909.521 75.5598H850.479C847.458 75.5598 845 78.0179 845 81.0393V119.288C845 122.309 847.458 124.767 850.479 124.767H872.469L870.936 129.483C868.996 129.811 867.514 131.502 867.514 133.534C867.514 135.8 869.357 137.644 871.623 137.644H888.376C890.642 137.644 892.486 135.8 892.486 133.534C892.486 131.502 891.004 129.811 889.064 129.483L887.53 124.767H909.521C912.542 124.767 915 122.309 915 119.288V81.0393C915 78.0179 912.542 75.5598 909.521 75.5598V75.5598ZM889.746 133.534C889.746 134.29 889.132 134.904 888.376 134.904H871.623C870.868 134.904 870.253 134.29 870.253 133.534C870.253 132.779 870.868 132.164 871.623 132.164H888.376C889.132 132.164 889.746 132.779 889.746 133.534ZM886.164 129.425H873.836L875.35 124.767H884.649L886.164 129.425ZM912.261 119.288C912.261 120.798 911.032 122.027 909.521 122.027H850.479C848.968 122.027 847.739 120.798 847.739 119.288V81.0393C847.739 79.5287 848.968 78.2995 850.479 78.2995H909.521C911.031 78.2995 912.26 79.5287 912.26 81.0393V119.288H912.261Z" fill="#0088CC"/>
<path d="M905.328 81.8071H854.672C852.783 81.8071 851.247 83.3434 851.247 85.2318V115.095C851.247 116.984 852.783 118.52 854.672 118.52H873.859C874.616 118.52 875.229 117.907 875.229 117.15C875.229 116.393 874.616 115.78 873.859 115.78H854.672C854.294 115.78 853.987 115.473 853.987 115.095V85.2318C853.987 84.8541 854.294 84.5468 854.672 84.5468H905.328C905.706 84.5468 906.013 84.8541 906.013 85.2318V115.095C906.013 115.473 905.706 115.78 905.328 115.78H886.14C885.384 115.78 884.77 116.393 884.77 117.15C884.77 117.907 885.384 118.52 886.14 118.52H905.328C907.217 118.52 908.753 116.984 908.753 115.095V85.2318C908.753 83.3434 907.217 81.8071 905.328 81.8071V81.8071Z" fill="#0088CC"/>
<path d="M872.064 95.2231V90.68C872.064 88.7916 870.528 87.2553 868.639 87.2553H861.271C859.383 87.2553 857.846 88.7916 857.846 90.68V95.2231C857.846 97.1115 859.383 98.6478 861.271 98.6478H868.639C870.528 98.6476 872.064 97.1115 872.064 95.2231V95.2231ZM869.324 95.2231C869.324 95.6007 869.017 95.9081 868.639 95.9081H861.271C860.893 95.9081 860.586 95.6007 860.586 95.2231V90.68C860.586 90.3024 860.893 89.995 861.271 89.995H868.639C869.017 89.995 869.324 90.3024 869.324 90.68V95.2231Z" fill="#0088CC"/>
<path d="M900.985 101.231C900.858 100.758 900.489 100.389 900.016 100.262L889.96 97.5677C889.487 97.4407 888.983 97.5761 888.637 97.9222C888.291 98.2682 888.155 98.7727 888.282 99.2455L890.977 109.302C891.103 109.774 891.472 110.144 891.945 110.27C892.418 110.397 892.922 110.262 893.268 109.916L894.043 109.141L897.699 112.797C897.956 113.054 898.304 113.198 898.668 113.198C899.031 113.198 899.379 113.054 899.636 112.797L903.511 108.922C904.046 108.387 904.046 107.52 903.511 106.985L899.855 103.329L900.63 102.554C900.976 102.208 901.111 101.704 900.985 101.231V101.231ZM900.605 107.953L898.668 109.891L895.012 106.235C894.745 105.967 894.394 105.834 894.043 105.834C893.693 105.834 893.342 105.967 893.075 106.235L893.009 106.301L891.543 100.828L897.015 102.295L896.949 102.36C896.414 102.895 896.414 103.763 896.949 104.298L900.605 107.953Z" fill="#0088CC"/>
<path d="M875.369 91.5815H883.818C884.575 91.5815 885.188 90.9682 885.188 90.2116C885.188 89.455 884.575 88.8417 883.818 88.8417H875.369C874.612 88.8417 873.999 89.455 873.999 90.2116C873.999 90.9682 874.612 91.5815 875.369 91.5815Z" fill="#0088CC"/>
<path d="M875.369 97.061H883.818C884.575 97.061 885.188 96.4477 885.188 95.691C885.188 94.9344 884.575 94.3211 883.818 94.3211H875.369C874.612 94.3211 873.999 94.9344 873.999 95.691C873.999 96.4477 874.612 97.061 875.369 97.061Z" fill="#0088CC"/>
<path d="M875.369 104.906H883.818C884.575 104.906 885.188 104.292 885.188 103.536C885.188 102.779 884.575 102.166 883.818 102.166H875.369C874.612 102.166 873.999 102.779 873.999 103.536C873.999 104.292 874.612 104.906 875.369 104.906Z" fill="#0088CC"/>
<path d="M885.188 109.015C885.188 108.259 884.575 107.645 883.818 107.645H875.369C874.612 107.645 873.999 108.259 873.999 109.015C873.999 109.772 874.612 110.385 875.369 110.385H883.818C884.575 110.385 885.188 109.772 885.188 109.015Z" fill="#0088CC"/>
<path d="M859.259 106.411C859.259 109.552 861.814 112.107 864.955 112.107C868.096 112.107 870.651 109.552 870.651 106.411C870.651 103.27 868.096 100.714 864.955 100.714C861.814 100.714 859.259 103.27 859.259 106.411V106.411ZM867.912 106.411C867.912 108.041 866.585 109.367 864.955 109.367C863.325 109.367 861.999 108.041 861.999 106.411C861.999 104.78 863.325 103.454 864.955 103.454C866.585 103.454 867.912 104.78 867.912 106.411Z" fill="#0088CC"/>
<circle opacity="0.05" cx="880" cy="106.37" r="63" fill="#0088CC"/>
<path d="M834.171 209.37V192.282H840.987C842.747 192.282 844.115 192.706 845.091 193.554C846.083 194.402 846.579 195.57 846.579 197.058C846.579 198.53 846.083 199.698 845.091 200.562C844.099 201.426 842.731 201.858 840.987 201.858H836.139V209.37H834.171ZM836.139 200.226H840.819C842.083 200.226 843.035 199.954 843.675 199.41C844.315 198.85 844.635 198.066 844.635 197.058C844.635 196.05 844.315 195.274 843.675 194.73C843.035 194.186 842.083 193.914 840.819 193.914H836.139V200.226ZM849.563 209.37V191.706H851.507V209.37H849.563ZM859.914 209.538C858.842 209.538 857.898 209.29 857.082 208.794C856.282 208.282 855.658 207.562 855.21 206.634C854.778 205.69 854.562 204.586 854.562 203.322C854.562 202.058 854.786 200.954 855.234 200.01C855.682 199.066 856.306 198.33 857.106 197.802C857.922 197.274 858.858 197.01 859.914 197.01C861.018 197.01 861.954 197.282 862.722 197.826C863.49 198.37 864.01 199.146 864.282 200.154L863.994 200.346V197.298H865.914V209.37H863.994V206.25L864.282 206.394C864.01 207.402 863.49 208.178 862.722 208.722C861.954 209.266 861.018 209.538 859.914 209.538ZM860.298 207.93C861.482 207.93 862.394 207.53 863.034 206.73C863.674 205.914 863.994 204.762 863.994 203.274C863.994 201.786 863.666 200.642 863.01 199.842C862.37 199.042 861.466 198.642 860.298 198.642C859.114 198.642 858.186 199.058 857.514 199.89C856.858 200.706 856.53 201.85 856.53 203.322C856.53 204.794 856.858 205.93 857.514 206.73C858.186 207.53 859.114 207.93 860.298 207.93ZM867.969 198.834V197.298H875.721V198.834H867.969ZM875.673 207.642V209.298C875.401 209.378 875.129 209.434 874.857 209.466C874.601 209.514 874.313 209.538 873.993 209.538C872.873 209.538 871.977 209.218 871.305 208.578C870.649 207.938 870.321 206.978 870.321 205.698V194.202L872.265 193.506V205.434C872.265 206.074 872.353 206.57 872.529 206.922C872.721 207.274 872.977 207.522 873.297 207.666C873.617 207.794 873.977 207.858 874.377 207.858C874.617 207.858 874.833 207.842 875.025 207.81C875.217 207.778 875.433 207.722 875.673 207.642ZM876.617 198.834V197.298H883.865V198.834H876.617ZM884.201 193.482C883.753 193.354 883.337 193.29 882.953 193.29C882.569 193.29 882.217 193.362 881.897 193.506C881.593 193.634 881.353 193.874 881.177 194.226C881.001 194.578 880.913 195.066 880.913 195.69V209.37H878.969V195.45C878.969 194.154 879.289 193.194 879.929 192.57C880.569 191.93 881.449 191.61 882.569 191.61C882.841 191.61 883.113 191.626 883.385 191.658C883.657 191.69 883.929 191.746 884.201 191.826V193.482ZM891.282 209.538C890.13 209.538 889.122 209.282 888.258 208.77C887.41 208.258 886.746 207.538 886.266 206.61C885.802 205.666 885.57 204.554 885.57 203.274C885.57 202.01 885.802 200.906 886.266 199.962C886.746 199.018 887.41 198.29 888.258 197.778C889.122 197.266 890.13 197.01 891.282 197.01C892.434 197.01 893.434 197.266 894.282 197.778C895.146 198.29 895.81 199.018 896.274 199.962C896.754 200.906 896.994 202.01 896.994 203.274C896.994 204.554 896.754 205.666 896.274 206.61C895.81 207.538 895.146 208.258 894.282 208.77C893.434 209.282 892.434 209.538 891.282 209.538ZM891.282 207.93C892.466 207.93 893.378 207.538 894.018 206.754C894.674 205.954 895.002 204.794 895.002 203.274C895.002 201.786 894.674 200.642 894.018 199.842C893.362 199.042 892.45 198.642 891.282 198.642C890.114 198.642 889.194 199.042 888.522 199.842C887.866 200.642 887.538 201.786 887.538 203.274C887.538 204.794 887.858 205.954 888.498 206.754C889.154 207.538 890.082 207.93 891.282 207.93ZM900.024 209.37V200.682C900.024 200.122 900.008 199.562 899.976 199.002C899.96 198.426 899.912 197.858 899.832 197.298H901.68L901.944 200.274L901.68 200.202C901.904 199.146 902.384 198.354 903.12 197.826C903.872 197.282 904.712 197.01 905.64 197.01C905.848 197.01 906.04 197.026 906.216 197.058C906.408 197.074 906.584 197.106 906.744 197.154L906.696 198.93C906.328 198.802 905.904 198.738 905.424 198.738C904.592 198.738 903.92 198.922 903.408 199.29C902.912 199.658 902.544 200.13 902.304 200.706C902.08 201.266 901.968 201.858 901.968 202.482V209.37H900.024ZM908.72 209.37V200.682C908.72 200.122 908.704 199.562 908.672 199.002C908.656 198.426 908.608 197.858 908.528 197.298H910.376L910.592 199.794L910.352 199.962C910.64 199.018 911.136 198.29 911.84 197.778C912.56 197.266 913.408 197.01 914.384 197.01C915.552 197.01 916.456 197.298 917.096 197.874C917.752 198.45 918.168 199.33 918.344 200.514L917.768 200.202C918.024 199.226 918.536 198.45 919.304 197.874C920.088 197.298 921.024 197.01 922.112 197.01C923.44 197.01 924.44 197.41 925.112 198.21C925.784 198.994 926.12 200.186 926.12 201.786V209.37H924.176V201.882C924.176 200.762 923.976 199.946 923.576 199.434C923.176 198.906 922.544 198.642 921.68 198.642C920.672 198.642 919.872 198.986 919.28 199.674C918.704 200.362 918.416 201.298 918.416 202.482V209.37H916.472V201.882C916.472 200.762 916.264 199.946 915.848 199.434C915.448 198.906 914.816 198.642 913.952 198.642C912.928 198.642 912.12 198.986 911.528 199.674C910.952 200.362 910.664 201.298 910.664 202.482V209.37H908.72Z" fill="#728A96"/>
<circle opacity="0.05" cx="481" cy="106.37" r="63" fill="#0088CC"/>
<path d="M433.96 209.37H431.92L439.432 192.282H441.16L448.672 209.37H446.656L439.96 193.722H440.68L433.96 209.37ZM435.112 204.978L435.808 203.346H444.784L445.48 204.978H435.112ZM461.617 209.37H459.697V206.13L459.985 206.394C459.713 207.402 459.193 208.178 458.425 208.722C457.657 209.266 456.721 209.538 455.617 209.538C454.561 209.538 453.625 209.282 452.809 208.77C452.009 208.242 451.385 207.506 450.937 206.562C450.489 205.602 450.265 204.49 450.265 203.226C450.265 201.962 450.481 200.866 450.913 199.938C451.361 199.01 451.985 198.29 452.785 197.778C453.601 197.266 454.545 197.01 455.617 197.01C456.721 197.01 457.657 197.29 458.425 197.85C459.193 198.394 459.713 199.162 459.985 200.154L459.673 200.394V191.706H461.617V209.37ZM456.001 207.93C457.169 207.93 458.073 207.53 458.713 206.73C459.369 205.914 459.697 204.762 459.697 203.274C459.697 201.802 459.377 200.666 458.737 199.866C458.097 199.05 457.185 198.642 456.001 198.642C454.817 198.642 453.889 199.042 453.217 199.842C452.561 200.642 452.233 201.77 452.233 203.226C452.233 204.714 452.561 205.874 453.217 206.706C453.889 207.522 454.817 207.93 456.001 207.93ZM471.04 209.562C470.16 209.562 469.336 209.49 468.568 209.346C467.8 209.186 467.088 208.946 466.432 208.626C465.776 208.29 465.184 207.882 464.656 207.402L465.4 205.89C466.264 206.61 467.128 207.122 467.992 207.426C468.872 207.73 469.896 207.882 471.064 207.882C472.424 207.882 473.48 207.618 474.232 207.09C474.984 206.546 475.36 205.786 475.36 204.81C475.36 204.218 475.168 203.746 474.784 203.394C474.416 203.026 473.904 202.738 473.248 202.53C472.608 202.306 471.88 202.098 471.064 201.906C470.248 201.73 469.472 201.53 468.736 201.306C468 201.066 467.344 200.77 466.768 200.418C466.208 200.066 465.768 199.618 465.448 199.074C465.128 198.53 464.968 197.85 464.968 197.034C464.968 196.058 465.224 195.202 465.736 194.466C466.248 193.714 466.968 193.13 467.896 192.714C468.824 192.298 469.92 192.09 471.184 192.09C471.968 192.09 472.72 192.178 473.44 192.354C474.16 192.514 474.824 192.754 475.432 193.074C476.056 193.394 476.608 193.786 477.088 194.25L476.32 195.762C475.536 195.074 474.728 194.57 473.896 194.25C473.064 193.93 472.16 193.77 471.184 193.77C469.856 193.77 468.816 194.05 468.064 194.61C467.312 195.17 466.936 195.954 466.936 196.962C466.936 197.586 467.104 198.09 467.44 198.474C467.776 198.858 468.248 199.17 468.856 199.41C469.464 199.634 470.16 199.842 470.944 200.034C471.776 200.226 472.576 200.434 473.344 200.658C474.112 200.882 474.792 201.162 475.384 201.498C475.992 201.818 476.472 202.242 476.824 202.77C477.176 203.282 477.352 203.938 477.352 204.738C477.352 205.714 477.096 206.562 476.584 207.282C476.072 208.002 475.344 208.562 474.4 208.962C473.456 209.362 472.336 209.562 471.04 209.562ZM490.217 207.93C489.689 208.426 489.009 208.818 488.177 209.106C487.361 209.394 486.521 209.538 485.657 209.538C484.409 209.538 483.329 209.29 482.417 208.794C481.521 208.298 480.825 207.586 480.329 206.658C479.849 205.714 479.609 204.594 479.609 203.298C479.609 202.05 479.849 200.954 480.329 200.01C480.809 199.066 481.473 198.33 482.321 197.802C483.185 197.274 484.177 197.01 485.297 197.01C486.369 197.01 487.289 197.25 488.057 197.73C488.825 198.194 489.409 198.866 489.809 199.746C490.225 200.626 490.433 201.682 490.433 202.914V203.274H481.313V202.002H489.329L488.705 202.89C488.737 201.482 488.457 200.402 487.865 199.65C487.289 198.898 486.441 198.522 485.321 198.522C484.153 198.522 483.233 198.938 482.561 199.77C481.905 200.586 481.577 201.722 481.577 203.178C481.577 204.746 481.921 205.93 482.609 206.73C483.313 207.53 484.337 207.93 485.681 207.93C486.385 207.93 487.057 207.818 487.697 207.594C488.353 207.354 488.977 206.994 489.569 206.514L490.217 207.93ZM493.384 209.37V200.682C493.384 200.122 493.368 199.562 493.336 199.002C493.32 198.426 493.272 197.858 493.192 197.298H495.04L495.256 199.794L495.016 199.986C495.352 199.01 495.912 198.274 496.696 197.778C497.48 197.266 498.384 197.01 499.408 197.01C502.304 197.01 503.752 198.602 503.752 201.786V209.37H501.808V201.882C501.808 200.762 501.584 199.946 501.136 199.434C500.688 198.906 499.984 198.642 499.024 198.642C497.904 198.642 497.008 198.986 496.336 199.674C495.664 200.362 495.328 201.29 495.328 202.458V209.37H493.384ZM511.503 209.538C509.471 209.538 507.863 209.018 506.679 207.978L507.327 206.538C507.967 207.034 508.623 207.402 509.295 207.642C509.983 207.866 510.743 207.978 511.575 207.978C512.487 207.978 513.175 207.826 513.639 207.522C514.119 207.202 514.359 206.746 514.359 206.154C514.359 205.674 514.199 205.298 513.879 205.026C513.559 204.738 513.031 204.506 512.295 204.33L510.255 203.85C509.247 203.626 508.463 203.226 507.903 202.65C507.359 202.074 507.087 201.386 507.087 200.586C507.087 199.882 507.279 199.266 507.663 198.738C508.047 198.194 508.583 197.77 509.271 197.466C509.959 197.162 510.775 197.01 511.719 197.01C512.567 197.01 513.367 197.146 514.119 197.418C514.871 197.69 515.503 198.082 516.015 198.594L515.367 200.01C514.791 199.53 514.199 199.178 513.591 198.954C512.999 198.714 512.375 198.594 511.719 198.594C510.855 198.594 510.183 198.762 509.703 199.098C509.239 199.434 509.007 199.89 509.007 200.466C509.007 200.962 509.151 201.354 509.439 201.642C509.743 201.93 510.223 202.154 510.879 202.314L512.919 202.818C514.055 203.058 514.887 203.458 515.415 204.018C515.959 204.562 516.231 205.258 516.231 206.106C516.231 207.146 515.807 207.978 514.959 208.602C514.111 209.226 512.959 209.538 511.503 209.538ZM529.217 207.93C528.689 208.426 528.009 208.818 527.177 209.106C526.361 209.394 525.521 209.538 524.657 209.538C523.409 209.538 522.329 209.29 521.417 208.794C520.521 208.298 519.825 207.586 519.329 206.658C518.849 205.714 518.609 204.594 518.609 203.298C518.609 202.05 518.849 200.954 519.329 200.01C519.809 199.066 520.473 198.33 521.321 197.802C522.185 197.274 523.177 197.01 524.297 197.01C525.369 197.01 526.289 197.25 527.057 197.73C527.825 198.194 528.409 198.866 528.809 199.746C529.225 200.626 529.433 201.682 529.433 202.914V203.274H520.313V202.002H528.329L527.705 202.89C527.737 201.482 527.457 200.402 526.865 199.65C526.289 198.898 525.441 198.522 524.321 198.522C523.153 198.522 522.233 198.938 521.561 199.77C520.905 200.586 520.577 201.722 520.577 203.178C520.577 204.746 520.921 205.93 521.609 206.73C522.313 207.53 523.337 207.93 524.681 207.93C525.385 207.93 526.057 207.818 526.697 207.594C527.353 207.354 527.977 206.994 528.569 206.514L529.217 207.93Z" fill="#728A96"/>
<path d="M509.659 100.98L484.37 100.978C483.253 100.978 482.348 101.884 482.348 103V111.079C482.348 112.195 483.253 113.101 484.37 113.101H498.611C497.052 117.148 494.141 120.537 490.428 122.691L496.5 133.203C506.241 127.569 512 117.684 512 106.619C512 105.043 511.884 103.917 511.652 102.649C511.475 101.685 510.639 100.98 509.659 100.98Z" stroke="#0088CC" stroke-width="3"/>
<path d="M481 125.239C474.031 125.239 467.946 121.431 464.679 115.796L454.167 121.855C459.516 131.126 469.537 137.37 481 137.37C486.623 137.37 491.929 135.856 496.5 133.217V133.203L490.427 122.69C487.65 124.302 484.436 125.239 481 125.239Z" stroke="#0088CC" stroke-width="3"/>
<path d="M496.5 133.217V133.203L490.427 122.69C487.65 124.301 484.436 125.239 481 125.239V137.37C486.623 137.37 491.929 135.856 496.5 133.217Z" stroke="#0088CC" stroke-width="3"/>
<path d="M462.13 106.37C462.13 102.934 463.068 99.7204 464.679 96.9428L454.167 90.884C451.514 95.4404 450 100.732 450 106.37C450 112.007 451.514 117.299 454.167 121.855L464.679 115.796C463.068 113.019 462.13 109.805 462.13 106.37Z" stroke="#0088CC" stroke-width="3"/>
<path d="M481 87.5001C485.545 87.5001 489.719 89.115 492.98 91.8012C493.784 92.4639 494.954 92.416 495.69 91.6792L501.415 85.9551C502.251 85.1191 502.191 83.7506 501.298 82.9758C495.835 78.2363 488.727 75.3697 481 75.3697C469.537 75.3697 459.516 81.6129 454.167 90.8841L464.679 96.9429C467.946 91.308 474.031 87.5001 481 87.5001Z" stroke="#0088CC" stroke-width="3"/>
<path d="M492.98 91.8012C493.784 92.4639 494.954 92.416 495.69 91.6792L501.415 85.9551C502.25 85.1191 502.191 83.7506 501.298 82.9758C495.835 78.2362 488.727 75.3697 481 75.3697V87.5001C485.545 87.5001 489.719 89.115 492.98 91.8012Z" stroke="#0088CC" stroke-width="3"/>
<path d="M807.03 106.9C807.323 106.607 807.323 106.132 807.03 105.839L802.257 101.066C801.964 100.773 801.49 100.773 801.197 101.066C800.904 101.359 800.904 101.834 801.197 102.127L805.439 106.37L801.197 110.612C800.904 110.905 800.904 111.38 801.197 111.673C801.49 111.966 801.964 111.966 802.257 111.673L807.03 106.9ZM139 105.62C138.586 105.62 138.25 105.955 138.25 106.37C138.25 106.784 138.586 107.12 139 107.12V105.62ZM376.626 65.2239L377.297 65.5589L376.626 65.2239ZM576.874 65.2239L576.203 65.5589L576.203 65.5589L576.874 65.2239ZM143.297 107.12C143.712 107.12 144.047 106.784 144.047 106.37C144.047 105.955 143.712 105.62 143.297 105.62V107.12ZM160.487 105.62C160.072 105.62 159.737 105.955 159.737 106.37C159.737 106.784 160.072 107.12 160.487 107.12V105.62ZM169.081 107.12C169.495 107.12 169.831 106.784 169.831 106.37C169.831 105.955 169.495 105.62 169.081 105.62V107.12ZM186.271 105.62C185.856 105.62 185.521 105.955 185.521 106.37C185.521 106.784 185.856 107.12 186.271 107.12V105.62ZM194.865 107.12C195.279 107.12 195.615 106.784 195.615 106.37C195.615 105.955 195.279 105.62 194.865 105.62V107.12ZM212.054 105.62C211.64 105.62 211.304 105.955 211.304 106.37C211.304 106.784 211.64 107.12 212.054 107.12V105.62ZM220.649 107.12C221.063 107.12 221.399 106.784 221.399 106.37C221.399 105.955 221.063 105.62 220.649 105.62V107.12ZM237.838 105.62C237.424 105.62 237.088 105.955 237.088 106.37C237.088 106.784 237.424 107.12 237.838 107.12V105.62ZM246.433 107.12C246.847 107.12 247.183 106.784 247.183 106.37C247.183 105.955 246.847 105.62 246.433 105.62V107.12ZM263.622 105.62C263.208 105.62 262.872 105.955 262.872 106.37C262.872 106.784 263.208 107.12 263.622 107.12V105.62ZM272.217 107.12C272.631 107.12 272.967 106.784 272.967 106.37C272.967 105.955 272.631 105.62 272.217 105.62V107.12ZM289.406 105.62C288.992 105.62 288.656 105.955 288.656 106.37C288.656 106.784 288.992 107.12 289.406 107.12V105.62ZM298.001 107.12C298.415 107.12 298.751 106.784 298.751 106.37C298.751 105.955 298.415 105.62 298.001 105.62V107.12ZM315.19 105.62C314.776 105.62 314.44 105.955 314.44 106.37C314.44 106.784 314.776 107.12 315.19 107.12V105.62ZM323.662 106.946C324.074 106.912 324.381 106.549 324.347 106.136C324.312 105.724 323.95 105.417 323.537 105.451L323.662 106.946ZM339.212 101.541C338.83 101.702 338.651 102.142 338.812 102.524C338.973 102.905 339.412 103.084 339.794 102.923L339.212 101.541ZM347.22 99.157C347.576 98.945 347.693 98.4847 347.481 98.1288C347.269 97.773 346.808 97.6564 346.452 97.8685L347.22 99.157ZM359.294 87.9163C358.997 88.2055 358.991 88.6803 359.28 88.9769C359.569 89.2734 360.044 89.2794 360.341 88.9902L359.294 87.9163ZM365.979 82.8948C366.244 82.577 366.202 82.104 365.884 81.8384C365.566 81.5728 365.094 81.6151 364.828 81.9329L365.979 82.8948ZM374.049 68.4961C373.847 68.8579 373.977 69.3147 374.339 69.5165C374.7 69.7183 375.157 69.5887 375.359 69.227L374.049 68.4961ZM379.201 61.8788C379.397 61.5138 379.26 61.0592 378.895 60.8634C378.53 60.6677 378.075 60.8049 377.879 61.17L379.201 61.8788ZM386.702 46.9045C386.462 47.242 386.541 47.7102 386.879 47.9503C387.216 48.1905 387.684 48.1115 387.925 47.774L386.702 46.9045ZM392.962 41.1849C393.225 40.8648 393.179 40.3922 392.859 40.1292C392.539 39.8662 392.066 39.9125 391.803 40.2325L392.962 41.1849ZM403.396 28.096C403.088 28.3726 403.062 28.8467 403.339 29.1551C403.615 29.4635 404.089 29.4893 404.398 29.2128L403.396 28.096ZM410.783 23.9367C411.113 23.6861 411.177 23.2156 410.927 22.8858C410.676 22.556 410.205 22.4917 409.876 22.7423L410.783 23.9367ZM424.054 13.7369C423.687 13.9288 423.545 14.3819 423.736 14.749C423.928 15.1161 424.381 15.2582 424.748 15.0664L424.054 13.7369ZM432.24 11.5451C432.622 11.3848 432.801 10.9451 432.641 10.5632C432.48 10.1813 432.041 10.0017 431.659 10.1621L432.24 11.5451ZM447.622 4.93788C447.219 5.03523 446.972 5.44052 447.069 5.84313C447.167 6.24575 447.572 6.49321 447.975 6.39586L447.622 4.93788ZM456.089 4.75245C456.498 4.68515 456.775 4.29927 456.707 3.89056C456.64 3.48185 456.254 3.20508 455.845 3.27238L456.089 4.75245ZM472.543 1.6825C472.129 1.69497 471.804 2.04071 471.816 2.45474C471.829 2.86877 472.174 3.19429 472.588 3.18182L472.543 1.6825ZM480.912 3.18182C481.326 3.19429 481.671 2.86877 481.684 2.45474C481.696 2.04071 481.371 1.69497 480.957 1.6825L480.912 3.18182ZM497.655 3.27238C497.246 3.20508 496.86 3.48184 496.793 3.89055C496.725 4.29926 497.002 4.68515 497.411 4.75245L497.655 3.27238ZM505.525 6.39586C505.928 6.49321 506.333 6.24575 506.431 5.84313C506.528 5.44052 506.281 5.03522 505.878 4.93788L505.525 6.39586ZM521.841 10.1621C521.459 10.0017 521.02 10.1813 520.859 10.5632C520.699 10.9451 520.878 11.3847 521.26 11.5451L521.841 10.1621ZM528.751 15.0664C529.119 15.2582 529.572 15.1161 529.764 14.749C529.955 14.3819 529.813 13.9288 529.446 13.7369L528.751 15.0664ZM543.624 22.7423C543.295 22.4917 542.824 22.556 542.573 22.8858C542.323 23.2156 542.387 23.6861 542.717 23.9367L543.624 22.7423ZM549.102 29.2128C549.411 29.4893 549.885 29.4635 550.161 29.1551C550.438 28.8467 550.412 28.3726 550.104 28.096L549.102 29.2128ZM561.697 40.2325C561.434 39.9125 560.961 39.8662 560.641 40.1292C560.321 40.3922 560.275 40.8649 560.538 41.1849L561.697 40.2325ZM565.575 47.774C565.816 48.1115 566.284 48.1905 566.621 47.9504C566.959 47.7102 567.038 47.242 566.798 46.9045L565.575 47.774ZM575.621 61.17C575.425 60.805 574.97 60.6677 574.605 60.8634C574.24 61.0592 574.103 61.5138 574.299 61.8788L575.621 61.17ZM578.141 69.227C578.343 69.5887 578.8 69.7183 579.161 69.5165C579.523 69.3147 579.653 68.8579 579.451 68.4961L578.141 69.227ZM588.672 81.9329C588.406 81.6151 587.933 81.5728 587.616 81.8384C587.298 82.104 587.256 82.577 587.521 82.8948L588.672 81.9329ZM593.159 88.9902C593.456 89.2794 593.931 89.2734 594.22 88.9769C594.509 88.6803 594.503 88.2055 594.206 87.9163L593.159 88.9902ZM607.048 97.8685C606.692 97.6564 606.231 97.773 606.019 98.1288C605.807 98.4847 605.924 98.945 606.28 99.157L607.048 97.8685ZM613.706 102.923C614.088 103.084 614.527 102.905 614.688 102.524C614.849 102.142 614.67 101.702 614.288 101.541L613.706 102.923ZM629.963 105.451C629.55 105.417 629.188 105.724 629.153 106.136C629.119 106.549 629.426 106.912 629.838 106.946L629.963 105.451ZM638.804 107.12C639.218 107.12 639.554 106.784 639.554 106.37C639.554 105.955 639.218 105.62 638.804 105.62V107.12ZM657.969 105.62C657.555 105.62 657.219 105.955 657.219 106.37C657.219 106.784 657.555 107.12 657.969 107.12V105.62ZM667.552 107.12C667.966 107.12 668.302 106.784 668.302 106.37C668.302 105.955 667.966 105.62 667.552 105.62V107.12ZM686.717 105.62C686.303 105.62 685.967 105.955 685.967 106.37C685.967 106.784 686.303 107.12 686.717 107.12V105.62ZM696.3 107.12C696.714 107.12 697.05 106.784 697.05 106.37C697.05 105.955 696.714 105.62 696.3 105.62V107.12ZM715.465 105.62C715.051 105.62 714.715 105.955 714.715 106.37C714.715 106.784 715.051 107.12 715.465 107.12V105.62ZM725.048 107.12C725.462 107.12 725.798 106.784 725.798 106.37C725.798 105.955 725.462 105.62 725.048 105.62V107.12ZM744.213 105.62C743.799 105.62 743.463 105.955 743.463 106.37C743.463 106.784 743.799 107.12 744.213 107.12V105.62ZM753.795 107.12C754.21 107.12 754.545 106.784 754.545 106.37C754.545 105.955 754.21 105.62 753.795 105.62V107.12ZM772.961 105.62C772.547 105.62 772.211 105.955 772.211 106.37C772.211 106.784 772.547 107.12 772.961 107.12V105.62ZM782.543 107.12C782.958 107.12 783.293 106.784 783.293 106.37C783.293 105.955 782.958 105.62 782.543 105.62V107.12ZM801.709 105.62C801.294 105.62 800.959 105.955 800.959 106.37C800.959 106.784 801.294 107.12 801.709 107.12V105.62ZM139 107.12H143.297V105.62H139V107.12ZM160.487 107.12H169.081V105.62H160.487V107.12ZM186.271 107.12H194.865V105.62H186.271V107.12ZM212.054 107.12H220.649V105.62H212.054V107.12ZM237.838 107.12H246.433V105.62H237.838V107.12ZM263.622 107.12H272.217V105.62H263.622V107.12ZM289.406 107.12H298.001V105.62H289.406V107.12ZM315.19 107.12H319.488V105.62H315.19V107.12ZM319.488 107.12C320.891 107.12 322.283 107.061 323.662 106.946L323.537 105.451C322.2 105.563 320.85 105.62 319.488 105.62V107.12ZM339.794 102.923C342.347 101.848 344.825 100.584 347.22 99.157L346.452 97.8685C344.113 99.2622 341.697 100.494 339.212 101.541L339.794 102.923ZM360.341 88.9902C362.316 87.0644 364.198 85.0258 365.979 82.8948L364.828 81.9329C363.078 84.0262 361.231 86.0273 359.294 87.9163L360.341 88.9902ZM375.359 69.227C376.034 68.0166 376.68 66.7931 377.297 65.5589L375.955 64.8888C375.349 66.1025 374.713 67.3058 374.049 68.4961L375.359 69.227ZM377.297 65.5589C377.906 64.3395 378.54 63.1119 379.201 61.8788L377.879 61.17C377.211 62.4162 376.57 63.6568 375.955 64.8888L377.297 65.5589ZM387.925 47.774C389.504 45.554 391.181 43.3521 392.962 41.1849L391.803 40.2325C389.999 42.4278 388.301 44.6575 386.702 46.9045L387.925 47.774ZM404.398 29.2128C406.427 27.3929 408.554 25.6298 410.783 23.9367L409.876 22.7423C407.613 24.4608 405.455 26.2498 403.396 28.096L404.398 29.2128ZM424.748 15.0664C427.152 13.8105 429.648 12.6334 432.24 11.5451L431.659 10.1621C429.028 11.2668 426.494 12.4617 424.054 13.7369L424.748 15.0664ZM447.975 6.39586C450.598 5.76146 453.302 5.21132 456.089 4.75245L455.845 3.27238C453.023 3.73721 450.282 4.29469 447.622 4.93788L447.975 6.39586ZM472.588 3.18182C473.958 3.14056 475.346 3.11963 476.75 3.11963V1.61963C475.331 1.61963 473.929 1.64078 472.543 1.6825L472.588 3.18182ZM476.75 3.11963C478.154 3.11963 479.542 3.14056 480.912 3.18182L480.957 1.6825C479.571 1.64078 478.169 1.61963 476.75 1.61963V3.11963ZM497.411 4.75245C500.198 5.21132 502.902 5.76146 505.525 6.39586L505.878 4.93788C503.218 4.29469 500.477 3.73721 497.655 3.27238L497.411 4.75245ZM521.26 11.5451C523.852 12.6334 526.348 13.8105 528.751 15.0664L529.446 13.7369C527.006 12.4617 524.472 11.2668 521.841 10.1621L521.26 11.5451ZM542.717 23.9367C544.946 25.6298 547.073 27.3929 549.102 29.2128L550.104 28.096C548.045 26.2498 545.887 24.4608 543.624 22.7423L542.717 23.9367ZM560.538 41.1849C562.319 43.3521 563.996 45.554 565.575 47.774L566.798 46.9045C565.199 44.6575 563.501 42.4278 561.697 40.2325L560.538 41.1849ZM574.299 61.8788C574.96 63.1119 575.594 64.3395 576.203 65.5589L577.545 64.8888C576.93 63.6568 576.289 62.4162 575.621 61.17L574.299 61.8788ZM576.203 65.5589C576.82 66.7931 577.466 68.0166 578.141 69.227L579.451 68.4961C578.787 67.3058 578.151 66.1025 577.545 64.8888L576.203 65.5589ZM587.521 82.8948C589.302 85.0258 591.184 87.0644 593.159 88.9902L594.206 87.9163C592.269 86.0273 590.422 84.0262 588.672 81.9329L587.521 82.8948ZM606.28 99.157C608.675 100.584 611.153 101.848 613.706 102.923L614.288 101.541C611.803 100.494 609.387 99.2622 607.048 97.8685L606.28 99.157ZM629.838 106.946C631.217 107.061 632.609 107.12 634.012 107.12V105.62C632.65 105.62 631.3 105.563 629.963 105.451L629.838 106.946ZM634.012 107.12H638.804V105.62H634.012V107.12ZM657.969 107.12H667.552V105.62H657.969V107.12ZM686.717 107.12H696.3V105.62H686.717V107.12ZM715.465 107.12H725.048V105.62H715.465V107.12ZM744.213 107.12H753.795V105.62H744.213V107.12ZM772.961 107.12H782.543V105.62H772.961V107.12ZM801.709 107.12H806.5V105.62H801.709V107.12ZM807.561 107.43C808.146 106.845 808.146 105.895 807.561 105.309L798.015 95.763C797.429 95.1772 796.479 95.1772 795.893 95.763C795.308 96.3488 795.308 97.2986 795.893 97.8843L804.379 106.37L795.893 114.855C795.308 115.441 795.308 116.39 795.893 116.976C796.479 117.562 797.429 117.562 798.015 116.976L807.561 107.43ZM139 104.87C138.172 104.87 137.5 105.541 137.5 106.37C137.5 107.198 138.172 107.87 139 107.87V104.87ZM376.626 65.2239L377.968 65.894L376.626 65.2239ZM576.874 65.2239L575.532 65.894L575.532 65.894L576.874 65.2239ZM143.297 107.87C144.126 107.87 144.797 107.198 144.797 106.37C144.797 105.541 144.126 104.87 143.297 104.87V107.87ZM160.487 104.87C159.658 104.87 158.987 105.541 158.987 106.37C158.987 107.198 159.658 107.87 160.487 107.87V104.87ZM169.081 107.87C169.91 107.87 170.581 107.198 170.581 106.37C170.581 105.541 169.91 104.87 169.081 104.87V107.87ZM186.271 104.87C185.442 104.87 184.771 105.541 184.771 106.37C184.771 107.198 185.442 107.87 186.271 107.87V104.87ZM194.865 107.87C195.694 107.87 196.365 107.198 196.365 106.37C196.365 105.541 195.694 104.87 194.865 104.87V107.87ZM212.054 104.87C211.226 104.87 210.554 105.541 210.554 106.37C210.554 107.198 211.226 107.87 212.054 107.87V104.87ZM220.649 107.87C221.478 107.87 222.149 107.198 222.149 106.37C222.149 105.541 221.478 104.87 220.649 104.87V107.87ZM237.838 104.87C237.01 104.87 236.338 105.541 236.338 106.37C236.338 107.198 237.01 107.87 237.838 107.87V104.87ZM246.433 107.87C247.261 107.87 247.933 107.198 247.933 106.37C247.933 105.541 247.261 104.87 246.433 104.87V107.87ZM263.622 104.87C262.794 104.87 262.122 105.541 262.122 106.37C262.122 107.198 262.794 107.87 263.622 107.87V104.87ZM272.217 107.87C273.045 107.87 273.717 107.198 273.717 106.37C273.717 105.541 273.045 104.87 272.217 104.87V107.87ZM289.406 104.87C288.578 104.87 287.906 105.541 287.906 106.37C287.906 107.198 288.578 107.87 289.406 107.87V104.87ZM298.001 107.87C298.829 107.87 299.501 107.198 299.501 106.37C299.501 105.541 298.829 104.87 298.001 104.87V107.87ZM315.19 104.87C314.362 104.87 313.69 105.541 313.69 106.37C313.69 107.198 314.362 107.87 315.19 107.87V104.87ZM323.724 107.693C324.55 107.625 325.163 106.9 325.094 106.074C325.026 105.249 324.301 104.635 323.475 104.704L323.724 107.693ZM338.92 100.85C338.157 101.172 337.799 102.051 338.121 102.815C338.442 103.578 339.322 103.936 340.085 103.615L338.92 100.85ZM347.604 99.8013C348.316 99.3773 348.549 98.4566 348.125 97.7449C347.701 97.0333 346.78 96.8001 346.069 97.2242L347.604 99.8013ZM358.77 87.3793C358.177 87.9577 358.165 88.9074 358.743 89.5005C359.322 90.0936 360.271 90.1055 360.864 89.5272L358.77 87.3793ZM366.554 83.3758C367.086 82.7402 367.001 81.7942 366.365 81.2629C365.73 80.7317 364.784 80.8163 364.252 81.4519L366.554 83.3758ZM373.394 68.1307C372.99 68.8542 373.25 69.7678 373.973 70.1715C374.697 70.5751 375.61 70.3158 376.014 69.5924L373.394 68.1307ZM379.862 62.2332C380.254 61.5031 379.979 60.5939 379.249 60.2025C378.519 59.811 377.61 60.0855 377.218 60.8156L379.862 62.2332ZM386.091 46.4697C385.611 47.1447 385.769 48.0812 386.444 48.5615C387.119 49.0417 388.055 48.8838 388.536 48.2087L386.091 46.4697ZM393.542 41.661C394.068 41.021 393.975 40.0758 393.335 39.5498C392.695 39.0238 391.75 39.1163 391.224 39.7563L393.542 41.661ZM402.896 27.5376C402.279 28.0907 402.227 29.0391 402.78 29.6558C403.333 30.2726 404.282 30.3242 404.899 29.7711L402.896 27.5376ZM411.237 24.5339C411.896 24.0328 412.025 23.0918 411.524 22.4321C411.023 21.7725 410.082 21.6439 409.422 22.145L411.237 24.5339ZM423.707 13.0722C422.972 13.4558 422.688 14.3621 423.072 15.0963C423.455 15.8306 424.362 16.1148 425.096 15.7311L423.707 13.0722ZM432.53 12.2366C433.294 11.9159 433.653 11.0367 433.332 10.2729C433.012 9.50904 432.132 9.14986 431.369 9.47061L432.53 12.2366ZM447.446 4.20888C446.641 4.40358 446.146 5.21417 446.34 6.0194C446.535 6.82462 447.346 7.31955 448.151 7.12486L447.446 4.20888ZM456.211 5.49248C457.028 5.35788 457.582 4.58612 457.447 3.7687C457.313 2.95128 456.541 2.39774 455.724 2.53235L456.211 5.49248ZM472.521 0.932843C471.693 0.95778 471.041 1.64926 471.066 2.47732C471.091 3.30537 471.783 3.95642 472.611 3.93148L472.521 0.932843ZM480.889 3.93148C481.717 3.95642 482.409 3.30537 482.434 2.47732C482.459 1.64926 481.807 0.95778 480.979 0.932844L480.889 3.93148ZM497.776 2.53234C496.959 2.39774 496.187 2.95128 496.053 3.7687C495.918 4.58612 496.472 5.35788 497.289 5.49248L497.776 2.53234ZM505.349 7.12486C506.154 7.31955 506.965 6.82462 507.16 6.0194C507.354 5.21417 506.859 4.40358 506.054 4.20888L505.349 7.12486ZM522.131 9.47061C521.368 9.14986 520.488 9.50904 520.168 10.2729C519.847 11.0367 520.206 11.9159 520.97 12.2366L522.131 9.47061ZM528.404 15.7311C529.138 16.1148 530.045 15.8306 530.428 15.0963C530.812 14.3621 530.528 13.4558 529.793 13.0722L528.404 15.7311ZM544.078 22.145C543.418 21.6439 542.477 21.7725 541.976 22.4321C541.475 23.0918 541.604 24.0328 542.263 24.5339L544.078 22.145ZM548.601 29.7712C549.218 30.3242 550.167 30.2726 550.72 29.6558C551.273 29.0391 551.221 28.0907 550.604 27.5377L548.601 29.7712ZM562.276 39.7563C561.75 39.1163 560.805 39.0238 560.165 39.5498C559.525 40.0758 559.432 41.021 559.958 41.6611L562.276 39.7563ZM564.964 48.2088C565.445 48.8838 566.381 49.0417 567.056 48.5615C567.731 48.0813 567.889 47.1447 567.409 46.4697L564.964 48.2088ZM576.282 60.8156C575.89 60.0855 574.981 59.811 574.251 60.2025C573.521 60.5939 573.246 61.5031 573.638 62.2332L576.282 60.8156ZM577.486 69.5924C577.89 70.3158 578.803 70.5751 579.527 70.1715C580.25 69.7679 580.51 68.8542 580.106 68.1307L577.486 69.5924ZM589.248 81.4519C588.716 80.8163 587.77 80.7317 587.135 81.2629C586.499 81.7942 586.414 82.7402 586.946 83.3758L589.248 81.4519ZM592.636 89.5272C593.229 90.1056 594.178 90.0936 594.757 89.5005C595.335 88.9074 595.323 87.9577 594.73 87.3793L592.636 89.5272ZM607.431 97.2242C606.72 96.8001 605.799 97.0333 605.375 97.7449C604.951 98.4566 605.184 99.3773 605.896 99.8013L607.431 97.2242ZM613.415 103.615C614.178 103.936 615.058 103.578 615.379 102.815C615.701 102.051 615.343 101.172 614.58 100.85L613.415 103.615ZM630.025 104.704C629.199 104.635 628.474 105.249 628.406 106.074C628.337 106.9 628.95 107.625 629.776 107.693L630.025 104.704ZM638.804 107.87C639.632 107.87 640.304 107.198 640.304 106.37C640.304 105.541 639.632 104.87 638.804 104.87V107.87ZM657.969 104.87C657.141 104.87 656.469 105.541 656.469 106.37C656.469 107.198 657.141 107.87 657.969 107.87V104.87ZM667.552 107.87C668.38 107.87 669.052 107.198 669.052 106.37C669.052 105.541 668.38 104.87 667.552 104.87V107.87ZM686.717 104.87C685.889 104.87 685.217 105.541 685.217 106.37C685.217 107.198 685.889 107.87 686.717 107.87V104.87ZM696.3 107.87C697.128 107.87 697.8 107.198 697.8 106.37C697.8 105.541 697.128 104.87 696.3 104.87V107.87ZM715.465 104.87C714.636 104.87 713.965 105.541 713.965 106.37C713.965 107.198 714.636 107.87 715.465 107.87V104.87ZM725.048 107.87C725.876 107.87 726.548 107.198 726.548 106.37C726.548 105.541 725.876 104.87 725.048 104.87V107.87ZM744.213 104.87C743.384 104.87 742.713 105.541 742.713 106.37C742.713 107.198 743.384 107.87 744.213 107.87V104.87ZM753.795 107.87C754.624 107.87 755.295 107.198 755.295 106.37C755.295 105.541 754.624 104.87 753.795 104.87V107.87ZM772.961 104.87C772.132 104.87 771.461 105.541 771.461 106.37C771.461 107.198 772.132 107.87 772.961 107.87V104.87ZM782.543 107.87C783.372 107.87 784.043 107.198 784.043 106.37C784.043 105.541 783.372 104.87 782.543 104.87V107.87ZM801.709 104.87C800.88 104.87 800.209 105.541 800.209 106.37C800.209 107.198 800.88 107.87 801.709 107.87V104.87ZM139 107.87H143.297V104.87H139V107.87ZM160.487 107.87H169.081V104.87H160.487V107.87ZM186.271 107.87H194.865V104.87H186.271V107.87ZM212.054 107.87H220.649V104.87H212.054V107.87ZM237.838 107.87H246.433V104.87H237.838V107.87ZM263.622 107.87H272.217V104.87H263.622V107.87ZM289.406 107.87H298.001V104.87H289.406V107.87ZM315.19 107.87H319.488V104.87H315.19V107.87ZM319.488 107.87C320.912 107.87 322.325 107.81 323.724 107.693L323.475 104.704C322.158 104.814 320.829 104.87 319.488 104.87V107.87ZM340.085 103.615C342.671 102.525 345.18 101.246 347.604 99.8013L346.069 97.2242C343.758 98.6011 341.372 99.8166 338.92 100.85L340.085 103.615ZM360.864 89.5272C362.858 87.583 364.757 85.5256 366.554 83.3758L364.252 81.4519C362.518 83.5264 360.688 85.5087 358.77 87.3793L360.864 89.5272ZM376.014 69.5924C376.695 68.372 377.346 67.1383 377.968 65.894L375.284 64.5538C374.683 65.7572 374.053 66.9503 373.394 68.1307L376.014 69.5924ZM377.968 65.894C378.573 64.6809 379.205 63.4597 379.862 62.2332L377.218 60.8156C376.547 62.0684 375.902 63.3154 375.284 64.5538L377.968 65.894ZM388.536 48.2087C390.105 46.0023 391.772 43.8142 393.542 41.661L391.224 39.7563C389.408 41.9657 387.699 44.2092 386.091 46.4697L388.536 48.2087ZM404.899 29.7711C406.913 27.9644 409.025 26.2144 411.237 24.5339L409.422 22.145C407.143 23.8762 404.969 25.6783 402.896 27.5376L404.899 29.7711ZM425.096 15.7311C427.481 14.4848 429.958 13.3167 432.53 12.2366L431.369 9.47061C428.718 10.5835 426.166 11.7874 423.707 13.0722L425.096 15.7311ZM448.151 7.12486C450.756 6.49484 453.442 5.94838 456.211 5.49248L455.724 2.53235C452.883 3.00016 450.124 3.56131 447.446 4.20888L448.151 7.12486ZM472.611 3.93148C473.973 3.89045 475.353 3.86963 476.75 3.86963V0.869629C475.323 0.869629 473.914 0.890896 472.521 0.932843L472.611 3.93148ZM476.75 3.86963C478.147 3.86963 479.527 3.89045 480.889 3.93148L480.979 0.932844C479.586 0.890896 478.177 0.869629 476.75 0.869629V3.86963ZM497.289 5.49248C500.058 5.94838 502.744 6.49484 505.349 7.12486L506.054 4.20888C503.376 3.5613 500.617 3.00016 497.776 2.53234L497.289 5.49248ZM520.97 12.2366C523.542 13.3167 526.019 14.4848 528.404 15.7311L529.793 13.0722C527.334 11.7874 524.782 10.5835 522.131 9.47061L520.97 12.2366ZM542.263 24.5339C544.475 26.2144 546.587 27.9644 548.601 29.7712L550.604 27.5377C548.531 25.6783 546.357 23.8762 544.078 22.145L542.263 24.5339ZM559.958 41.6611C561.728 43.8142 563.395 46.0023 564.964 48.2088L567.409 46.4697C565.801 44.2093 564.092 41.9657 562.276 39.7563L559.958 41.6611ZM573.638 62.2332C574.295 63.4597 574.927 64.6809 575.532 65.894L578.216 64.5538C577.598 63.3154 576.953 62.0684 576.282 60.8156L573.638 62.2332ZM575.532 65.894C576.154 67.1384 576.805 68.372 577.486 69.5924L580.106 68.1307C579.447 66.9503 578.817 65.7572 578.216 64.5538L575.532 65.894ZM586.946 83.3758C588.743 85.5256 590.642 87.583 592.636 89.5272L594.73 87.3793C592.812 85.5087 590.982 83.5264 589.248 81.4519L586.946 83.3758ZM605.896 99.8013C608.32 101.246 610.829 102.525 613.415 103.615L614.58 100.85C612.128 99.8166 609.742 98.6011 607.431 97.2242L605.896 99.8013ZM629.776 107.693C631.175 107.81 632.588 107.87 634.012 107.87V104.87C632.671 104.87 631.342 104.814 630.025 104.704L629.776 107.693ZM634.012 107.87H638.804V104.87H634.012V107.87ZM657.969 107.87H667.552V104.87H657.969V107.87ZM686.717 107.87H696.3V104.87H686.717V107.87ZM715.465 107.87H725.048V104.87H715.465V107.87ZM744.213 107.87H753.795V104.87H744.213V107.87ZM772.961 107.87H782.543V104.87H772.961V107.87ZM801.709 107.87H806.5V104.87H801.709V107.87Z" fill="#0088CC"/>
</svg>
