<svg width="506" height="483" viewBox="0 0 506 483" fill="none" xmlns="http://www.w3.org/2000/svg">
<path d="M195 465.5C190.929 436.897 276 329.5 358.015 355.271" stroke="url(#paint0_linear_114_2031)" stroke-width="1.5" stroke-linecap="round" stroke-linejoin="round" stroke-dasharray="6 8"/>
<path d="M195 465.5C190.929 436.897 267 264.5 125 216.5" stroke="url(#paint1_linear_114_2031)" stroke-width="1.5" stroke-linecap="round" stroke-linejoin="round" stroke-dasharray="6 8"/>
<path d="M195 465.5C195 356.5 412.5 261 306.5 186" stroke="url(#paint2_linear_114_2031)" stroke-width="1.5" stroke-linecap="round" stroke-linejoin="round" stroke-dasharray="6 8"/>
<path d="M195 465.5C190.929 436.897 248 314 60 280.5" stroke="url(#paint3_linear_114_2031)" stroke-width="1.5" stroke-linecap="round" stroke-linejoin="round" stroke-dasharray="6 8"/>
<g filter="url(#filter0_d_114_2031)">
<path d="M354.178 20.5473C283.939 20.5473 227 77.9511 227 148.763C227 219.575 283.939 276.979 354.178 276.979C424.417 276.979 481.356 219.575 481.356 148.763C481.356 77.9511 424.417 20.5472 354.178 20.5473Z" fill="white"/>
<path fill-rule="evenodd" clip-rule="evenodd" d="M374.79 199.648L305.89 181.186C303.452 180.533 301.113 179.519 298.888 177.641C296.221 175.39 295.208 172.695 294.523 170.72C294.47 170.566 294.423 170.41 294.383 170.253C293.691 167.503 293.696 164.737 294.441 161.959C295.148 159.319 296.542 156.61 298.61 154.478C298.63 154.457 298.65 154.437 298.67 154.417L362.399 90.6957C363.805 89.2902 365.845 88.7434 367.751 89.2616C369.657 89.7798 371.14 91.2838 371.641 93.2068L394.215 179.881C394.222 179.905 394.229 179.929 394.236 179.952C394.778 181.839 395.617 184.757 395.013 188.07C394.457 191.116 392.992 193.926 390.812 196.118C388.632 198.31 385.84 199.781 382.81 200.328C379.56 200.914 376.634 200.142 374.79 199.648ZM348.834 181.15L377.675 188.878C379.57 189.386 380.329 189.463 380.902 189.36C381.694 189.218 382.43 188.832 383.009 188.248C383.589 187.666 383.981 186.915 384.131 186.1C384.216 185.632 384.171 185.058 383.566 182.95C383.553 182.906 383.541 182.862 383.529 182.817L366.207 116.31L348.834 181.15ZM338.152 178.288L355.602 113.163L306.487 162.271C305.923 162.864 305.397 163.797 305.123 164.821C304.9 165.651 304.878 166.418 305.061 167.263C305.305 167.951 305.467 168.324 305.615 168.589C305.742 168.816 305.85 168.948 306.017 169.089C306.71 169.674 307.475 170.068 308.776 170.417L338.152 178.288Z" fill="#0088CC"/>
</g>
<g filter="url(#filter1_d_114_2031)">
<path d="M74.8425 68.2194C57.8086 78.2818 52.2236 100.36 62.3681 117.533C72.5125 134.706 94.5448 140.47 111.579 130.408C128.613 120.346 134.198 98.2671 124.053 81.0942C113.909 63.9213 91.8764 58.1571 74.8425 68.2194Z" fill="white"/>
<path fill-rule="evenodd" clip-rule="evenodd" d="M105.499 108.701L86.1449 114.094C85.4601 114.285 84.7476 114.375 83.939 114.238C82.9697 114.074 82.3381 113.565 81.8889 113.185C81.8539 113.155 81.8202 113.124 81.7881 113.091C81.2264 112.524 80.8312 111.852 80.6138 111.072C80.4071 110.33 80.3571 109.474 80.5533 108.66C80.555 108.652 80.557 108.645 80.5591 108.637L86.8857 84.0536C87.0251 83.5115 87.4415 83.0866 87.978 82.9392C88.5145 82.7918 89.0897 82.9441 89.4866 83.3387L107.378 101.125C107.383 101.129 107.388 101.134 107.393 101.139C107.795 101.519 108.417 102.106 108.745 102.996C109.046 103.814 109.094 104.706 108.879 105.55C108.664 106.394 108.198 107.15 107.541 107.717C106.837 108.325 106.017 108.557 105.499 108.701ZM96.5542 107.934L104.656 105.676C105.188 105.528 105.383 105.438 105.507 105.33C105.679 105.183 105.802 104.983 105.859 104.759C105.916 104.535 105.904 104.296 105.823 104.077C105.777 103.952 105.684 103.819 105.235 103.394C105.226 103.386 105.216 103.376 105.207 103.367L91.4787 89.72L96.5542 107.934ZM93.5536 108.77L88.4558 90.4761L83.5801 109.422C83.528 109.646 83.5342 109.948 83.6144 110.236C83.6794 110.469 83.7839 110.658 83.9493 110.837C84.1071 110.968 84.1997 111.036 84.2736 111.079C84.3369 111.116 84.3821 111.132 84.4426 111.143C84.6945 111.185 84.9365 111.171 85.3019 111.069L93.5536 108.77Z" fill="#0088CC"/>
</g>
<g filter="url(#filter2_d_114_2031)">
<path d="M120.623 178.769C100.949 180.85 86.7011 198.617 88.7996 218.452C90.8981 238.286 108.548 252.678 128.222 250.596C147.896 248.515 162.144 230.748 160.046 210.914C157.947 191.079 140.297 176.687 120.623 178.769Z" fill="white"/>
<path fill-rule="evenodd" clip-rule="evenodd" d="M131.704 228.325L111.858 225.195C111.156 225.085 110.47 224.87 109.792 224.41C108.978 223.858 108.614 223.134 108.364 222.601C108.344 222.559 108.326 222.517 108.311 222.474C108.036 221.724 107.955 220.949 108.081 220.149C108.201 219.389 108.511 218.589 109.027 217.93C109.032 217.924 109.037 217.918 109.042 217.911L125.005 198.174C125.357 197.739 125.912 197.525 126.461 197.614C127.01 197.703 127.47 198.08 127.668 198.604L136.559 222.213C136.562 222.219 136.565 222.225 136.567 222.232C136.775 222.744 137.097 223.537 137.026 224.483C136.96 225.352 136.633 226.183 136.087 226.861C135.542 227.54 134.803 228.035 133.971 228.278C133.078 228.538 132.235 228.409 131.704 228.325ZM123.885 223.913L132.193 225.223C132.739 225.309 132.954 225.308 133.111 225.262C133.329 225.199 133.524 225.069 133.669 224.888C133.814 224.708 133.901 224.486 133.919 224.253C133.929 224.12 133.899 223.96 133.667 223.388C133.663 223.376 133.658 223.364 133.653 223.351L126.83 205.236L123.885 223.913ZM120.809 223.428L123.766 204.669L111.465 219.88C111.324 220.062 111.204 220.339 111.158 220.634C111.12 220.873 111.137 221.089 111.213 221.32C111.302 221.506 111.358 221.605 111.407 221.675C111.45 221.735 111.484 221.769 111.535 221.803C111.746 221.947 111.972 222.034 112.347 222.093L120.809 223.428Z" fill="#0088CC"/>
</g>
<g filter="url(#filter3_d_114_2031)">
<path d="M394.446 322.695C376.367 311.818 352.822 317.775 341.856 336.001C330.89 354.227 336.655 377.819 354.734 388.697C372.812 399.574 396.357 393.617 407.323 375.391C418.29 357.165 412.524 333.573 394.446 322.695Z" fill="white"/>
<path fill-rule="evenodd" clip-rule="evenodd" d="M372.015 371.985L357.14 356.563C356.614 356.017 356.168 355.394 355.887 354.566C355.549 353.574 355.706 352.723 355.835 352.109C355.845 352.061 355.857 352.014 355.871 351.967C356.119 351.152 356.549 350.441 357.171 349.841C357.762 349.271 358.54 348.79 359.402 348.561C359.411 348.559 359.419 348.557 359.427 348.555L385.698 342.024C386.278 341.879 386.887 342.055 387.298 342.483C387.708 342.912 387.857 343.529 387.688 344.101L380.076 369.906C380.074 369.913 380.072 369.92 380.07 369.927C379.917 370.497 379.681 371.378 379.013 372.137C378.398 372.835 377.586 373.331 376.685 373.558C375.785 373.784 374.838 373.731 373.974 373.402C373.046 373.05 372.413 372.398 372.015 371.985ZM368.199 363.204L374.425 369.66C374.834 370.084 375.018 370.222 375.181 370.284C375.407 370.37 375.656 370.384 375.896 370.324C376.135 370.264 376.352 370.131 376.517 369.945C376.611 369.837 376.689 369.683 376.859 369.046C376.863 369.033 376.867 369.02 376.87 369.006L382.712 349.206L368.199 363.204ZM365.892 360.813L380.469 346.754L360.223 351.787C359.986 351.852 359.706 352.011 359.477 352.232C359.291 352.411 359.167 352.605 359.083 352.851C359.039 353.066 359.023 353.187 359.02 353.278C359.017 353.356 359.025 353.407 359.046 353.469C359.134 353.727 359.27 353.947 359.55 354.238L365.892 360.813Z" fill="#0088CC"/>
</g>
<g filter="url(#filter4_d_114_2031)">
<path d="M167.529 284.646C132.969 291.626 110.657 325.53 117.694 360.373C124.731 395.215 158.452 417.802 193.013 410.822C227.573 403.842 249.885 369.938 242.848 335.096C235.811 300.253 202.09 277.666 167.529 284.646Z" fill="white"/>
<path fill-rule="evenodd" clip-rule="evenodd" d="M195.469 370.723L159.733 368.486C158.469 368.407 157.217 368.141 155.936 367.438C154.4 366.595 153.633 365.37 153.1 364.466C153.058 364.396 153.02 364.324 152.985 364.25C152.371 362.966 152.099 361.604 152.189 360.163C152.274 358.794 152.691 357.323 153.497 356.068C153.504 356.056 153.512 356.044 153.52 356.032L178.546 318.345C179.098 317.514 180.047 317.042 181.036 317.108C182.026 317.173 182.905 317.766 183.343 318.662L203.063 359.067C203.069 359.078 203.075 359.089 203.081 359.1C203.535 359.974 204.238 361.327 204.27 363.017C204.299 364.571 203.857 366.099 203.002 367.394C202.148 368.69 200.92 369.691 199.483 370.261C197.943 370.872 196.426 370.783 195.469 370.723ZM180.86 364.201L195.819 365.138C196.802 365.199 197.183 365.162 197.455 365.054C197.83 364.905 198.154 364.642 198.381 364.298C198.609 363.953 198.727 363.545 198.719 363.129C198.715 362.89 198.636 362.612 198.128 361.635C198.118 361.615 198.107 361.594 198.097 361.573L182.965 330.57L180.86 364.201ZM175.319 363.854L177.434 330.076L158.147 359.12C157.928 359.468 157.762 359.979 157.729 360.51C157.702 360.941 157.768 361.32 157.941 361.718C158.13 362.032 158.247 362.2 158.346 362.315C158.431 362.415 158.497 362.469 158.593 362.522C158.992 362.74 159.408 362.858 160.083 362.901L175.319 363.854Z" fill="#0088CC"/>
</g>
<g filter="url(#filter5_d_114_2031)">
<path d="M49.5342 252.95C35.4697 252.95 24.0684 264.445 24.0684 278.624C24.0684 292.803 35.4697 304.298 49.5342 304.298C63.5986 304.298 75 292.803 75 278.624C75 264.445 63.5986 252.95 49.5342 252.95Z" fill="white"/>
<path fill-rule="evenodd" clip-rule="evenodd" d="M60.9156 282.388L48.5462 289.529C48.1085 289.782 47.6338 289.97 47.0528 290.019C46.3565 290.078 45.8315 289.839 45.4549 289.657C45.4256 289.643 45.3968 289.627 45.3689 289.61C44.8817 289.319 44.4906 288.927 44.2027 288.428C43.929 287.954 43.7429 287.373 43.7338 286.778C43.7337 286.773 43.7337 286.767 43.7337 286.761L43.7349 268.716C43.7348 268.318 43.9462 267.951 44.2895 267.755C44.6327 267.558 45.0557 267.561 45.3989 267.763L60.8673 276.839C60.8716 276.841 60.876 276.843 60.8803 276.846C61.2243 277.036 61.7562 277.33 62.1398 277.885C62.4924 278.395 62.6827 279 62.6844 279.619C62.6862 280.238 62.4991 280.842 62.1475 281.349C61.7704 281.892 61.2467 282.197 60.9156 282.388ZM54.6215 283.444L59.7993 280.454C60.1395 280.258 60.258 280.161 60.3244 280.066C60.4164 279.933 60.466 279.775 60.4654 279.61C60.465 279.445 60.4143 279.284 60.32 279.147C60.2657 279.069 60.1782 278.994 59.794 278.781C59.786 278.777 59.778 278.772 59.77 278.767L47.9008 271.803L54.6215 283.444ZM52.7037 284.551L45.9535 272.859L45.9526 286.767C45.9566 286.93 46.0143 287.137 46.1204 287.321C46.2064 287.47 46.312 287.582 46.4575 287.675C46.5895 287.738 46.6652 287.768 46.7236 287.785C46.7738 287.799 46.8078 287.802 46.8513 287.799C47.0323 287.783 47.1964 287.731 47.4299 287.596L52.7037 284.551Z" fill="#0088CC"/>
</g>
<defs>
<filter id="filter0_d_114_2031" x="203" y="0.547241" width="302.356" height="304.432" filterUnits="userSpaceOnUse" color-interpolation-filters="sRGB">
<feFlood flood-opacity="0" result="BackgroundImageFix"/>
<feColorMatrix in="SourceAlpha" type="matrix" values="0 0 0 0 0 0 0 0 0 0 0 0 0 0 0 0 0 0 127 0" result="hardAlpha"/>
<feOffset dy="4"/>
<feGaussianBlur stdDeviation="12"/>
<feComposite in2="hardAlpha" operator="out"/>
<feColorMatrix type="matrix" values="0 0 0 0 0 0 0 0 0 0.533333 0 0 0 0 0.8 0 0 0 0.11 0"/>
<feBlend mode="normal" in2="BackgroundImageFix" result="effect1_dropShadow_114_2031"/>
<feBlend mode="normal" in="SourceGraphic" in2="effect1_dropShadow_114_2031" result="shape"/>
</filter>
<filter id="filter1_d_114_2031" x="33.3073" y="43.269" width="119.807" height="120.089" filterUnits="userSpaceOnUse" color-interpolation-filters="sRGB">
<feFlood flood-opacity="0" result="BackgroundImageFix"/>
<feColorMatrix in="SourceAlpha" type="matrix" values="0 0 0 0 0 0 0 0 0 0 0 0 0 0 0 0 0 0 127 0" result="hardAlpha"/>
<feOffset dy="4"/>
<feGaussianBlur stdDeviation="12"/>
<feComposite in2="hardAlpha" operator="out"/>
<feColorMatrix type="matrix" values="0 0 0 0 0 0 0 0 0 0.533333 0 0 0 0 0.8 0 0 0 0.11 0"/>
<feBlend mode="normal" in2="BackgroundImageFix" result="effect1_dropShadow_114_2031"/>
<feBlend mode="normal" in="SourceGraphic" in2="effect1_dropShadow_114_2031" result="shape"/>
</filter>
<filter id="filter2_d_114_2031" x="64.5946" y="158.569" width="119.656" height="120.228" filterUnits="userSpaceOnUse" color-interpolation-filters="sRGB">
<feFlood flood-opacity="0" result="BackgroundImageFix"/>
<feColorMatrix in="SourceAlpha" type="matrix" values="0 0 0 0 0 0 0 0 0 0 0 0 0 0 0 0 0 0 127 0" result="hardAlpha"/>
<feOffset dy="4"/>
<feGaussianBlur stdDeviation="12"/>
<feComposite in2="hardAlpha" operator="out"/>
<feColorMatrix type="matrix" values="0 0 0 0 0 0 0 0 0 0.533333 0 0 0 0 0.8 0 0 0 0.11 0"/>
<feBlend mode="normal" in2="BackgroundImageFix" result="effect1_dropShadow_114_2031"/>
<feBlend mode="normal" in="SourceGraphic" in2="effect1_dropShadow_114_2031" result="shape"/>
</filter>
<filter id="filter3_d_114_2031" x="312.299" y="297.259" width="124.582" height="124.874" filterUnits="userSpaceOnUse" color-interpolation-filters="sRGB">
<feFlood flood-opacity="0" result="BackgroundImageFix"/>
<feColorMatrix in="SourceAlpha" type="matrix" values="0 0 0 0 0 0 0 0 0 0 0 0 0 0 0 0 0 0 127 0" result="hardAlpha"/>
<feOffset dy="4"/>
<feGaussianBlur stdDeviation="12"/>
<feComposite in2="hardAlpha" operator="out"/>
<feColorMatrix type="matrix" values="0 0 0 0 0 0 0 0 0 0.533333 0 0 0 0 0.8 0 0 0 0.11 0"/>
<feBlend mode="normal" in2="BackgroundImageFix" result="effect1_dropShadow_114_2031"/>
<feBlend mode="normal" in="SourceGraphic" in2="effect1_dropShadow_114_2031" result="shape"/>
</filter>
<filter id="filter4_d_114_2031" x="92.3971" y="263.38" width="175.748" height="176.708" filterUnits="userSpaceOnUse" color-interpolation-filters="sRGB">
<feFlood flood-opacity="0" result="BackgroundImageFix"/>
<feColorMatrix in="SourceAlpha" type="matrix" values="0 0 0 0 0 0 0 0 0 0 0 0 0 0 0 0 0 0 127 0" result="hardAlpha"/>
<feOffset dy="4"/>
<feGaussianBlur stdDeviation="12"/>
<feComposite in2="hardAlpha" operator="out"/>
<feColorMatrix type="matrix" values="0 0 0 0 0 0 0 0 0 0.533333 0 0 0 0 0.8 0 0 0 0.11 0"/>
<feBlend mode="normal" in2="BackgroundImageFix" result="effect1_dropShadow_114_2031"/>
<feBlend mode="normal" in="SourceGraphic" in2="effect1_dropShadow_114_2031" result="shape"/>
</filter>
<filter id="filter5_d_114_2031" x="0.0683594" y="232.95" width="98.9316" height="99.3473" filterUnits="userSpaceOnUse" color-interpolation-filters="sRGB">
<feFlood flood-opacity="0" result="BackgroundImageFix"/>
<feColorMatrix in="SourceAlpha" type="matrix" values="0 0 0 0 0 0 0 0 0 0 0 0 0 0 0 0 0 0 127 0" result="hardAlpha"/>
<feOffset dy="4"/>
<feGaussianBlur stdDeviation="12"/>
<feComposite in2="hardAlpha" operator="out"/>
<feColorMatrix type="matrix" values="0 0 0 0 0 0 0 0 0 0.533333 0 0 0 0 0.8 0 0 0 0.11 0"/>
<feBlend mode="normal" in2="BackgroundImageFix" result="effect1_dropShadow_114_2031"/>
<feBlend mode="normal" in="SourceGraphic" in2="effect1_dropShadow_114_2031" result="shape"/>
</filter>
<linearGradient id="paint0_linear_114_2031" x1="203" y1="440.5" x2="314" y2="359.5" gradientUnits="userSpaceOnUse">
<stop stop-color="#0088CC" stop-opacity="0"/>
<stop offset="1" stop-color="#0088CC"/>
</linearGradient>
<linearGradient id="paint1_linear_114_2031" x1="203.5" y1="459" x2="204.5" y2="255" gradientUnits="userSpaceOnUse">
<stop stop-color="#0088CC" stop-opacity="0"/>
<stop offset="1" stop-color="#0088CC"/>
</linearGradient>
<linearGradient id="paint2_linear_114_2031" x1="201" y1="443" x2="285.5" y2="302" gradientUnits="userSpaceOnUse">
<stop stop-color="#0088CC" stop-opacity="0"/>
<stop offset="1" stop-color="#0088CC"/>
</linearGradient>
<linearGradient id="paint3_linear_114_2031" x1="198" y1="449.5" x2="142.5" y2="188" gradientUnits="userSpaceOnUse">
<stop stop-color="#0088CC" stop-opacity="0"/>
<stop offset="1" stop-color="#0088CC"/>
</linearGradient>
</defs>
</svg>
