<svg width="24" height="24" viewBox="0 0 24 24" fill="none" xmlns="http://www.w3.org/2000/svg">
<path d="M8.70598 8.70701C8.51912 8.51956 8.41419 8.26568 8.41419 8.00101C8.41419 7.73633 8.51912 7.48245 8.70598 7.29501L8.79397 7.20701C8.88676 7.11395 8.99703 7.04016 9.11843 6.98987C9.23983 6.93958 9.36998 6.91379 9.50139 6.91397C9.6328 6.91416 9.76287 6.94032 9.88414 6.99095C10.0054 7.04159 10.1155 7.11569 10.208 7.20901L15.292 12.293C15.3853 12.3858 15.4594 12.4961 15.51 12.6176C15.5606 12.7391 15.5866 12.8694 15.5866 13.001C15.5866 13.1326 15.5606 13.2629 15.51 13.3844C15.4594 13.5059 15.3853 13.6163 15.292 13.709L10.208 18.793C10.0205 18.9803 9.76639 19.0856 9.50139 19.086C9.23639 19.0863 8.98203 18.9817 8.79397 18.795L8.70598 18.707C8.61285 18.6145 8.53894 18.5045 8.48851 18.3834C8.43807 18.2622 8.41211 18.1323 8.41211 18.001C8.41211 17.8698 8.43807 17.7398 8.48851 17.6186C8.53894 17.4975 8.61285 17.3875 8.70598 17.295L13 13.001L8.70598 8.70701Z" fill="#0088CC"/>
</svg>
