<svg width="28" height="28" viewBox="0 0 28 28" fill="none" xmlns="http://www.w3.org/2000/svg">
<g opacity="0.5">
<path d="M24.905 2.11344C25.361 2.43136 25.595 3.85674 25.3587 6.98268C25.2685 8.11827 25.1168 9.24813 24.9042 10.3673C25.9625 12.2111 26.2542 14.3015 25.7795 16.6402C25.3587 18.7104 23.981 20.6449 21.7707 22.4924C19.5597 24.3407 16.9963 26 13.9768 26C10.9565 26 7.86129 24.2582 5.9818 22.4924C4.10156 20.7274 2.91881 19.062 2.37207 17.2085C1.70982 14.9614 1.93182 12.6812 3.03656 10.3673C2.80181 9.12712 2.65406 7.99941 2.59406 6.98268C2.37207 3.23815 2.51457 2.51009 3.03656 2.11344C3.74681 1.57358 6.0073 2.96072 9.81803 6.27261C11.5633 5.95694 12.9575 5.79948 14 5.79948C15.0425 5.79948 16.421 5.95694 18.1347 6.27186C21.9702 3.0282 24.227 1.64181 24.9042 2.11344H24.905Z" stroke="#232328" stroke-width="2.5"/>
<path d="M13.9481 20.618C13.0226 20.636 11.7761 19.3816 11.7761 18.8687C11.7761 18.3551 13.2371 18.2029 14.0538 18.2029C14.8713 18.2029 16.2266 18.2899 16.2266 18.8687C16.2266 19.4468 14.8736 20.6 13.9481 20.618ZM7.98785 15.7563C9.32659 16.2774 10.6803 15.9925 11.0103 15.1189C11.3403 14.2454 10.5228 13.1139 9.18409 12.5921C7.8461 12.071 6.70536 12.011 6.37461 12.8845C6.04461 13.758 6.64986 15.2344 7.98785 15.7563V15.7563ZM19.969 15.6056C18.7038 16.2166 17.3253 15.9925 16.9953 15.1182C16.6653 14.2454 17.4828 13.1139 18.8208 12.5921C20.1595 12.071 21.166 12.011 21.496 12.8845C21.826 13.758 21.2343 14.9937 19.969 15.6056Z" fill="#232328"/>
</g>
</svg>
