<svg width="24" height="24" viewBox="0 0 24 24" fill="none" xmlns="http://www.w3.org/2000/svg">
<g opacity="0.5">
<path d="M21.1875 24H8.4375C6.88652 24 5.625 22.7385 5.625 21.1875V8.4375C5.625 6.88652 6.88652 5.625 8.4375 5.625H21.1875C22.7385 5.625 24 6.88652 24 8.4375V21.1875C24 22.7385 22.7385 24 21.1875 24ZM8.4375 7.5C7.92056 7.5 7.5 7.92056 7.5 8.4375V21.1875C7.5 21.7044 7.92056 22.125 8.4375 22.125H21.1875C21.7044 22.125 22.125 21.7044 22.125 21.1875V8.4375C22.125 7.92056 21.7044 7.5 21.1875 7.5H8.4375ZM3.75 16.5H2.8125C2.29556 16.5 1.875 16.0794 1.875 15.5625V2.8125C1.875 2.29556 2.29556 1.875 2.8125 1.875H15.5625C16.0794 1.875 16.5 2.29556 16.5 2.8125V3.70313H18.375V2.8125C18.375 1.26152 17.1135 0 15.5625 0H2.8125C1.26152 0 0 1.26152 0 2.8125V15.5625C0 17.1135 1.26152 18.375 2.8125 18.375H3.75V16.5Z" fill="#232328"/>
</g>
</svg>
