<svg width="146" height="37" viewBox="0 0 146 37" fill="none" xmlns="http://www.w3.org/2000/svg">
<path d="M18 37C27.9412 37 36 28.7173 36 18.5C36 8.28273 27.9412 0 18 0C8.05887 0 0 8.28273 0 18.5C0 28.7173 8.05887 37 18 37Z" fill="#0088CC"/>
<path fill-rule="evenodd" clip-rule="evenodd" d="M12.9924 12.2219H23.088C23.4452 12.2219 23.8022 12.2758 24.1751 12.4546C24.6222 12.6687 24.8593 13.0064 25.0254 13.2561C25.0383 13.2755 25.0505 13.2955 25.0616 13.316C25.2569 13.6734 25.3576 14.0591 25.3576 14.4741C25.3576 14.8685 25.2663 15.298 25.0616 15.6724C25.0597 15.676 25.0577 15.6796 25.0557 15.6832L18.6774 26.944C18.5367 27.1924 18.2779 27.3447 17.9983 27.3437C17.7187 27.3427 17.4609 27.1884 17.322 26.9391L11.0608 15.7022C11.059 15.6992 11.0572 15.6961 11.0554 15.6931C10.9121 15.4504 10.6905 15.0751 10.6517 14.5907C10.6161 14.1455 10.7135 13.6991 10.9312 13.3123C11.149 12.9253 11.4768 12.616 11.871 12.4266C12.2938 12.2235 12.7222 12.2219 12.9924 12.2219ZM17.2185 13.8306H12.9924C12.7147 13.8306 12.6081 13.8482 12.5336 13.884C12.4306 13.9334 12.3441 14.0147 12.2862 14.1176C12.2283 14.2205 12.2022 14.3397 12.2116 14.4589C12.2172 14.5274 12.2443 14.6056 12.4042 14.8768C12.4076 14.8825 12.4109 14.8882 12.4141 14.894L17.2185 23.5163V13.8306ZM18.7837 13.8306V23.5588L23.6992 14.8804C23.7547 14.7768 23.7924 14.627 23.7924 14.4741C23.7924 14.3501 23.7673 14.2424 23.7114 14.1314C23.6528 14.0446 23.617 13.9987 23.5871 13.9673C23.5614 13.9403 23.5417 13.926 23.5138 13.9126C23.3976 13.857 23.2786 13.8306 23.088 13.8306H18.7837Z" fill="white"/>
<path d="M51.2194 27.0251V13.3053H46V10.3268H60.1369V13.3053H54.9175V27.0251H51.2194Z" fill="black"/>
<path d="M68.7944 27.2361C67.1248 27.2361 65.6815 26.8843 64.4644 26.1808C63.2473 25.4772 62.3033 24.4844 61.6323 23.2023C60.977 21.9202 60.6493 20.4036 60.6493 18.6525C60.6493 16.917 60.977 15.4082 61.6323 14.1261C62.3033 12.844 63.2473 11.859 64.4644 11.1711C65.6815 10.4675 67.1248 10.1157 68.7944 10.1157C70.464 10.1157 71.8995 10.4675 73.101 11.1711C74.3181 11.859 75.2543 12.844 75.9097 14.1261C76.565 15.4082 76.8927 16.917 76.8927 18.6525C76.8927 20.4036 76.565 21.9202 75.9097 23.2023C75.2543 24.4844 74.3181 25.4772 73.101 26.1808C71.8995 26.8843 70.464 27.2361 68.7944 27.2361ZM68.7944 24.3984C70.1675 24.3984 71.252 23.9137 72.0478 22.9443C72.8592 21.9593 73.2648 20.5287 73.2648 18.6525C73.2648 16.7763 72.8592 15.3613 72.0478 14.4075C71.252 13.4382 70.1675 12.9535 68.7944 12.9535C67.4057 12.9535 66.3134 13.4382 65.5176 14.4075C64.7218 15.3613 64.3239 16.7763 64.3239 18.6525C64.3239 20.5443 64.7218 21.9749 65.5176 22.9443C66.3134 23.9137 67.4057 24.3984 68.7944 24.3984Z" fill="black"/>
<path d="M79.7463 27.0251V10.3268H82.438L91.4257 21.8186L90.7469 22.2642V10.3268H94.1875V27.0251H91.4725L82.5316 15.5802L83.1635 15.0877V27.0251H79.7463Z" fill="black"/>
<path d="M105.867 27.0251H102.193L109.846 10.3268H112.795L120.449 27.0251H116.821L110.923 13.2349H111.812L105.867 27.0251ZM105.657 23.3195L107.061 20.5287H115.393L116.774 23.3195H105.657Z" fill="black"/>
<path d="M133.528 27.0251H130.04V24.1169L130.321 24.6329C130.056 25.4459 129.556 26.0791 128.823 26.5326C128.09 26.986 127.247 27.2127 126.295 27.2127C125.265 27.2127 124.353 26.9547 123.557 26.4387C122.777 25.9072 122.16 25.1801 121.708 24.2577C121.271 23.3195 121.052 22.2251 121.052 20.9743C121.052 19.7391 121.271 18.6603 121.708 17.7378C122.145 16.8153 122.761 16.1039 123.557 15.6036C124.353 15.0877 125.265 14.8297 126.295 14.8297C127.247 14.8297 128.09 15.072 128.823 15.5567C129.556 16.0258 130.056 16.6512 130.321 17.4329L129.993 17.8551V9.76392H133.528V27.0251ZM127.325 24.5156C128.183 24.5156 128.847 24.2186 129.315 23.6244C129.798 23.0303 130.04 22.1625 130.04 21.0212C130.04 19.9267 129.798 19.0746 129.315 18.4648C128.847 17.8551 128.183 17.5502 127.325 17.5502C126.436 17.5502 125.749 17.8473 125.265 18.4414C124.797 19.0355 124.563 19.8798 124.563 20.9743C124.563 22.1156 124.805 22.9912 125.289 23.601C125.788 24.2107 126.467 24.5156 127.325 24.5156Z" fill="black"/>
<path d="M140.944 27.2127C138.682 27.2127 136.895 26.728 135.585 25.7586L136.544 23.2961C137.168 23.7495 137.863 24.1013 138.627 24.3515C139.407 24.586 140.188 24.7033 140.968 24.7033C141.576 24.7033 142.044 24.6094 142.372 24.4218C142.7 24.2186 142.864 23.9449 142.864 23.601C142.864 23.3039 142.747 23.0772 142.513 22.9209C142.279 22.7489 141.865 22.5925 141.272 22.4518L139.329 21.9827C138.175 21.7482 137.324 21.3573 136.778 20.8101C136.248 20.2629 135.982 19.5359 135.982 18.629C135.982 17.8942 136.193 17.2453 136.614 16.6824C137.051 16.1039 137.652 15.6505 138.417 15.3222C139.181 14.9939 140.071 14.8297 141.085 14.8297C141.943 14.8297 142.77 14.9626 143.566 15.2284C144.362 15.4785 145.087 15.8382 145.743 16.3072L144.76 18.6759C144.151 18.2538 143.527 17.9333 142.887 17.7144C142.263 17.4955 141.654 17.386 141.061 17.386C140.484 17.386 140.032 17.4877 139.704 17.6909C139.376 17.8942 139.212 18.1756 139.212 18.5352C139.212 18.801 139.306 19.0121 139.493 19.1684C139.696 19.3248 140.047 19.4655 140.547 19.5906L142.536 20.0362C143.753 20.3176 144.635 20.7398 145.181 21.3026C145.727 21.8655 146 22.616 146 23.5541C146 24.6798 145.547 25.571 144.642 26.2277C143.753 26.8843 142.52 27.2127 140.944 27.2127Z" fill="black"/>
</svg>
