<svg width="20" height="20" viewBox="0 0 20 20" fill="none" xmlns="http://www.w3.org/2000/svg">
<path fill-rule="evenodd" clip-rule="evenodd" d="M3.19153 0H16.9149C17.4004 0 17.8857 0.0712624 18.3926 0.307684C19.0003 0.590902 19.3227 1.0376 19.5484 1.36776C19.566 1.39345 19.5825 1.41991 19.5977 1.44698C19.8631 1.91967 20 2.42983 20 2.97867C20 3.5003 19.8758 4.06842 19.5977 4.56359C19.5951 4.56833 19.5923 4.57307 19.5896 4.57781L10.9193 19.4713C10.7281 19.7998 10.3763 20.0014 9.99624 20C9.61622 19.9986 9.26572 19.7946 9.07686 19.4649L0.565801 4.60304C0.563355 4.59907 0.560908 4.59494 0.558461 4.59096C0.36368 4.26997 0.0624635 3.77358 0.00976548 3.13298C-0.0386507 2.54406 0.0937364 1.95377 0.389723 1.44208C0.685695 0.930243 1.13132 0.521169 1.66717 0.270677C2.24186 0.00214101 2.8242 0 3.19153 0ZM8.93617 2.12765H3.19153C2.81411 2.12765 2.66914 2.15089 2.5679 2.1983C2.42782 2.2636 2.31022 2.3711 2.23162 2.50721C2.15286 2.64331 2.11738 2.80097 2.13023 2.95864C2.13772 3.04917 2.17458 3.1527 2.39204 3.51131C2.39662 3.5188 2.40106 3.52645 2.40549 3.5341L8.93617 14.9379V2.12765ZM11.0638 2.12765V14.9941L17.7457 3.51605C17.8211 3.37903 17.8724 3.18099 17.8724 2.97867C17.8724 2.81474 17.8383 2.67221 17.7622 2.5254C17.6826 2.41071 17.6339 2.35 17.5933 2.3084C17.5584 2.27277 17.5316 2.25381 17.4937 2.23607C17.3357 2.16251 17.1739 2.12765 16.9149 2.12765H11.0638Z" fill="#0088CC"/>
</svg>
